{
.appVersion = "1141";
copyright = "Copyright (c) 2018, Cadson Demak (info@cadsondemak.com)";
customParameters = (
{
name = vendorID;
value = CDK;
},
{
name = description;
value = "Copyright (c) 2018, Cadson Demak (info@cadsondemak.com)";
},
{
name = license;

glyphs = (
{
color = 6;
glyphname = A;
lastChange = "2018-04-30 11:49:36 +0000";
layers = (
{
anchors = (
{
name = bottom;
position = "{315, 0}";
},
{
name = ogonek;
position = "{553, -1}";
},
{
name = top;
position = "{325, 700}";
}
);
layerId = "0B1DFD06-3317-40CA-B510-4969A0718C16";
paths = (
{
closed = 1;
nodes = (
"560 -10 OFFCURVE",
"571 -6 OFFCURVE",
"571 3 CURVE SMOOTH",
"571 6 OFFCURVE",
"570 9 OFFCURVE",
"569 11 CURVE SMOOTH",
"492 265 OFFCURVE",
"434 448 OFFCURVE",
"386 611 CURVE SMOOTH",
"366 680 OFFCURVE",
"346 710 OFFCURVE",
"325 710 CURVE SMOOTH",
"300 710 OFFCURVE",
"283 674 OFFCURVE",
"258 601 CURVE SMOOTH",
"209 457 OFFCURVE",
"167 323 OFFCURVE",
"61 11 CURVE SMOOTH",
"60 8 OFFCURVE",
"60 7 OFFCURVE",
"60 5 CURVE SMOOTH",
"60 -2 OFFCURVE",
"66 -7 OFFCURVE",
"75 -7 CURVE SMOOTH",
"82 -7 OFFCURVE",
"86 -5 OFFCURVE",
"89 4 CURVE SMOOTH",
"193 320 OFFCURVE",
"240 460 OFFCURVE",
"288 604 CURVE SMOOTH",
"304 652 OFFCURVE",
"316 682 OFFCURVE",
"323 682 CURVE SMOOTH",
"330 682 OFFCURVE",
"346 653 OFFCURVE",
"359 607 CURVE SMOOTH",
"407 441 OFFCURVE",
"462 257 OFFCURVE",
"541 -1 CURVE SMOOTH",
"543 -6 OFFCURVE",
"546 -10 OFFCURVE",
"553 -10 CURVE SMOOTH"
);
},
{
closed = 1;
nodes = (
"546 189 OFFCURVE",
"550 196 OFFCURVE",
"550 203 CURVE SMOOTH",
"550 211 OFFCURVE",
"545 217 OFFCURVE",
"537 217 CURVE SMOOTH",
"151 221 LINE SMOOTH",
"139 221 OFFCURVE",
"135 214 OFFCURVE",
"135 206 CURVE SMOOTH",
"135 196 OFFCURVE",
"139 191 OFFCURVE",
"150 191 CURVE SMOOTH",
"536 189 LINE SMOOTH"
);
}
);
width = 631;
},
{
anchors = (
{
name = bottom;
position = "{348, 0}";
},
{
name = ogonek;
position = "{563, 8}";
},
{
name = top;
position = "{348, 700}";
}
);
layerId = "2F8C22CF-EC86-44F4-AF1A-A6C7F26A0C3C";
paths = (
{
closed = 1;
nodes = (
"596 -11 OFFCURVE",
"637 9 OFFCURVE",
"637 50 CURVE SMOOTH",
"637 56 OFFCURVE",
"636 62 OFFCURVE",
"634 69 CURVE SMOOTH",
"575 265 OFFCURVE",
"532 413 OFFCURVE",
"473 596 CURVE SMOOTH",
"445 682 OFFCURVE",
"416 712 OFFCURVE",
"357 712 CURVE SMOOTH",
"295 712 OFFCURVE",
"264 676 OFFCURVE",
"234 587 CURVE SMOOTH",
"178 418 OFFCURVE",
"140 300 OFFCURVE",
"63 70 CURVE SMOOTH",
"61 63 OFFCURVE",
"60 56 OFFCURVE",
"60 50 CURVE SMOOTH",
"60 12 OFFCURVE",
"102 -10 OFFCURVE",
"143 -10 CURVE SMOOTH",
"175 -10 OFFCURVE",
"203 2 OFFCURVE",
"212 34 CURVE SMOOTH",
"280 280 OFFCURVE",
"308 368 OFFCURVE",
"326 431 CURVE SMOOTH",
"337 470 OFFCURVE",
"341 501 OFFCURVE",
"351 501 CURVE SMOOTH",
"360 501 OFFCURVE",
"365 470 OFFCURVE",
"379 424 CURVE SMOOTH",
"399 358 OFFCURVE",
"425 256 OFFCURVE",
"485 31 CURVE SMOOTH",
"493 3 OFFCURVE",
"521 -11 OFFCURVE",
"555 -11 CURVE SMOOTH"
);
},
{
closed = 1;
nodes = (
"631 160 OFFCURVE",
"645 179 OFFCURVE",
"645 224 CURVE SMOOTH",
"645 267 OFFCURVE",
"628 287 OFFCURVE",
"596 287 CURVE SMOOTH",
"209 291 LINE SMOOTH",
"162 291 OFFCURVE",
"134 262 OFFCURVE",
"134 223 CURVE SMOOTH",
"134 188 OFFCURVE",
"158 161 OFFCURVE",
"200 161 CURVE SMOOTH",
"608 160 LINE SMOOTH"
);
}
);
width = 697;
},
{
anchors = (
{
name = bottom;
position = "{343, 0}";
},
{
name = ogonek;
position = "{579, 10}";
},
{
name = top;
position = "{349, 700}";
}
);
layerId = "17B9D149-A542-49FB-8130-D430586D7342";
paths = (
{
closed = 1;
nodes = (
"591 -10 OFFCURVE",
"612 0 OFFCURVE",
"612 22 CURVE SMOOTH",
"612 25 OFFCURVE",
"611 28 OFFCURVE",
"609 34 CURVE SMOOTH",
"533 284 OFFCURVE",
"495 421 OFFCURVE",
"434 608 CURVE SMOOTH",
"410 682 OFFCURVE",
"390 711 OFFCURVE",
"352 711 CURVE SMOOTH",
"312 711 OFFCURVE",
"289 676 OFFCURVE",
"263 598 CURVE SMOOTH",
"207 426 OFFCURVE",
"172 317 OFFCURVE",
"76 35 CURVE SMOOTH",
"75 30 OFFCURVE",
"74 27 OFFCURVE",
"74 23 CURVE SMOOTH",
"74 4 OFFCURVE",
"94 -9 OFFCURVE",
"116 -9 CURVE SMOOTH",
"133 -9 OFFCURVE",
"147 -2 OFFCURVE",
"153 16 CURVE SMOOTH",
"243 293 OFFCURVE",
"274 399 OFFCURVE",
"318 535 CURVE SMOOTH",
"332 579 OFFCURVE",
"341 610 OFFCURVE",
"349 610 CURVE SMOOTH",
"357 610 OFFCURVE",
"367 580 OFFCURVE",
"381 534 CURVE SMOOTH",
"420 405 OFFCURVE",
"460 259 OFFCURVE",
"533 12 CURVE SMOOTH",
"537 -2 OFFCURVE",
"552 -10 OFFCURVE",
"569 -10 CURVE SMOOTH"
);
},
{
closed = 1;
nodes = (
"604 167 OFFCURVE",
"611 184 OFFCURVE",
"611 206 CURVE SMOOTH",
"611 229 OFFCURVE",
"596 245 OFFCURVE",
"574 245 CURVE SMOOTH",
"190 249 LINE SMOOTH",
"163 249 OFFCURVE",
"150 233 OFFCURVE",
"150 208 CURVE SMOOTH",
"150 185 OFFCURVE",
"161 169 OFFCURVE",
"184 169 CURVE SMOOTH",
"580 167 LINE SMOOTH"
);
}
);
width = 692;
},
{
anchors = (
{
name = bottom;
position = "{273, 0}";
},
{
name = ogonek;
position = "{511, -1}";
},
{
name = top;
position = "{406, 700}";
}
);
layerId = "2214C8E2-2079-4DC2-8649-1937C1DD8804";
paths = (
{
closed = 1;
nodes = (
"518 -10 OFFCURVE",
"530 -10 OFFCURVE",
"530 4 CURVE SMOOTH",
"530 5 OFFCURVE",
"530 7 OFFCURVE",
"529 12 CURVE SMOOTH",
"508 170 OFFCURVE",
"469 470 OFFCURVE",
"451 616 CURVE SMOOTH",
"443 684 OFFCURVE",
"426 710 OFFCURVE",
"404 710 CURVE SMOOTH",
"379 710 OFFCURVE",
"358 677 OFFCURVE",
"323 605 CURVE SMOOTH",
"266 489 OFFCURVE",
"161 282 OFFCURVE",
"21 11 CURVE SMOOTH",
"20 9 OFFCURVE",
"18 9 OFFCURVE",
"19 3 CURVE SMOOTH",
"20 -4 OFFCURVE",
"24 -7 OFFCURVE",
"32 -7 CURVE SMOOTH",
"39 -7 OFFCURVE",
"43 -5 OFFCURVE",
"48 4 CURVE SMOOTH",
"185 269 OFFCURVE",
"296 489 OFFCURVE",
"353 604 CURVE SMOOTH",
"376 650 OFFCURVE",
"394 682 OFFCURVE",
"402 682 CURVE SMOOTH",
"409 682 OFFCURVE",
"418 653 OFFCURVE",
"424 607 CURVE SMOOTH",
"442 470 OFFCURVE",
"479 162 OFFCURVE",
"499 -1 CURVE SMOOTH",
"500 -6 OFFCURVE",
"505 -10 OFFCURVE",
"512 -10 CURVE SMOOTH"
);
},
{
closed = 1;
nodes = (
"537 189 OFFCURVE",
"544 198 OFFCURVE",
"544 206 CURVE SMOOTH",
"544 212 OFFCURVE",
"540 217 OFFCURVE",
"533 217 CURVE SMOOTH",
"151 221 LINE SMOOTH",
"135 221 OFFCURVE",
"129 211 OFFCURVE",
"129 204 CURVE SMOOTH",
"129 199 OFFCURVE",
"132 191 OFFCURVE",
"142 191 CURVE SMOOTH",
"526 189 LINE SMOOTH"
);
}
);
width = 631;
},
{
anchors = (
{
name = bottom;
position = "{301, 0}";
},
{
name = ogonek;
position = "{539, 10}";
},
{
name = top;
position = "{430, 700}";
}
);
layerId = "AEE50E4E-1B30-4E16-A434-AC23B12A4294";
paths = (
{
closed = 1;
nodes = (
"547 -10 OFFCURVE",
"574 2 OFFCURVE",
"574 25 CURVE SMOOTH",
"574 27 OFFCURVE",
"574 28 OFFCURVE",
"573 34 CURVE SMOOTH",
"551 211 OFFCURVE",
"528 410 OFFCURVE",
"499 608 CURVE SMOOTH",
"488 685 OFFCURVE",
"463 711 OFFCURVE",
"428 711 CURVE SMOOTH",
"385 711 OFFCURVE",
"364 673 OFFCURVE",
"326 598 CURVE SMOOTH",
"239 425 OFFCURVE",
"172 297 OFFCURVE",
"40 35 CURVE SMOOTH",
"38 31 OFFCURVE",
"36 25 OFFCURVE",
"36 23 CURVE SMOOTH",
"33 10 OFFCURVE",
"44 -9 OFFCURVE",
"72 -9 CURVE SMOOTH",
"89 -9 OFFCURVE",
"105 -2 OFFCURVE",
"114 16 CURVE SMOOTH",
"247 273 OFFCURVE",
"301 395 OFFCURVE",
"370 535 CURVE SMOOTH",
"392 579 OFFCURVE",
"407 610 OFFCURVE",
"415 610 CURVE SMOOTH",
"422 610 OFFCURVE",
"427 584 OFFCURVE",
"433 534 CURVE SMOOTH",
"449 407 OFFCURVE",
"473 186 OFFCURVE",
"493 12 CURVE SMOOTH",
"495 -2 OFFCURVE",
"509 -10 OFFCURVE",
"526 -10 CURVE SMOOTH"
);
},
{
closed = 1;
nodes = (
"591 167 OFFCURVE",
"603 191 OFFCURVE",
"603 214 CURVE SMOOTH",
"603 232 OFFCURVE",
"593 245 OFFCURVE",
"572 245 CURVE SMOOTH",
"192 249 LINE SMOOTH",
"162 249 OFFCURVE",
"144 228 OFFCURVE",
"144 197 CURVE SMOOTH",
"144 180 OFFCURVE",
"153 169 OFFCURVE",
"172 169 CURVE SMOOTH",
"564 167 LINE SMOOTH"
);
}
);
width = 692;
},
{
anchors = (
{
name = bottom;
position = "{306, 0}";
},
{
name = ogonek;
position = "{519, 8}";
},
{
name = top;
position = "{429, 700}";
}
);
layerId = "F86CB789-B416-49E2-AD1B-BE88A4A88FF7";
paths = (
{
closed = 1;
nodes = (
"571 -11 OFFCURVE",
"605 17 OFFCURVE",
"605 59 CURVE SMOOTH",
"605 62 OFFCURVE",
"605 65 OFFCURVE",
"604 69 CURVE SMOOTH",
"576 268 OFFCURVE",
"564 405 OFFCURVE",
"536 596 CURVE SMOOTH",
"523 682 OFFCURVE",
"488 712 OFFCURVE",
"430 712 CURVE SMOOTH",
"367 712 OFFCURVE",
"341 677 OFFCURVE",
"296 587 CURVE SMOOTH",
"218 431 OFFCURVE",
"151 298 OFFCURVE",
"33 70 CURVE SMOOTH",
"29 63 OFFCURVE",
"28 56 OFFCURVE",
"27 50 CURVE SMOOTH",
"20 11 OFFCURVE",
"68 -10 OFFCURVE",
"109 -10 CURVE SMOOTH",
"140 -10 OFFCURVE",
"168 1 OFFCURVE",
"184 34 CURVE SMOOTH",
"285 250 OFFCURVE",
"323 335 OFFCURVE",
"368 431 CURVE SMOOTH",
"390 479 OFFCURVE",
"396 501 OFFCURVE",
"405 501 CURVE SMOOTH",
"412 501 OFFCURVE",
"415 486 OFFCURVE",
"420 424 CURVE SMOOTH",
"427 341 OFFCURVE",
"433 262 OFFCURVE",
"456 31 CURVE SMOOTH",
"459 3 OFFCURVE",
"492 -11 OFFCURVE",
"526 -11 CURVE SMOOTH"
);
},
{
closed = 1;
nodes = (
"625 157 OFFCURVE",
"643 190 OFFCURVE",
"643 236 CURVE SMOOTH",
"643 271 OFFCURVE",
"621 287 OFFCURVE",
"583 287 CURVE SMOOTH",
"218 291 LINE SMOOTH",
"166 292 OFFCURVE",
"130 254 OFFCURVE",
"130 211 CURVE SMOOTH",
"130 182 OFFCURVE",
"149 161 OFFCURVE",
"186 161 CURVE SMOOTH",
"598 157 LINE SMOOTH"
);
}
);
width = 697;
}
);
leftKerningGroup = A;
note = A;
rightKerningGroup = A;
unicode = 0041;
},
{
color = 9;
glyphname = Aringacute;
lastChange = "2018-04-29 14:35:04 +0000";
layers = (
{
components = (
{
name = Aring;
}
);
layerId = "0B1DFD06-3317-40CA-B510-4969A0718C16";
paths = (
{
closed = 1;
nodes = (
"336 945 OFFCURVE",
"341 947 OFFCURVE",
"350 956 CURVE SMOOTH",
"399 1010 LINE SMOOTH",
"407 1018 OFFCURVE",
"411 1025 OFFCURVE",
"411 1033 CURVE SMOOTH",
"411 1042 OFFCURVE",
"406 1046 OFFCURVE",
"399 1046 CURVE SMOOTH",
"392 1046 OFFCURVE",
"385 1041 OFFCURVE",
"374 1028 CURVE SMOOTH",
"331 975 LINE SMOOTH",
"324 967 OFFCURVE",
"322 960 OFFCURVE",
"322 955 CURVE SMOOTH",
"322 948 OFFCURVE",
"326 945 OFFCURVE",
"331 945 CURVE SMOOTH"
);
}
);
width = 631;
},
{
components = (
{
name = Aring;
}
);
layerId = "2F8C22CF-EC86-44F4-AF1A-A6C7F26A0C3C";
paths = (
{
closed = 1;
nodes = (
"376 1037 OFFCURVE",
"390 1044 OFFCURVE",
"407 1061 CURVE SMOOTH",
"452 1107 LINE SMOOTH",
"462 1118 OFFCURVE",
"475 1135 OFFCURVE",
"475 1157 CURVE SMOOTH",
"475 1187 OFFCURVE",
"453 1210 OFFCURVE",
"423 1210 CURVE SMOOTH",
"403 1210 OFFCURVE",
"386 1200 OFFCURVE",
"367 1178 CURVE SMOOTH",
"329 1133 LINE SMOOTH",
"318 1120 OFFCURVE",
"310 1102 OFFCURVE",
"310 1087 CURVE SMOOTH",
"310 1059 OFFCURVE",
"331 1037 OFFCURVE",
"359 1037 CURVE SMOOTH"
);
}
);
width = 697;
},
{
components = (
{
name = Aring;
}
);
layerId = "17B9D149-A542-49FB-8130-D430586D7342";
paths = (
{
closed = 1;
nodes = (
"352 982 OFFCURVE",
"361 986 OFFCURVE",
"373 998 CURVE SMOOTH",
"420 1049 LINE SMOOTH",
"429 1058 OFFCURVE",
"437 1069 OFFCURVE",
"437 1083 CURVE SMOOTH",
"437 1100 OFFCURVE",
"425 1112 OFFCURVE",
"409 1112 CURVE SMOOTH",
"396 1112 OFFCURVE",
"385 1105 OFFCURVE",
"371 1088 CURVE SMOOTH",
"330 1038 LINE SMOOTH",
"322 1028 OFFCURVE",
"317 1017 OFFCURVE",
"317 1008 CURVE SMOOTH",
"317 992 OFFCURVE",
"328 982 OFFCURVE",
"342 982 CURVE SMOOTH"
);
}
);
width = 692;
},
{
components = (
{
name = Aring;
}
);
layerId = "2214C8E2-2079-4DC2-8649-1937C1DD8804";
paths = (
{
closed = 1;
nodes = (
"447 945 OFFCURVE",
"453 946 OFFCURVE",
"463 956 CURVE SMOOTH",
"522 1010 LINE SMOOTH",
"531 1018 OFFCURVE",
"536 1025 OFFCURVE",
"538 1033 CURVE SMOOTH",
"540 1042 OFFCURVE",
"535 1046 OFFCURVE",
"528 1046 CURVE SMOOTH",
"521 1046 OFFCURVE",
"513 1041 OFFCURVE",
"500 1028 CURVE SMOOTH",
"447 975 LINE SMOOTH",
"439 967 OFFCURVE",
"436 960 OFFCURVE",
"435 955 CURVE SMOOTH",
"434 948 OFFCURVE",
"437 945 OFFCURVE",
"442 945 CURVE SMOOTH"
);
}
);
width = 631;
},
{
components = (
{
name = Aring;
}
);
layerId = "AEE50E4E-1B30-4E16-A434-AC23B12A4294";
paths = (
{
closed = 1;
nodes = (
"491 982 OFFCURVE",
"500 986 OFFCURVE",
"514 998 CURVE SMOOTH",
"570 1049 LINE SMOOTH",
"581 1059 OFFCURVE",
"591 1069 OFFCURVE",
"593 1083 CURVE SMOOTH",
"595 1100 OFFCURVE",
"586 1112 OFFCURVE",
"570 1112 CURVE SMOOTH",
"557 1112 OFFCURVE",
"545 1105 OFFCURVE",
"528 1088 CURVE SMOOTH",
"478 1038 LINE SMOOTH",
"468 1028 OFFCURVE",
"462 1017 OFFCURVE",
"460 1008 CURVE SMOOTH",
"456 992 OFFCURVE",
"467 982 OFFCURVE",
"481 982 CURVE SMOOTH"
);
}
);
width = 692;
},
{
components = (
{
name = Aring;
}
);
layerId = "F86CB789-B416-49E2-AD1B-BE88A4A88FF7";
paths = (
{
closed = 1;
nodes = (
"507 1037 OFFCURVE",
"522 1044 OFFCURVE",
"542 1061 CURVE SMOOTH",
"595 1107 LINE SMOOTH",
"607 1118 OFFCURVE",
"623 1135 OFFCURVE",
"627 1157 CURVE SMOOTH",
"632 1187 OFFCURVE",
"614 1210 OFFCURVE",
"584 1210 CURVE SMOOTH",
"564 1210 OFFCURVE",
"546 1200 OFFCURVE",
"523 1178 CURVE SMOOTH",
"477 1133 LINE SMOOTH",
"463 1120 OFFCURVE",
"452 1102 OFFCURVE",
"450 1087 CURVE SMOOTH",
"446 1059 OFFCURVE",
"462 1037 OFFCURVE",
"490 1037 CURVE SMOOTH"
);
}
);
width = 697;
}
);
leftKerningGroup = A;
leftMetricsKey = A;
note = Aringacute;
rightKerningGroup = A;
unicode = 01FA;
},
{
color = 9;
glyphname = AE;
lastChange = "2018-03-29 18:43:48 +0000";
layers = (
{
anchors = (
{
name = bottom;
position = "{447, 0}";
},
{
name = top;
position = "{614, 700}";
}
);
layerId = "0B1DFD06-3317-40CA-B510-4969A0718C16";
paths = (
{
closed = 1;
nodes = (
"83 1 OFFCURVE",
"86 2 OFFCURVE",
"92 15 CURVE SMOOTH",
"151 132 OFFCURVE",
"390 665 OFFCURVE",
"477 661 CURVE",
"467 690 LINE",
"372 690 OFFCURVE",
"154 217 OFFCURVE",
"61 18 CURVE SMOOTH",
"57 10 OFFCURVE",
"67 1 OFFCURVE",
"79 1 CURVE SMOOTH"
);
},
{
closed = 1;
nodes = (
"494 189 OFFCURVE",
"499 197 OFFCURVE",
"499 204 CURVE SMOOTH",
"499 212 OFFCURVE",
"494 217 OFFCURVE",
"486 217 CURVE SMOOTH",
"186 221 LINE SMOOTH",
"172 221 OFFCURVE",
"164 213 OFFCURVE",
"164 203 CURVE SMOOTH",
"164 197 OFFCURVE",
"168 191 OFFCURVE",
"175 191 CURVE SMOOTH",
"484 189 LINE SMOOTH"
);
},
{
closed = 1;
nodes = (
"785 -6 OFFCURVE",
"832 -4 OFFCURVE",
"852 2 CURVE SMOOTH",
"865 6 OFFCURVE",
"871 12 OFFCURVE",
"871 18 CURVE SMOOTH",
"871 27 OFFCURVE",
"860 34 OFFCURVE",
"846 32 CURVE SMOOTH",
"790 24 OFFCURVE",
"765 21 OFFCURVE",
"719 21 CURVE SMOOTH",
"645 21 OFFCURVE",
"576 29 OFFCURVE",
"492 35 CURVE",
"508 284 OFFCURVE",
"515 365 OFFCURVE",
"515 507 CURVE SMOOTH",
"515 560 OFFCURVE",
"514 610 OFFCURVE",
"511 661 CURVE",
"551 664 OFFCURVE",
"600 664 OFFCURVE",
"646 664 CURVE SMOOTH",
"736 664 OFFCURVE",
"859 657 OFFCURVE",
"863 657 CURVE SMOOTH",
"866 657 OFFCURVE",
"877 661 OFFCURVE",
"877 674 CURVE SMOOTH",
"877 682 OFFCURVE",
"873 687 OFFCURVE",
"867 687 CURVE SMOOTH",
"864 687 OFFCURVE",
"726 696 OFFCURVE",
"672 696 CURVE SMOOTH",
"641 696 OFFCURVE",
"530 693 OFFCURVE",
"477 691 CURVE SMOOTH",
"464 691 OFFCURVE",
"455 688 OFFCURVE",
"455 676 CURVE SMOOTH",
"455 664 OFFCURVE",
"463 661 OFFCURVE",
"477 661 CURVE",
"480 624 OFFCURVE",
"482 569 OFFCURVE",
"482 512 CURVE SMOOTH",
"482 384 OFFCURVE",
"472 149 OFFCURVE",
"458 35 CURVE",
"430 35 OFFCURVE",
"423 34 OFFCURVE",
"423 16 CURVE SMOOTH",
"423 4 OFFCURVE",
"426 3 OFFCURVE",
"471 3 CURVE SMOOTH",
"604 3 OFFCURVE",
"656 -6 OFFCURVE",
"744 -6 CURVE SMOOTH"
);
},
{
closed = 1;
nodes = (
"778 349 OFFCURVE",
"791 350 OFFCURVE",
"791 363 CURVE SMOOTH",
"791 372 OFFCURVE",
"785 379 OFFCURVE",
"778 379 CURVE SMOOTH",
"762 380 OFFCURVE",
"714 381 OFFCURVE",
"663 382 CURVE SMOOTH",
"650 382 OFFCURVE",
"493 386 OFFCURVE",
"489 386 CURVE",
"488 354 LINE",
"494 354 OFFCURVE",
"497 355 OFFCURVE",
"579 355 CURVE SMOOTH",
"599 355 OFFCURVE",
"736 349 OFFCURVE",
"766 349 CURVE SMOOTH"
);
}
);
width = 917;
},
{
anchors = (
{
name = bottom;
position = "{437, 0}";
},
{
name = top;
position = "{604, 696}";
}
);
layerId = "2F8C22CF-EC86-44F4-AF1A-A6C7F26A0C3C";
paths = (
{
closed = 1;
nodes = (
"196 0 OFFCURVE",
"206 19 OFFCURVE",
"211 29 CURVE SMOOTH",
"238 84 OFFCURVE",
"465 556 OFFCURVE",
"501 541 CURVE",
"444 690 LINE",
"348 690 OFFCURVE",
"145 249 OFFCURVE",
"62 67 CURVE SMOOTH",
"49 38 OFFCURVE",
"119 0 OFFCURVE",
"164 0 CURVE SMOOTH"
);
},
{
closed = 1;
nodes = (
"511 189 OFFCURVE",
"526 213 OFFCURVE",
"526 240 CURVE SMOOTH",
"526 267 OFFCURVE",
"511 288 OFFCURVE",
"503 288 CURVE SMOOTH",
"203 292 LINE SMOOTH",
"192 292 OFFCURVE",
"170 275 OFFCURVE",
"170 242 CURVE SMOOTH",
"170 215 OFFCURVE",
"185 191 OFFCURVE",
"192 191 CURVE SMOOTH",
"501 189 LINE SMOOTH"
);
},
{
closed = 1;
nodes = (
"748 -6 OFFCURVE",
"769 -6 OFFCURVE",
"789 0 CURVE SMOOTH",
"802 4 OFFCURVE",
"834 19 OFFCURVE",
"834 68 CURVE SMOOTH",
"834 119 OFFCURVE",
"796 130 OFFCURVE",
"782 128 CURVE SMOOTH",
"726 120 OFFCURVE",
"728 121 OFFCURVE",
"682 121 CURVE SMOOTH",
"665 121 OFFCURVE",
"627 119 OFFCURVE",
"583 125 CURVE",
"592 211 OFFCURVE",
"596 234 OFFCURVE",
"596 376 CURVE SMOOTH",
"596 429 OFFCURVE",
"595 520 OFFCURVE",
"592 571 CURVE",
"632 574 OFFCURVE",
"651 574 OFFCURVE",
"697 574 CURVE SMOOTH",
"728 574 OFFCURVE",
"761 573 OFFCURVE",
"789 571 CURVE SMOOTH",
"813 569 OFFCURVE",
"840 574 OFFCURVE",
"840 635 CURVE SMOOTH",
"840 670 OFFCURVE",
"828 685 OFFCURVE",
"802 687 CURVE SMOOTH",
"767 690 OFFCURVE",
"689 696 OFFCURVE",
"635 696 CURVE SMOOTH",
"604 696 OFFCURVE",
"493 691 OFFCURVE",
"440 691 CURVE SMOOTH",
"427 691 OFFCURVE",
"418 672 OFFCURVE",
"418 637 CURVE SMOOTH",
"418 587 OFFCURVE",
"431 574 OFFCURVE",
"445 574 CURVE",
"448 537 OFFCURVE",
"445 569 OFFCURVE",
"445 512 CURVE SMOOTH",
"445 384 OFFCURVE",
"445 229 OFFCURVE",
"431 115 CURVE",
"403 115 OFFCURVE",
"383 96 OFFCURVE",
"383 53 CURVE SMOOTH",
"383 17 OFFCURVE",
"403 -6 OFFCURVE",
"448 -6 CURVE SMOOTH",
"553 -6 OFFCURVE",
"638 -6 OFFCURVE",
"707 -6 CURVE SMOOTH"
);
},
{
closed = 1;
nodes = (
"761 309 OFFCURVE",
"771 329 OFFCURVE",
"771 359 CURVE SMOOTH",
"771 384 OFFCURVE",
"764 402 OFFCURVE",
"746 404 CURVE SMOOTH",
"735 405 OFFCURVE",
"696 406 OFFCURVE",
"641 407 CURVE SMOOTH",
"568 408 OFFCURVE",
"508 411 OFFCURVE",
"466 411 CURVE",
"465 310 LINE",
"495 310 OFFCURVE",
"559 311 OFFCURVE",
"646 311 CURVE SMOOTH",
"662 311 OFFCURVE",
"705 309 OFFCURVE",
"718 309 CURVE SMOOTH"
);
}
);
width = 880;
},
{
anchors = (
{
name = bottom;
position = "{456, 0}";
},
{
name = top;
position = "{623, 698}";
}
);
layerId = "17B9D149-A542-49FB-8130-D430586D7342";
paths = (
{
closed = 1;
nodes = (
"142 1 OFFCURVE",
"147 9 OFFCURVE",
"153 21 CURVE SMOOTH",
"199 113 OFFCURVE",
"433 621 OFFCURVE",
"500 613 CURVE",
"471 690 LINE",
"376 690 OFFCURVE",
"164 230 OFFCURVE",
"75 38 CURVE SMOOTH",
"67 21 OFFCURVE",
"101 1 OFFCURVE",
"126 1 CURVE SMOOTH"
);
},
{
closed = 1;
nodes = (
"514 189 OFFCURVE",
"523 203 OFFCURVE",
"523 218 CURVE SMOOTH",
"523 234 OFFCURVE",
"514 245 OFFCURVE",
"506 245 CURVE SMOOTH",
"206 249 LINE SMOOTH",
"193 249 OFFCURVE",
"180 238 OFFCURVE",
"180 219 CURVE SMOOTH",
"180 204 OFFCURVE",
"188 191 OFFCURVE",
"195 191 CURVE SMOOTH",
"504 189 LINE SMOOTH"
);
},
{
closed = 1;
nodes = (
"784 -6 OFFCURVE",
"820 -5 OFFCURVE",
"840 1 CURVE SMOOTH",
"853 5 OFFCURVE",
"870 15 OFFCURVE",
"870 38 CURVE SMOOTH",
"870 64 OFFCURVE",
"848 72 OFFCURVE",
"834 70 CURVE SMOOTH",
"778 62 OFFCURVE",
"764 61 OFFCURVE",
"718 61 CURVE SMOOTH",
"666 61 OFFCURVE",
"610 65 OFFCURVE",
"542 71 CURVE",
"555 255 OFFCURVE",
"561 313 OFFCURVE",
"561 455 CURVE SMOOTH",
"561 508 OFFCURVE",
"560 574 OFFCURVE",
"557 625 CURVE",
"597 628 OFFCURVE",
"634 628 OFFCURVE",
"680 628 CURVE SMOOTH",
"746 628 OFFCURVE",
"833 623 OFFCURVE",
"847 623 CURVE SMOOTH",
"858 622 OFFCURVE",
"876 626 OFFCURVE",
"876 658 CURVE SMOOTH",
"876 677 OFFCURVE",
"868 686 OFFCURVE",
"854 687 CURVE SMOOTH",
"839 688 OFFCURVE",
"725 696 OFFCURVE",
"671 696 CURVE SMOOTH",
"640 696 OFFCURVE",
"529 692 OFFCURVE",
"476 691 CURVE SMOOTH",
"463 691 OFFCURVE",
"454 682 OFFCURVE",
"454 660 CURVE SMOOTH",
"454 633 OFFCURVE",
"464 626 OFFCURVE",
"478 626 CURVE",
"481 589 OFFCURVE",
"481 569 OFFCURVE",
"481 512 CURVE SMOOTH",
"481 384 OFFCURVE",
"475 181 OFFCURVE",
"461 67 CURVE",
"433 67 OFFCURVE",
"420 59 OFFCURVE",
"420 31 CURVE SMOOTH",
"420 9 OFFCURVE",
"430 -1 OFFCURVE",
"475 -1 CURVE SMOOTH",
"597 -1 OFFCURVE",
"662 -6 OFFCURVE",
"743 -6 CURVE SMOOTH"
);
},
{
closed = 1;
nodes = (
"785 333 OFFCURVE",
"796 342 OFFCURVE",
"796 361 CURVE SMOOTH",
"796 377 OFFCURVE",
"790 388 OFFCURVE",
"779 389 CURVE SMOOTH",
"765 390 OFFCURVE",
"720 391 OFFCURVE",
"668 392 CURVE SMOOTH",
"631 392 OFFCURVE",
"512 396 OFFCURVE",
"493 396 CURVE",
"492 336 LINE",
"508 336 OFFCURVE",
"535 337 OFFCURVE",
"619 337 CURVE SMOOTH",
"638 337 OFFCURVE",
"737 333 OFFCURVE",
"760 333 CURVE SMOOTH"
);
}
);
width = 914;
},
{
anchors = (
{
name = bottom;
position = "{405, 0}";
},
{
name = top;
position = "{695, 700}";
}
);
layerId = "2214C8E2-2079-4DC2-8649-1937C1DD8804";
paths = (
{
closed = 1;
nodes = (
"41 1 OFFCURVE",
"44 2 OFFCURVE",
"53 15 CURVE SMOOTH",
"132 132 OFFCURVE",
"465 665 OFFCURVE",
"552 661 CURVE",
"547 690 LINE",
"452 690 OFFCURVE",
"150 217 OFFCURVE",
"22 18 CURVE SMOOTH",
"17 10 OFFCURVE",
"25 1 OFFCURVE",
"37 1 CURVE SMOOTH"
);
},
{
closed = 1;
nodes = (
"485 189 OFFCURVE",
"492 197 OFFCURVE",
"493 204 CURVE SMOOTH",
"494 212 OFFCURVE",
"490 217 OFFCURVE",
"482 217 CURVE SMOOTH",
"183 221 LINE SMOOTH",
"169 221 OFFCURVE",
"160 213 OFFCURVE",
"158 203 CURVE SMOOTH",
"157 197 OFFCURVE",
"160 191 OFFCURVE",
"167 191 CURVE SMOOTH",
"475 189 LINE SMOOTH"
);
},
{
closed = 1;
nodes = (
"742 -6 OFFCURVE",
"789 -4 OFFCURVE",
"810 2 CURVE SMOOTH",
"824 6 OFFCURVE",
"831 12 OFFCURVE",
"832 18 CURVE SMOOTH",
"834 27 OFFCURVE",
"824 34 OFFCURVE",
"810 32 CURVE SMOOTH",
"752 24 OFFCURVE",
"727 21 OFFCURVE",
"681 21 CURVE SMOOTH",
"607 21 OFFCURVE",
"539 29 OFFCURVE",
"456 35 CURVE",
"516 284 OFFCURVE",
"537 365 OFFCURVE",
"562 507 CURVE SMOOTH",
"572 560 OFFCURVE",
"580 610 OFFCURVE",
"586 661 CURVE",
"626 664 OFFCURVE",
"675 664 OFFCURVE",
"721 664 CURVE SMOOTH",
"811 664 OFFCURVE",
"933 657 OFFCURVE",
"937 657 CURVE SMOOTH",
"940 657 OFFCURVE",
"952 661 OFFCURVE",
"954 674 CURVE SMOOTH",
"955 682 OFFCURVE",
"952 687 OFFCURVE",
"946 687 CURVE SMOOTH",
"943 687 OFFCURVE",
"807 696 OFFCURVE",
"753 696 CURVE SMOOTH",
"722 696 OFFCURVE",
"610 693 OFFCURVE",
"557 691 CURVE SMOOTH",
"544 691 OFFCURVE",
"534 688 OFFCURVE",
"532 676 CURVE SMOOTH",
"530 664 OFFCURVE",
"538 661 OFFCURVE",
"552 661 CURVE",
"548 624 OFFCURVE",
"540 569 OFFCURVE",
"530 512 CURVE SMOOTH",
"508 384 OFFCURVE",
"456 149 OFFCURVE",
"422 35 CURVE",
"394 35 OFFCURVE",
"387 34 OFFCURVE",
"384 16 CURVE SMOOTH",
"382 4 OFFCURVE",
"385 3 OFFCURVE",
"430 3 CURVE SMOOTH",
"563 3 OFFCURVE",
"613 -6 OFFCURVE",
"701 -6 CURVE SMOOTH"
);
},
{
closed = 1;
nodes = (
"798 349 OFFCURVE",
"811 350 OFFCURVE",
"813 363 CURVE SMOOTH",
"815 372 OFFCURVE",
"810 379 OFFCURVE",
"803 379 CURVE SMOOTH",
"787 380 OFFCURVE",
"739 381 OFFCURVE",
"688 382 CURVE SMOOTH",
"675 382 OFFCURVE",
"519 386 OFFCURVE",
"515 386 CURVE",
"508 354 LINE",
"514 354 OFFCURVE",
"518 355 OFFCURVE",
"600 355 CURVE SMOOTH",
"620 355 OFFCURVE",
"756 349 OFFCURVE",
"786 349 CURVE SMOOTH"
);
}
);
width = 918;
},
{
anchors = (
{
name = bottom;
position = "{414, 0}";
},
{
name = top;
position = "{704, 698}";
}
);
layerId = "AEE50E4E-1B30-4E16-A434-AC23B12A4294";
paths = (
{
closed = 1;
nodes = (
"100 1 OFFCURVE",
"107 9 OFFCURVE",
"115 21 CURVE SMOOTH",
"177 113 OFFCURVE",
"500 621 OFFCURVE",
"566 613 CURVE",
"551 690 LINE",
"456 690 OFFCURVE",
"163 230 OFFCURVE",
"40 38 CURVE SMOOTH",
"29 21 OFFCURVE",
"59 1 OFFCURVE",
"84 1 CURVE SMOOTH"
);
},
{
closed = 1;
nodes = (
"505 189 OFFCURVE",
"517 203 OFFCURVE",
"519 218 CURVE SMOOTH",
"522 234 OFFCURVE",
"515 245 OFFCURVE",
"507 245 CURVE SMOOTH",
"208 249 LINE SMOOTH",
"195 249 OFFCURVE",
"180 238 OFFCURVE",
"177 219 CURVE SMOOTH",
"174 204 OFFCURVE",
"180 191 OFFCURVE",
"187 191 CURVE SMOOTH",
"495 189 LINE SMOOTH"
);
},
{
closed = 1;
nodes = (
"741 -6 OFFCURVE",
"777 -5 OFFCURVE",
"798 1 CURVE SMOOTH",
"812 5 OFFCURVE",
"831 15 OFFCURVE",
"835 38 CURVE SMOOTH",
"839 64 OFFCURVE",
"819 72 OFFCURVE",
"804 70 CURVE SMOOTH",
"747 62 OFFCURVE",
"733 61 OFFCURVE",
"687 61 CURVE SMOOTH",
"635 61 OFFCURVE",
"579 65 OFFCURVE",
"513 71 CURVE",
"558 255 OFFCURVE",
"574 313 OFFCURVE",
"599 455 CURVE SMOOTH",
"609 508 OFFCURVE",
"619 574 OFFCURVE",
"625 625 CURVE",
"666 628 OFFCURVE",
"703 628 OFFCURVE",
"749 628 CURVE SMOOTH",
"815 628 OFFCURVE",
"901 623 OFFCURVE",
"915 623 CURVE SMOOTH",
"926 622 OFFCURVE",
"944 626 OFFCURVE",
"950 658 CURVE SMOOTH",
"953 677 OFFCURVE",
"947 686 OFFCURVE",
"933 687 CURVE SMOOTH",
"918 688 OFFCURVE",
"806 696 OFFCURVE",
"752 696 CURVE SMOOTH",
"721 696 OFFCURVE",
"609 692 OFFCURVE",
"556 691 CURVE SMOOTH",
"543 691 OFFCURVE",
"532 682 OFFCURVE",
"528 660 CURVE SMOOTH",
"524 633 OFFCURVE",
"532 626 OFFCURVE",
"546 626 CURVE",
"543 589 OFFCURVE",
"539 569 OFFCURVE",
"529 512 CURVE SMOOTH",
"507 384 OFFCURVE",
"465 181 OFFCURVE",
"431 67 CURVE",
"403 67 OFFCURVE",
"388 59 OFFCURVE",
"383 31 CURVE SMOOTH",
"380 9 OFFCURVE",
"388 -1 OFFCURVE",
"433 -1 CURVE SMOOTH",
"555 -1 OFFCURVE",
"619 -6 OFFCURVE",
"700 -6 CURVE SMOOTH"
);
},
{
closed = 1;
nodes = (
"802 333 OFFCURVE",
"814 342 OFFCURVE",
"818 361 CURVE SMOOTH",
"820 377 OFFCURVE",
"816 388 OFFCURVE",
"806 389 CURVE SMOOTH",
"792 390 OFFCURVE",
"747 391 OFFCURVE",
"695 392 CURVE SMOOTH",
"658 392 OFFCURVE",
"540 396 OFFCURVE",
"521 396 CURVE",
"509 336 LINE",
"525 336 OFFCURVE",
"552 337 OFFCURVE",
"636 337 CURVE SMOOTH",
"655 337 OFFCURVE",
"754 333 OFFCURVE",
"777 333 CURVE SMOOTH"
);
}
);
width = 913;
},
{
anchors = (
{
name = bottom;
position = "{394, 0}";
},
{
name = top;
position = "{684, 696}";
}
);
layerId = "F86CB789-B416-49E2-AD1B-BE88A4A88FF7";
paths = (
{
closed = 1;
nodes = (
"153 0 OFFCURVE",
"166 19 OFFCURVE",
"173 29 CURVE SMOOTH",
"210 84 OFFCURVE",
"520 556 OFFCURVE",
"553 541 CURVE",
"523 690 LINE",
"427 690 OFFCURVE",
"146 249 OFFCURVE",
"31 67 CURVE SMOOTH",
"13 38 OFFCURVE",
"76 0 OFFCURVE",
"121 0 CURVE SMOOTH"
);
},
{
closed = 1;
nodes = (
"501 189 OFFCURVE",
"521 213 OFFCURVE",
"525 240 CURVE SMOOTH",
"530 267 OFFCURVE",
"519 288 OFFCURVE",
"511 288 CURVE SMOOTH",
"211 292 LINE SMOOTH",
"200 292 OFFCURVE",
"175 275 OFFCURVE",
"170 242 CURVE SMOOTH",
"165 215 OFFCURVE",
"176 191 OFFCURVE",
"183 191 CURVE SMOOTH",
"491 189 LINE SMOOTH"
);
},
{
closed = 1;
nodes = (
"704 -6 OFFCURVE",
"725 -6 OFFCURVE",
"746 0 CURVE SMOOTH",
"760 4 OFFCURVE",
"794 19 OFFCURVE",
"803 68 CURVE SMOOTH",
"812 119 OFFCURVE",
"776 130 OFFCURVE",
"762 128 CURVE SMOOTH",
"704 120 OFFCURVE",
"706 121 OFFCURVE",
"660 121 CURVE SMOOTH",
"643 121 OFFCURVE",
"605 119 OFFCURVE",
"562 125 CURVE",
"586 211 OFFCURVE",
"594 234 OFFCURVE",
"619 376 CURVE SMOOTH",
"629 429 OFFCURVE",
"644 520 OFFCURVE",
"650 571 CURVE",
"690 574 OFFCURVE",
"709 574 OFFCURVE",
"755 574 CURVE SMOOTH",
"786 574 OFFCURVE",
"819 573 OFFCURVE",
"847 571 CURVE SMOOTH",
"870 569 OFFCURVE",
"898 574 OFFCURVE",
"909 635 CURVE SMOOTH",
"915 670 OFFCURVE",
"906 685 OFFCURVE",
"880 687 CURVE SMOOTH",
"846 690 OFFCURVE",
"769 696 OFFCURVE",
"715 696 CURVE SMOOTH",
"684 696 OFFCURVE",
"572 691 OFFCURVE",
"519 691 CURVE SMOOTH",
"506 691 OFFCURVE",
"493 672 OFFCURVE",
"487 637 CURVE SMOOTH",
"479 587 OFFCURVE",
"489 574 OFFCURVE",
"503 574 CURVE",
"500 537 OFFCURVE",
"502 569 OFFCURVE",
"492 512 CURVE SMOOTH",
"470 384 OFFCURVE",
"442 229 OFFCURVE",
"408 115 CURVE",
"380 115 OFFCURVE",
"357 96 OFFCURVE",
"349 53 CURVE SMOOTH",
"343 17 OFFCURVE",
"359 -6 OFFCURVE",
"404 -6 CURVE SMOOTH",
"509 -6 OFFCURVE",
"594 -6 OFFCURVE",
"663 -6 CURVE SMOOTH"
);
},
{
closed = 1;
nodes = (
"772 309 OFFCURVE",
"786 329 OFFCURVE",
"791 359 CURVE SMOOTH",
"796 384 OFFCURVE",
"792 402 OFFCURVE",
"774 404 CURVE SMOOTH",
"763 405 OFFCURVE",
"725 406 OFFCURVE",
"670 407 CURVE SMOOTH",
"597 408 OFFCURVE",
"537 411 OFFCURVE",
"495 411 CURVE",
"477 310 LINE",
"507 310 OFFCURVE",
"571 311 OFFCURVE",
"658 311 CURVE SMOOTH",
"674 311 OFFCURVE",
"716 309 OFFCURVE",
"729 309 CURVE SMOOTH"
);
}
);
width = 879;
}
);
leftKerningGroup = A;
leftMetricsKey = A;
note = AE;
rightKerningGroup = E;
rightMetricsKey = E;
unicode = 00C6;
},
{
color = 6;
glyphname = B;
lastChange = "2018-05-07 14:39:09 +0000";
layers = (
{
anchors = (
{
name = bottom;
position = "{312, 0}";
},
{
name = top;
position = "{312, 700}";
}
);
layerId = "0B1DFD06-3317-40CA-B510-4969A0718C16";
paths = (
{
closed = 1;
nodes = (
"50 11 OFFCURVE",
"52 3 OFFCURVE",
"67 3 CURVE SMOOTH",
"94 3 LINE",
"93 -10 OFFCURVE",
"97 -16 OFFCURVE",
"107 -16 CURVE SMOOTH",
"117 -16 OFFCURVE",
"123 -11 OFFCURVE",
"125 3 CURVE",
"177 3 OFFCURVE",
"199 4 OFFCURVE",
"255 0 CURVE SMOOTH",
"405 -9 OFFCURVE",
"534 41 OFFCURVE",
"534 174 CURVE SMOOTH",
"534 263 OFFCURVE",
"474 335 OFFCURVE",
"344 355 CURVE",
"476 370 OFFCURVE",
"544 422 OFFCURVE",
"544 519 CURVE SMOOTH",
"544 649 OFFCURVE",
"424 706 OFFCURVE",
"289 706 CURVE SMOOTH",
"222 706 OFFCURVE",
"157 692 OFFCURVE",
"104 670 CURVE SMOOTH",
"80 660 OFFCURVE",
"73 655 OFFCURVE",
"73 641 CURVE SMOOTH",
"73 631 OFFCURVE",
"80 627 OFFCURVE",
"86 627 CURVE SMOOTH",
"93 627 OFFCURVE",
"100 631 OFFCURVE",
"109 635 CURVE",
"114 547 OFFCURVE",
"113 472 OFFCURVE",
"113 381 CURVE SMOOTH",
"113 257 OFFCURVE",
"108 146 OFFCURVE",
"97 32 CURVE",
"67 33 LINE SMOOTH",
"55 33 OFFCURVE",
"50 29 OFFCURVE",
"50 18 CURVE SMOOTH"
);
},
{
closed = 1;
nodes = (
"140 148 OFFCURVE",
"144 261 OFFCURVE",
"144 383 CURVE SMOOTH",
"144 473 OFFCURVE",
"144 552 OFFCURVE",
"141 653 CURVE",
"177 671 OFFCURVE",
"239 676 OFFCURVE",
"293 676 CURVE SMOOTH",
"406 676 OFFCURVE",
"513 630 OFFCURVE",
"513 517 CURVE SMOOTH",
"513 424 OFFCURVE",
"402 374 OFFCURVE",
"239 374 CURVE SMOOTH",
"222 374 OFFCURVE",
"215 369 OFFCURVE",
"215 358 CURVE SMOOTH",
"215 344 OFFCURVE",
"223 340 OFFCURVE",
"238 340 CURVE SMOOTH",
"402 340 OFFCURVE",
"503 274 OFFCURVE",
"503 174 CURVE SMOOTH",
"503 60 OFFCURVE",
"389 23 OFFCURVE",
"232 30 CURVE SMOOTH",
"185 33 OFFCURVE",
"153 32 OFFCURVE",
"127 32 CURVE"
);
}
);
width = 584;
},
{
anchors = (
{
name = bottom;
position = "{336, 0}";
},
{
name = top;
position = "{335, 700}";
}
);
background = {
paths = (
{
closed = 1;
nodes = (
"92 -16 OFFCURVE",
"97 -9 OFFCURVE",
"99 3 CURVE",
"144 3 OFFCURVE",
"181 3 OFFCURVE",
"230 0 CURVE SMOOTH",
"380 -9 OFFCURVE",
"509 41 OFFCURVE",
"509 174 CURVE SMOOTH",
"509 265 OFFCURVE",
"444 337 OFFCURVE",
"308 355 CURVE",
"435 370 OFFCURVE",
"519 420 OFFCURVE",
"519 519 CURVE SMOOTH",
"519 649 OFFCURVE",
"399 706 OFFCURVE",
"264 706 CURVE SMOOTH",
"197 706 OFFCURVE",
"132 692 OFFCURVE",
"79 670 CURVE SMOOTH",
"64 664 OFFCURVE",
"48 656 OFFCURVE",
"48 640 CURVE SMOOTH",
"48 636 OFFCURVE",
"49 626 OFFCURVE",
"57 626 CURVE SMOOTH",
"67 626 OFFCURVE",
"77 636 OFFCURVE",
"84 636 CURVE",
"88 574 OFFCURVE",
"88 502 OFFCURVE",
"88 435 CURVE SMOOTH",
"88 315 OFFCURVE",
"83 151 OFFCURVE",
"72 33 CURVE",
"42 33 LINE SMOOTH",
"30 33 OFFCURVE",
"25 29 OFFCURVE",
"25 18 CURVE SMOOTH",
"25 11 OFFCURVE",
"27 3 OFFCURVE",
"42 3 CURVE SMOOTH",
"69 3 LINE",
"69 -9 OFFCURVE",
"72 -16 OFFCURVE",
"82 -16 CURVE SMOOTH"
);
},
{
closed = 1;
nodes = (
"163 32 OFFCURVE",
"122 32 OFFCURVE",
"101 32 CURVE",
"114 146 OFFCURVE",
"119 271 OFFCURVE",
"119 417 CURVE SMOOTH",
"119 483 OFFCURVE",
"118 561 OFFCURVE",
"116 653 CURVE",
"150 669 OFFCURVE",
"200 677 OFFCURVE",
"248 677 CURVE SMOOTH",
"364 677 OFFCURVE",
"489 630 OFFCURVE",
"489 517 CURVE SMOOTH",
"489 402 OFFCURVE",
"361 373 OFFCURVE",
"214 370 CURVE SMOOTH",
"197 370 OFFCURVE",
"190 369 OFFCURVE",
"190 356 CURVE SMOOTH",
"190 342 OFFCURVE",
"198 340 OFFCURVE",
"213 340 CURVE SMOOTH",
"317 340 OFFCURVE",
"478 315 OFFCURVE",
"478 180 CURVE SMOOTH",
"478 66 OFFCURVE",
"364 23 OFFCURVE",
"207 30 CURVE SMOOTH"
);
}
);
};
layerId = "2F8C22CF-EC86-44F4-AF1A-A6C7F26A0C3C";
paths = (
{
closed = 1;
nodes = (
"60 34 OFFCURVE",
"71 4 OFFCURVE",
"103 4 CURVE SMOOTH",
"108 4 LINE",
"119 -21 OFFCURVE",
"141 -33 OFFCURVE",
"170 -33 CURVE SMOOTH",
"198 -33 OFFCURVE",
"228 -27 OFFCURVE",
"243 1 CURVE",
"284 -2 OFFCURVE",
"320 -4 OFFCURVE",
"355 -4 CURVE SMOOTH",
"497 -4 OFFCURVE",
"615 64 OFFCURVE",
"615 196 CURVE SMOOTH",
"615 257 OFFCURVE",
"583 320 OFFCURVE",
"480 347 CURVE",
"586 369 OFFCURVE",
"624 448 OFFCURVE",
"624 511 CURVE SMOOTH",
"624 636 OFFCURVE",
"504 708 OFFCURVE",
"336 708 CURVE SMOOTH",
"282 708 OFFCURVE",
"212 699 OFFCURVE",
"150 673 CURVE SMOOTH",
"102 653 OFFCURVE",
"80 631 OFFCURVE",
"80 593 CURVE SMOOTH",
"80 567 OFFCURVE",
"98 543 OFFCURVE",
"118 548 CURVE SMOOTH",
"119 548 OFFCURVE",
"121 549 OFFCURVE",
"123 549 CURVE",
"123 494 OFFCURVE",
"124 439 OFFCURVE",
"124 384 CURVE SMOOTH",
"124 288 OFFCURVE",
"121 209 OFFCURVE",
"115 133 CURVE",
"105 133 LINE SMOOTH",
"70 134 OFFCURVE",
"60 96 OFFCURVE",
"60 68 CURVE SMOOTH"
);
},
{
closed = 1;
nodes = (
"265 239 OFFCURVE",
"269 289 OFFCURVE",
"269 384 CURVE SMOOTH",
"269 462 OFFCURVE",
"269 503 OFFCURVE",
"267 580 CURVE",
"288 585 OFFCURVE",
"311 589 OFFCURVE",
"332 589 CURVE SMOOTH",
"432 589 OFFCURVE",
"480 556 OFFCURVE",
"480 499 CURVE SMOOTH",
"480 412 OFFCURVE",
"396 408 OFFCURVE",
"359 408 CURVE SMOOTH",
"317 408 OFFCURVE",
"288 396 OFFCURVE",
"288 350 CURVE SMOOTH",
"288 302 OFFCURVE",
"313 295 OFFCURVE",
"361 295 CURVE SMOOTH",
"404 295 OFFCURVE",
"471 280 OFFCURVE",
"471 207 CURVE SMOOTH",
"471 143 OFFCURVE",
"414 120 OFFCURVE",
"338 120 CURVE SMOOTH",
"307 120 OFFCURVE",
"282 121 OFFCURVE",
"256 123 CURVE"
);
}
);
width = 674;
},
{
anchors = (
{
name = bottom;
position = "{310, 0}";
},
{
name = top;
position = "{310, 700}";
}
);
layerId = "17B9D149-A542-49FB-8130-D430586D7342";
paths = (
{
closed = 1;
nodes = (
"43 21 OFFCURVE",
"49 8 OFFCURVE",
"74 6 CURVE SMOOTH",
"87 5 LINE",
"92 -14 OFFCURVE",
"106 -23 OFFCURVE",
"127 -23 CURVE SMOOTH",
"143 -23 OFFCURVE",
"156 -18 OFFCURVE",
"162 2 CURVE",
"261 -1 OFFCURVE",
"162 3 OFFCURVE",
"284 -2 CURVE SMOOTH",
"426 -8 OFFCURVE",
"555 55 OFFCURVE",
"555 186 CURVE SMOOTH",
"555 262 OFFCURVE",
"492 335 OFFCURVE",
"384 353 CURVE",
"490 368 OFFCURVE",
"565 431 OFFCURVE",
"565 514 CURVE SMOOTH",
"565 637 OFFCURVE",
"445 707 OFFCURVE",
"297 707 CURVE SMOOTH",
"235 707 OFFCURVE",
"168 695 OFFCURVE",
"111 671 CURVE SMOOTH",
"78 657 OFFCURVE",
"64 645 OFFCURVE",
"64 623 CURVE SMOOTH",
"64 602 OFFCURVE",
"78 594 OFFCURVE",
"93 596 CURVE SMOOTH",
"97 597 OFFCURVE",
"100 598 OFFCURVE",
"104 599 CURVE",
"106 519 OFFCURVE",
"106 452 OFFCURVE",
"106 382 CURVE SMOOTH",
"106 270 OFFCURVE",
"102 172 OFFCURVE",
"92 73 CURVE",
"78 73 LINE SMOOTH",
"53 74 OFFCURVE",
"43 57 OFFCURVE",
"43 37 CURVE SMOOTH"
);
},
{
closed = 1;
nodes = (
"179 186 OFFCURVE",
"183 273 OFFCURVE",
"183 383 CURVE SMOOTH",
"183 469 OFFCURVE",
"183 532 OFFCURVE",
"181 625 CURVE",
"215 635 OFFCURVE",
"265 640 OFFCURVE",
"297 640 CURVE SMOOTH",
"411 640 OFFCURVE",
"488 599 OFFCURVE",
"488 514 CURVE SMOOTH",
"488 404 OFFCURVE",
"348 396 OFFCURVE",
"256 391 CURVE SMOOTH",
"237 390 OFFCURVE",
"211 387 OFFCURVE",
"211 355 CURVE SMOOTH",
"211 323 OFFCURVE",
"237 321 OFFCURVE",
"258 320 CURVE SMOOTH",
"383 314 OFFCURVE",
"479 286 OFFCURVE",
"479 186 CURVE SMOOTH",
"479 96 OFFCURVE",
"401 64 OFFCURVE",
"263 67 CURVE SMOOTH",
"231 68 OFFCURVE",
"199 68 OFFCURVE",
"167 69 CURVE"
);
}
);
width = 621;
},
{
anchors = (
{
name = bottom;
position = "{270, 0}";
},
{
name = top;
position = "{393, 700}";
}
);
layerId = "2214C8E2-2079-4DC2-8649-1937C1DD8804";
paths = (
{
closed = 1;
nodes = (
"74 -15 OFFCURVE",
"78 -11 OFFCURVE",
"82 3 CURVE",
"131 2 OFFCURVE",
"175 -1 OFFCURVE",
"244 -1 CURVE SMOOTH",
"391 -1 OFFCURVE",
"524 64 OFFCURVE",
"524 194 CURVE SMOOTH",
"524 273 OFFCURVE",
"476 336 OFFCURVE",
"361 355 CURVE",
"500 371 OFFCURVE",
"593 432 OFFCURVE",
"593 542 CURVE SMOOTH",
"593 660 OFFCURVE",
"484 706 OFFCURVE",
"361 706 CURVE SMOOTH",
"294 706 OFFCURVE",
"235 692 OFFCURVE",
"178 670 CURVE SMOOTH",
"155 661 OFFCURVE",
"142 655 OFFCURVE",
"142 640 CURVE SMOOTH",
"142 629 OFFCURVE",
"148 627 OFFCURVE",
"153 627 CURVE SMOOTH",
"159 627 OFFCURVE",
"169 631 OFFCURVE",
"177 635 CURVE",
"173 599 OFFCURVE",
"162 527 OFFCURVE",
"136 381 CURVE SMOOTH",
"112 248 OFFCURVE",
"92 152 OFFCURVE",
"58 32 CURVE",
"29 33 LINE SMOOTH",
"16 33 OFFCURVE",
"9 27 OFFCURVE",
"9 15 CURVE SMOOTH",
"9 9 OFFCURVE",
"11 3 OFFCURVE",
"24 3 CURVE SMOOTH",
"50 3 LINE",
"48 -6 OFFCURVE",
"48 -15 OFFCURVE",
"64 -15 CURVE SMOOTH"
);
},
{
closed = 1;
nodes = (
"171 29 OFFCURVE",
"133 31 OFFCURVE",
"88 32 CURVE",
"121 142 OFFCURVE",
"146 260 OFFCURVE",
"168 383 CURVE SMOOTH",
"188 494 OFFCURVE",
"206 611 OFFCURVE",
"213 653 CURVE",
"250 670 OFFCURVE",
"314 676 OFFCURVE",
"361 676 CURVE SMOOTH",
"472 676 OFFCURVE",
"561 641 OFFCURVE",
"561 542 CURVE SMOOTH",
"561 407 OFFCURVE",
"395 374 OFFCURVE",
"255 374 CURVE SMOOTH",
"244 374 OFFCURVE",
"234 369 OFFCURVE",
"234 354 CURVE SMOOTH",
"234 342 OFFCURVE",
"240 341 OFFCURVE",
"254 340 CURVE SMOOTH",
"326 335 OFFCURVE",
"492 329 OFFCURVE",
"492 194 CURVE SMOOTH",
"492 79 OFFCURVE",
"373 29 OFFCURVE",
"229 29 CURVE SMOOTH"
);
}
);
width = 584;
},
{
anchors = (
{
name = bottom;
position = "{268, 0}";
},
{
name = top;
position = "{391, 700}";
}
);
layerId = "AEE50E4E-1B30-4E16-A434-AC23B12A4294";
paths = (
{
closed = 1;
nodes = (
"98 -23 OFFCURVE",
"112 -18 OFFCURVE",
"121 2 CURVE",
"220 -1 OFFCURVE",
"121 3 OFFCURVE",
"242 -2 CURVE SMOOTH",
"399 -8 OFFCURVE",
"549 64 OFFCURVE",
"549 210 CURVE SMOOTH",
"549 271 OFFCURVE",
"503 333 OFFCURVE",
"415 352 CURVE",
"527 369 OFFCURVE",
"617 430 OFFCURVE",
"617 536 CURVE SMOOTH",
"617 640 OFFCURVE",
"516 707 OFFCURVE",
"380 707 CURVE SMOOTH",
"318 707 OFFCURVE",
"249 695 OFFCURVE",
"188 671 CURVE SMOOTH",
"150 656 OFFCURVE",
"132 643 OFFCURVE",
"132 616 CURVE SMOOTH",
"132 602 OFFCURVE",
"141 596 OFFCURVE",
"152 596 CURVE SMOOTH",
"157 596 OFFCURVE",
"163 597 OFFCURVE",
"168 599 CURVE",
"156 519 OFFCURVE",
"145 452 OFFCURVE",
"132 382 CURVE SMOOTH",
"112 270 OFFCURVE",
"90 172 OFFCURVE",
"64 73 CURVE",
"50 73 LINE SMOOTH",
"22 74 OFFCURVE",
"7 52 OFFCURVE",
"7 29 CURVE SMOOTH",
"7 17 OFFCURVE",
"14 8 OFFCURVE",
"34 6 CURVE SMOOTH",
"47 5 LINE",
"49 -13 OFFCURVE",
"61 -23 OFFCURVE",
"82 -23 CURVE SMOOTH"
);
},
{
closed = 1;
nodes = (
"212 67 OFFCURVE",
"197 68 OFFCURVE",
"138 69 CURVE",
"171 186 OFFCURVE",
"190 273 OFFCURVE",
"209 383 CURVE SMOOTH",
"224 469 OFFCURVE",
"235 532 OFFCURVE",
"249 625 CURVE",
"286 635 OFFCURVE",
"337 640 OFFCURVE",
"369 640 CURVE SMOOTH",
"473 640 OFFCURVE",
"539 606 OFFCURVE",
"539 536 CURVE SMOOTH",
"539 412 OFFCURVE",
"398 397 OFFCURVE",
"284 391 CURVE SMOOTH",
"257 390 OFFCURVE",
"231 381 OFFCURVE",
"231 346 CURVE SMOOTH",
"231 323 OFFCURVE",
"254 321 OFFCURVE",
"273 320 CURVE SMOOTH",
"386 315 OFFCURVE",
"472 291 OFFCURVE",
"472 210 CURVE SMOOTH",
"472 104 OFFCURVE",
"381 67 OFFCURVE",
"255 67 CURVE SMOOTH"
);
}
);
width = 621;
},
{
anchors = (
{
name = bottom;
position = "{294, 0}";
},
{
name = top;
position = "{417, 700}";
}
);
background = {
paths = (
{
closed = 1;
nodes = (
"92 -16 OFFCURVE",
"97 -9 OFFCURVE",
"99 3 CURVE",
"144 3 OFFCURVE",
"181 3 OFFCURVE",
"230 0 CURVE SMOOTH",
"380 -9 OFFCURVE",
"509 41 OFFCURVE",
"509 174 CURVE SMOOTH",
"509 265 OFFCURVE",
"444 337 OFFCURVE",
"308 355 CURVE",
"435 370 OFFCURVE",
"519 420 OFFCURVE",
"519 519 CURVE SMOOTH",
"519 649 OFFCURVE",
"399 706 OFFCURVE",
"264 706 CURVE SMOOTH",
"197 706 OFFCURVE",
"132 692 OFFCURVE",
"79 670 CURVE SMOOTH",
"64 664 OFFCURVE",
"48 656 OFFCURVE",
"48 640 CURVE SMOOTH",
"48 636 OFFCURVE",
"49 626 OFFCURVE",
"57 626 CURVE SMOOTH",
"67 626 OFFCURVE",
"77 636 OFFCURVE",
"84 636 CURVE",
"88 574 OFFCURVE",
"88 502 OFFCURVE",
"88 435 CURVE SMOOTH",
"88 315 OFFCURVE",
"83 151 OFFCURVE",
"72 33 CURVE",
"42 33 LINE SMOOTH",
"30 33 OFFCURVE",
"25 29 OFFCURVE",
"25 18 CURVE SMOOTH",
"25 11 OFFCURVE",
"27 3 OFFCURVE",
"42 3 CURVE SMOOTH",
"69 3 LINE",
"69 -9 OFFCURVE",
"72 -16 OFFCURVE",
"82 -16 CURVE SMOOTH"
);
},
{
closed = 1;
nodes = (
"163 32 OFFCURVE",
"122 32 OFFCURVE",
"101 32 CURVE",
"114 146 OFFCURVE",
"119 271 OFFCURVE",
"119 417 CURVE SMOOTH",
"119 483 OFFCURVE",
"118 561 OFFCURVE",
"116 653 CURVE",
"150 669 OFFCURVE",
"200 677 OFFCURVE",
"248 677 CURVE SMOOTH",
"364 677 OFFCURVE",
"489 630 OFFCURVE",
"489 517 CURVE SMOOTH",
"489 402 OFFCURVE",
"361 373 OFFCURVE",
"214 370 CURVE SMOOTH",
"197 370 OFFCURVE",
"190 369 OFFCURVE",
"190 356 CURVE SMOOTH",
"190 342 OFFCURVE",
"198 340 OFFCURVE",
"213 340 CURVE SMOOTH",
"317 340 OFFCURVE",
"478 315 OFFCURVE",
"478 180 CURVE SMOOTH",
"478 66 OFFCURVE",
"364 23 OFFCURVE",
"207 30 CURVE SMOOTH"
);
}
);
};
layerId = "F86CB789-B416-49E2-AD1B-BE88A4A88FF7";
paths = (
{
closed = 1;
nodes = (
"153 -33 OFFCURVE",
"183 -27 OFFCURVE",
"204 1 CURVE",
"244 -2 OFFCURVE",
"280 -4 OFFCURVE",
"315 -4 CURVE SMOOTH",
"473 -4 OFFCURVE",
"613 56 OFFCURVE",
"613 202 CURVE SMOOTH",
"613 250 OFFCURVE",
"588 314 OFFCURVE",
"489 345 CURVE",
"600 361 OFFCURVE",
"678 427 OFFCURVE",
"678 523 CURVE SMOOTH",
"678 628 OFFCURVE",
"574 708 OFFCURVE",
"421 708 CURVE SMOOTH",
"367 708 OFFCURVE",
"296 699 OFFCURVE",
"229 673 CURVE SMOOTH",
"180 654 OFFCURVE",
"144 627 OFFCURVE",
"144 582 CURVE SMOOTH",
"144 563 OFFCURVE",
"155 547 OFFCURVE",
"170 547 CURVE SMOOTH",
"172 547 OFFCURVE",
"175 548 OFFCURVE",
"180 549 CURVE",
"168 480 OFFCURVE",
"160 427 OFFCURVE",
"152 384 CURVE SMOOTH",
"135 288 OFFCURVE",
"118 209 OFFCURVE",
"99 133 CURVE",
"89 133 LINE SMOOTH",
"53 134 OFFCURVE",
"30 89 OFFCURVE",
"30 46 CURVE SMOOTH",
"30 22 OFFCURVE",
"39 4 OFFCURVE",
"64 4 CURVE SMOOTH",
"70 4 LINE",
"76 -21 OFFCURVE",
"96 -33 OFFCURVE",
"125 -33 CURVE SMOOTH"
);
},
{
closed = 1;
nodes = (
"289 120 OFFCURVE",
"264 121 OFFCURVE",
"238 123 CURVE",
"268 239 OFFCURVE",
"281 289 OFFCURVE",
"297 384 CURVE SMOOTH",
"310 462 OFFCURVE",
"318 503 OFFCURVE",
"330 580 CURVE",
"351 585 OFFCURVE",
"375 589 OFFCURVE",
"396 589 CURVE SMOOTH",
"486 589 OFFCURVE",
"530 562 OFFCURVE",
"530 516 CURVE SMOOTH",
"530 441 OFFCURVE",
"468 408 OFFCURVE",
"391 408 CURVE SMOOTH",
"338 408 OFFCURVE",
"308 385 OFFCURVE",
"308 334 CURVE SMOOTH",
"308 300 OFFCURVE",
"332 295 OFFCURVE",
"374 295 CURVE SMOOTH",
"413 295 OFFCURVE",
"470 283 OFFCURVE",
"470 225 CURVE SMOOTH",
"470 152 OFFCURVE",
"407 120 OFFCURVE",
"320 120 CURVE SMOOTH"
);
}
);
width = 674;
}
);
note = B;
unicode = 0042;
},
{
color = 6;
glyphname = C;
lastChange = "2018-03-30 17:29:25 +0000";
layers = (
{
anchors = (
{
name = bottom;
position = "{344, 0}";
},
{
name = top;
position = "{380, 700}";
}
);
layerId = "0B1DFD06-3317-40CA-B510-4969A0718C16";
paths = (
{
closed = 1;
nodes = (
"537 -2 OFFCURVE",
"658 108 OFFCURVE",
"658 239 CURVE SMOOTH",
"658 253 OFFCURVE",
"655 257 OFFCURVE",
"644 257 CURVE SMOOTH",
"634 257 OFFCURVE",
"628 250 OFFCURVE",
"628 239 CURVE SMOOTH",
"628 124 OFFCURVE",
"510 29 OFFCURVE",
"385 29 CURVE SMOOTH",
"243 29 OFFCURVE",
"81 110 OFFCURVE",
"81 329 CURVE SMOOTH",
"81 537 OFFCURVE",
"230 681 OFFCURVE",
"381 681 CURVE SMOOTH",
"470 681 OFFCURVE",
"527 638 OFFCURVE",
"583 558 CURVE SMOOTH",
"591 547 OFFCURVE",
"597 547 OFFCURVE",
"604 547 CURVE SMOOTH",
"613 547 OFFCURVE",
"621 553 OFFCURVE",
"621 563 CURVE SMOOTH",
"621 693 LINE SMOOTH",
"621 702 OFFCURVE",
"614 707 OFFCURVE",
"604 707 CURVE SMOOTH",
"595 707 OFFCURVE",
"588 701 OFFCURVE",
"588 692 CURVE SMOOTH",
"589 579 LINE",
"601 579 LINE",
"550 663 OFFCURVE",
"475 712 OFFCURVE",
"381 712 CURVE SMOOTH",
"213 712 OFFCURVE",
"50 569 OFFCURVE",
"50 329 CURVE SMOOTH",
"50 83 OFFCURVE",
"230 -2 OFFCURVE",
"385 -2 CURVE SMOOTH"
);
}
);
width = 688;
},
{
anchors = (
{
name = bottom;
position = "{382, 0}";
},
{
name = top;
position = "{402, 700}";
}
);
background = {
paths = (
{
closed = 1;
nodes = (
"580 -2 OFFCURVE",
"685 106 OFFCURVE",
"685 235 CURVE SMOOTH",
"685 245 OFFCURVE",
"685 257 OFFCURVE",
"671 257 CURVE SMOOTH",
"661 257 OFFCURVE",
"655 250 OFFCURVE",
"655 239 CURVE SMOOTH",
"655 163 OFFCURVE",
"599 29 OFFCURVE",
"412 29 CURVE SMOOTH",
"262 29 OFFCURVE",
"107 110 OFFCURVE",
"107 329 CURVE SMOOTH",
"107 545 OFFCURVE",
"257 681 OFFCURVE",
"408 681 CURVE SMOOTH",
"502 681 OFFCURVE",
"552 628 OFFCURVE",
"623 550 CURVE SMOOTH",
"628 545 OFFCURVE",
"633 542 OFFCURVE",
"636 542 CURVE SMOOTH",
"640 542 OFFCURVE",
"643 546 OFFCURVE",
"645 555 CURVE SMOOTH",
"648 571 OFFCURVE",
"648 592 OFFCURVE",
"648 696 CURVE SMOOTH",
"648 705 OFFCURVE",
"641 707 OFFCURVE",
"631 707 CURVE SMOOTH",
"622 707 OFFCURVE",
"615 701 OFFCURVE",
"615 692 CURVE SMOOTH",
"615 672 OFFCURVE",
"614 638 OFFCURVE",
"614 611 CURVE",
"547 674 OFFCURVE",
"490 712 OFFCURVE",
"407 712 CURVE SMOOTH",
"245 712 OFFCURVE",
"77 568 OFFCURVE",
"77 328 CURVE SMOOTH",
"77 82 OFFCURVE",
"254 -2 OFFCURVE",
"404 -2 CURVE SMOOTH"
);
}
);
};
layerId = "2F8C22CF-EC86-44F4-AF1A-A6C7F26A0C3C";
paths = (
{
closed = 1;
nodes = (
"579 -4 OFFCURVE",
"712 103 OFFCURVE",
"712 252 CURVE SMOOTH",
"712 295 OFFCURVE",
"683 322 OFFCURVE",
"635 322 CURVE SMOOTH",
"589 322 OFFCURVE",
"563 293 OFFCURVE",
"563 254 CURVE SMOOTH",
"563 177 OFFCURVE",
"486 126 OFFCURVE",
"401 126 CURVE SMOOTH",
"288 126 OFFCURVE",
"195 210 OFFCURVE",
"195 333 CURVE SMOOTH",
"195 473 OFFCURVE",
"301 584 OFFCURVE",
"404 584 CURVE SMOOTH",
"486 584 OFFCURVE",
"516 537 OFFCURVE",
"552 487 CURVE SMOOTH",
"563 472 OFFCURVE",
"586 464 OFFCURVE",
"607 464 CURVE SMOOTH",
"658 464 OFFCURVE",
"678 497 OFFCURVE",
"679 552 CURVE SMOOTH",
"680 648 LINE SMOOTH",
"680 690 OFFCURVE",
"652 712 OFFCURVE",
"608 712 CURVE SMOOTH",
"569 712 OFFCURVE",
"541 690 OFFCURVE",
"541 665 CURVE SMOOTH",
"542 576 LINE",
"593 576 LINE",
"579 643 OFFCURVE",
"511 714 OFFCURVE",
"364 714 CURVE SMOOTH",
"188 714 OFFCURVE",
"50 547 OFFCURVE",
"50 332 CURVE SMOOTH",
"50 129 OFFCURVE",
"191 -4 OFFCURVE",
"401 -4 CURVE SMOOTH"
);
}
);
width = 742;
},
{
anchors = (
{
name = bottom;
position = "{359, 0}";
},
{
name = top;
position = "{389, 700}";
}
);
layerId = "17B9D149-A542-49FB-8130-D430586D7342";
paths = (
{
closed = 1;
nodes = (
"567 -3 OFFCURVE",
"680 111 OFFCURVE",
"680 245 CURVE SMOOTH",
"680 271 OFFCURVE",
"666 283 OFFCURVE",
"640 283 CURVE SMOOTH",
"616 283 OFFCURVE",
"602 269 OFFCURVE",
"602 245 CURVE SMOOTH",
"602 119 OFFCURVE",
"489 68 OFFCURVE",
"388 68 CURVE SMOOTH",
"261 68 OFFCURVE",
"127 150 OFFCURVE",
"127 332 CURVE SMOOTH",
"127 511 OFFCURVE",
"240 642 OFFCURVE",
"378 642 CURVE SMOOTH",
"469 642 OFFCURVE",
"528 589 OFFCURVE",
"568 535 CURVE SMOOTH",
"579 520 OFFCURVE",
"590 514 OFFCURVE",
"607 514 CURVE SMOOTH",
"630 514 OFFCURVE",
"643 528 OFFCURVE",
"643 559 CURVE SMOOTH",
"643 671 LINE SMOOTH",
"643 696 OFFCURVE",
"630 708 OFFCURVE",
"607 708 CURVE SMOOTH",
"581 708 OFFCURVE",
"569 694 OFFCURVE",
"569 674 CURVE SMOOTH",
"570 578 LINE",
"598 578 LINE",
"561 658 OFFCURVE",
"483 713 OFFCURVE",
"378 713 CURVE SMOOTH",
"202 713 OFFCURVE",
"50 560 OFFCURVE",
"50 335 CURVE SMOOTH",
"50 101 OFFCURVE",
"213 -3 OFFCURVE",
"382 -3 CURVE SMOOTH"
);
}
);
width = 714;
},
{
anchors = (
{
name = bottom;
position = "{302, 0}";
},
{
name = top;
position = "{465, 700}";
}
);
layerId = "2214C8E2-2079-4DC2-8649-1937C1DD8804";
paths = (
{
closed = 1;
nodes = (
"512 -2 OFFCURVE",
"639 115 OFFCURVE",
"658 239 CURVE SMOOTH",
"660 252 OFFCURVE",
"657 257 OFFCURVE",
"647 257 CURVE SMOOTH",
"635 257 OFFCURVE",
"629 249 OFFCURVE",
"628 239 CURVE SMOOTH",
"615 134 OFFCURVE",
"489 29 OFFCURVE",
"346 29 CURVE SMOOTH",
"221 29 OFFCURVE",
"91 92 OFFCURVE",
"91 265 CURVE SMOOTH",
"91 464 OFFCURVE",
"264 681 OFFCURVE",
"465 681 CURVE SMOOTH",
"563 681 OFFCURVE",
"595 630 OFFCURVE",
"639 558 CURVE SMOOTH",
"644 549 OFFCURVE",
"649 547 OFFCURVE",
"656 547 CURVE SMOOTH",
"668 547 OFFCURVE",
"674 552 OFFCURVE",
"676 563 CURVE SMOOTH",
"701 693 LINE SMOOTH",
"702 702 OFFCURVE",
"697 707 OFFCURVE",
"688 707 CURVE SMOOTH",
"678 707 OFFCURVE",
"669 701 OFFCURVE",
"668 692 CURVE SMOOTH",
"649 578 LINE",
"657 579 LINE",
"624 655 OFFCURVE",
"563 712 OFFCURVE",
"465 712 CURVE SMOOTH",
"248 712 OFFCURVE",
"59 486 OFFCURVE",
"59 263 CURVE SMOOTH",
"59 68 OFFCURVE",
"216 -2 OFFCURVE",
"346 -2 CURVE SMOOTH"
);
}
);
width = 688;
},
{
anchors = (
{
name = bottom;
position = "{317, 0}";
},
{
name = top;
position = "{470, 700}";
}
);
layerId = "AEE50E4E-1B30-4E16-A434-AC23B12A4294";
paths = (
{
closed = 1;
nodes = (
"534 -3 OFFCURVE",
"658 108 OFFCURVE",
"683 239 CURVE SMOOTH",
"689 270 OFFCURVE",
"680 283 OFFCURVE",
"648 283 CURVE SMOOTH",
"614 283 OFFCURVE",
"607 260 OFFCURVE",
"603 245 CURVE SMOOTH",
"570 124 OFFCURVE",
"462 68 OFFCURVE",
"357 68 CURVE SMOOTH",
"245 68 OFFCURVE",
"138 131 OFFCURVE",
"138 276 CURVE SMOOTH",
"138 452 OFFCURVE",
"294 642 OFFCURVE",
"465 642 CURVE SMOOTH",
"558 642 OFFCURVE",
"591 585 OFFCURVE",
"622 530 CURVE SMOOTH",
"631 515 OFFCURVE",
"645 514 OFFCURVE",
"652 514 CURVE SMOOTH",
"674 514 OFFCURVE",
"694 525 OFFCURVE",
"700 559 CURVE SMOOTH",
"721 671 LINE SMOOTH",
"725 693 OFFCURVE",
"716 708 OFFCURVE",
"689 708 CURVE SMOOTH",
"662 708 OFFCURVE",
"650 692 OFFCURVE",
"647 674 CURVE SMOOTH",
"630 577 LINE",
"658 578 LINE",
"635 658 OFFCURVE",
"573 713 OFFCURVE",
"465 713 CURVE SMOOTH",
"250 713 OFFCURVE",
"60 493 OFFCURVE",
"60 274 CURVE SMOOTH",
"60 86 OFFCURVE",
"204 -3 OFFCURVE",
"357 -3 CURVE SMOOTH"
);
}
);
width = 714;
},
{
anchors = (
{
name = bottom;
position = "{340, 0}";
},
{
name = top;
position = "{473, 700}";
}
);
background = {
paths = (
{
closed = 1;
nodes = (
"580 -2 OFFCURVE",
"685 106 OFFCURVE",
"685 235 CURVE SMOOTH",
"685 245 OFFCURVE",
"685 257 OFFCURVE",
"671 257 CURVE SMOOTH",
"661 257 OFFCURVE",
"655 250 OFFCURVE",
"655 239 CURVE SMOOTH",
"655 163 OFFCURVE",
"599 29 OFFCURVE",
"412 29 CURVE SMOOTH",
"262 29 OFFCURVE",
"107 110 OFFCURVE",
"107 329 CURVE SMOOTH",
"107 545 OFFCURVE",
"257 681 OFFCURVE",
"408 681 CURVE SMOOTH",
"502 681 OFFCURVE",
"552 628 OFFCURVE",
"623 550 CURVE SMOOTH",
"628 545 OFFCURVE",
"633 542 OFFCURVE",
"636 542 CURVE SMOOTH",
"640 542 OFFCURVE",
"643 546 OFFCURVE",
"645 555 CURVE SMOOTH",
"648 571 OFFCURVE",
"648 592 OFFCURVE",
"648 696 CURVE SMOOTH",
"648 705 OFFCURVE",
"641 707 OFFCURVE",
"631 707 CURVE SMOOTH",
"622 707 OFFCURVE",
"615 701 OFFCURVE",
"615 692 CURVE SMOOTH",
"615 672 OFFCURVE",
"614 638 OFFCURVE",
"614 611 CURVE",
"547 674 OFFCURVE",
"490 712 OFFCURVE",
"407 712 CURVE SMOOTH",
"245 712 OFFCURVE",
"77 568 OFFCURVE",
"77 328 CURVE SMOOTH",
"77 82 OFFCURVE",
"254 -2 OFFCURVE",
"404 -2 CURVE SMOOTH"
);
}
);
};
layerId = "F86CB789-B416-49E2-AD1B-BE88A4A88FF7";
paths = (
{
closed = 1;
nodes = (
"599 -4 OFFCURVE",
"706 160 OFFCURVE",
"714 252 CURVE SMOOTH",
"718 296 OFFCURVE",
"697 322 OFFCURVE",
"648 322 CURVE SMOOTH",
"589 322 OFFCURVE",
"573 284 OFFCURVE",
"566 254 CURVE SMOOTH",
"542 160 OFFCURVE",
"452 126 OFFCURVE",
"381 126 CURVE SMOOTH",
"281 126 OFFCURVE",
"208 191 OFFCURVE",
"208 294 CURVE SMOOTH",
"208 429 OFFCURVE",
"335 584 OFFCURVE",
"469 584 CURVE SMOOTH",
"548 584 OFFCURVE",
"573 530 OFFCURVE",
"596 487 CURVE SMOOTH",
"604 472 OFFCURVE",
"625 464 OFFCURVE",
"649 464 CURVE SMOOTH",
"697 464 OFFCURVE",
"722 491 OFFCURVE",
"730 533 CURVE SMOOTH",
"752 649 LINE SMOOTH",
"758 682 OFFCURVE",
"739 710 OFFCURVE",
"691 710 CURVE SMOOTH",
"649 710 OFFCURVE",
"624 691 OFFCURVE",
"619 666 CURVE SMOOTH",
"602 576 LINE",
"653 576 LINE",
"652 641 OFFCURVE",
"602 714 OFFCURVE",
"469 714 CURVE SMOOTH",
"248 714 OFFCURVE",
"61 512 OFFCURVE",
"61 298 CURVE SMOOTH",
"61 119 OFFCURVE",
"193 -4 OFFCURVE",
"381 -4 CURVE SMOOTH"
);
}
);
width = 742;
}
);
leftKerningGroup = C;
note = C;
rightKerningGroup = C;
unicode = 0043;
},
{
color = 6;
glyphname = D;
lastChange = "2018-03-29 18:43:48 +0000";
layers = (
{
anchors = (
{
name = bottom;
position = "{313, 0}";
},
{
name = center;
position = "{313, 350}";
},
{
name = top;
position = "{313, 700}";
}
);
layerId = "0B1DFD06-3317-40CA-B510-4969A0718C16";
paths = (
{
closed = 1;
nodes = (
"106 8 OFFCURVE",
"127 8 OFFCURVE",
"152 8 CURVE SMOOTH",
"431 8 OFFCURVE",
"593 145 OFFCURVE",
"593 359 CURVE SMOOTH",
"593 605 OFFCURVE",
"370 698 OFFCURVE",
"79 698 CURVE SMOOTH",
"67 698 OFFCURVE",
"60 694 OFFCURVE",
"60 683 CURVE SMOOTH",
"60 671 OFFCURVE",
"66 667 OFFCURVE",
"78 667 CURVE SMOOTH",
"278 667 OFFCURVE",
"562 630 OFFCURVE",
"562 359 CURVE SMOOTH",
"562 152 OFFCURVE",
"399 38 OFFCURVE",
"149 38 CURVE",
"159 30 LINE",
"142 692 LINE SMOOTH",
"142 705 OFFCURVE",
"138 713 OFFCURVE",
"127 713 CURVE SMOOTH",
"117 713 OFFCURVE",
"110 708 OFFCURVE",
"110 691 CURVE SMOOTH",
"128 30 LINE",
"136 38 LINE",
"76 38 LINE SMOOTH",
"66 38 OFFCURVE",
"61 32 OFFCURVE",
"61 23 CURVE SMOOTH",
"61 14 OFFCURVE",
"65 8 OFFCURVE",
"77 8 CURVE SMOOTH"
);
}
);
width = 643;
},
{
anchors = (
{
name = bottom;
position = "{347, 0}";
},
{
name = center;
position = "{357, 351}";
},
{
name = top;
position = "{347, 700}";
}
);
background = {
paths = (
{
closed = 1;
nodes = (
"473 8 OFFCURVE",
"635 142 OFFCURVE",
"635 357 CURVE SMOOTH",
"635 606 OFFCURVE",
"417 698 OFFCURVE",
"127 698 CURVE SMOOTH",
"114 698 OFFCURVE",
"102 699 OFFCURVE",
"102 686 CURVE SMOOTH",
"102 674 OFFCURVE",
"109 669 OFFCURVE",
"125 669 CURVE SMOOTH",
"413 669 OFFCURVE",
"606 581 OFFCURVE",
"606 358 CURVE SMOOTH",
"606 158 OFFCURVE",
"431 37 OFFCURVE",
"201 37 CURVE",
"183 686 LINE SMOOTH",
"183 703 OFFCURVE",
"182 712 OFFCURVE",
"168 712 CURVE SMOOTH",
"153 712 OFFCURVE",
"152 701 OFFCURVE",
"152 684 CURVE SMOOTH",
"170 37 LINE",
"115 37 LINE SMOOTH",
"108 37 OFFCURVE",
"103 34 OFFCURVE",
"103 25 CURVE SMOOTH",
"103 13 OFFCURVE",
"107 8 OFFCURVE",
"119 8 CURVE SMOOTH",
"148 8 OFFCURVE",
"169 8 OFFCURVE",
"194 8 CURVE SMOOTH"
);
}
);
};
layerId = "2F8C22CF-EC86-44F4-AF1A-A6C7F26A0C3C";
paths = (
{
closed = 1;
nodes = (
"178 5 OFFCURVE",
"197 5 OFFCURVE",
"218 5 CURVE SMOOTH",
"491 5 OFFCURVE",
"667 147 OFFCURVE",
"667 362 CURVE SMOOTH",
"667 592 OFFCURVE",
"468 703 OFFCURVE",
"125 703 CURVE SMOOTH",
"96 703 OFFCURVE",
"70 685 OFFCURVE",
"70 636 CURVE SMOOTH",
"70 593 OFFCURVE",
"92 574 OFFCURVE",
"119 574 CURVE SMOOTH",
"309 574 OFFCURVE",
"522 545 OFFCURVE",
"522 362 CURVE SMOOTH",
"522 219 OFFCURVE",
"385 133 OFFCURVE",
"233 133 CURVE",
"283 85 LINE",
"268 636 LINE SMOOTH",
"267 690 OFFCURVE",
"255 720 OFFCURVE",
"194 720 CURVE SMOOTH",
"129 720 OFFCURVE",
"122 687 OFFCURVE",
"123 637 CURVE SMOOTH",
"138 85 LINE",
"186 133 LINE",
"127 133 LINE SMOOTH",
"87 133 OFFCURVE",
"71 111 OFFCURVE",
"71 71 CURVE SMOOTH",
"71 23 OFFCURVE",
"95 5 OFFCURVE",
"153 5 CURVE SMOOTH"
);
}
);
width = 717;
},
{
anchors = (
{
name = bottom;
position = "{339, 0}";
},
{
name = center;
position = "{343, 350}";
},
{
name = top;
position = "{339, 700}";
}
);
layerId = "17B9D149-A542-49FB-8130-D430586D7342";
paths = (
{
closed = 1;
nodes = (
"148 7 OFFCURVE",
"168 7 OFFCURVE",
"191 7 CURVE SMOOTH",
"467 7 OFFCURVE",
"635 146 OFFCURVE",
"635 361 CURVE SMOOTH",
"635 605 OFFCURVE",
"419 700 OFFCURVE",
"122 700 CURVE SMOOTH",
"96 700 OFFCURVE",
"77 693 OFFCURVE",
"77 663 CURVE SMOOTH",
"77 635 OFFCURVE",
"96 630 OFFCURVE",
"122 630 CURVE SMOOTH",
"318 630 OFFCURVE",
"559 590 OFFCURVE",
"559 361 CURVE SMOOTH",
"559 177 OFFCURVE",
"406 76 OFFCURVE",
"195 76 CURVE",
"221 52 LINE",
"205 670 LINE SMOOTH",
"205 699 OFFCURVE",
"198 718 OFFCURVE",
"167 718 CURVE SMOOTH",
"139 718 OFFCURVE",
"127 703 OFFCURVE",
"128 669 CURVE SMOOTH",
"145 52 LINE",
"169 76 LINE",
"110 76 LINE SMOOTH",
"88 76 OFFCURVE",
"78 64 OFFCURVE",
"78 42 CURVE SMOOTH",
"78 16 OFFCURVE",
"92 7 OFFCURVE",
"120 7 CURVE SMOOTH"
);
}
);
width = 687;
},
{
anchors = (
{
name = bottom;
position = "{271, 0}";
},
{
name = center;
position = "{333, 350}";
},
{
name = top;
position = "{394, 700}";
}
);
layerId = "2214C8E2-2079-4DC2-8649-1937C1DD8804";
paths = (
{
closed = 1;
nodes = (
"65 8 OFFCURVE",
"86 8 OFFCURVE",
"111 8 CURVE SMOOTH",
"401 8 OFFCURVE",
"620 164 OFFCURVE",
"620 401 CURVE SMOOTH",
"620 626 OFFCURVE",
"424 698 OFFCURVE",
"160 698 CURVE SMOOTH",
"148 698 OFFCURVE",
"140 697 OFFCURVE",
"138 683 CURVE SMOOTH",
"136 669 OFFCURVE",
"145 667 OFFCURVE",
"159 667 CURVE SMOOTH",
"352 667 OFFCURVE",
"588 639 OFFCURVE",
"588 404 CURVE SMOOTH",
"588 183 OFFCURVE",
"379 38 OFFCURVE",
"114 38 CURVE",
"122 30 LINE",
"222 692 LINE SMOOTH",
"224 705 OFFCURVE",
"222 713 OFFCURVE",
"211 713 CURVE SMOOTH",
"201 713 OFFCURVE",
"193 708 OFFCURVE",
"190 691 CURVE SMOOTH",
"91 30 LINE",
"101 38 LINE",
"41 38 LINE SMOOTH",
"29 38 OFFCURVE",
"22 29 OFFCURVE",
"22 19 CURVE SMOOTH",
"22 12 OFFCURVE",
"25 8 OFFCURVE",
"36 8 CURVE SMOOTH"
);
}
);
width = 643;
},
{
anchors = (
{
name = bottom;
position = "{297, 0}";
},
{
name = center;
position = "{363, 350}";
},
{
name = top;
position = "{420, 700}";
}
);
layerId = "AEE50E4E-1B30-4E16-A434-AC23B12A4294";
paths = (
{
closed = 1;
nodes = (
"107 7 OFFCURVE",
"143 7 OFFCURVE",
"166 7 CURVE SMOOTH",
"448 7 OFFCURVE",
"662 164 OFFCURVE",
"662 401 CURVE SMOOTH",
"662 622 OFFCURVE",
"465 700 OFFCURVE",
"203 700 CURVE SMOOTH",
"173 700 OFFCURVE",
"151 694 OFFCURVE",
"151 657 CURVE SMOOTH",
"151 633 OFFCURVE",
"171 630 OFFCURVE",
"195 630 CURVE SMOOTH",
"389 630 OFFCURVE",
"586 597 OFFCURVE",
"586 401 CURVE SMOOTH",
"586 208 OFFCURVE",
"395 76 OFFCURVE",
"166 76 CURVE",
"188 52 LINE",
"281 670 LINE SMOOTH",
"285 698 OFFCURVE",
"284 715 OFFCURVE",
"251 715 CURVE SMOOTH",
"223 715 OFFCURVE",
"209 703 OFFCURVE",
"204 669 CURVE SMOOTH",
"112 52 LINE",
"140 76 LINE",
"81 76 LINE SMOOTH",
"55 76 OFFCURVE",
"42 56 OFFCURVE",
"42 35 CURVE SMOOTH",
"42 14 OFFCURVE",
"54 7 OFFCURVE",
"79 7 CURVE SMOOTH"
);
}
);
width = 687;
},
{
anchors = (
{
name = bottom;
position = "{305, 0}";
},
{
name = center;
position = "{377, 351}";
},
{
name = top;
position = "{428, 700}";
}
);
background = {
paths = (
{
closed = 1;
nodes = (
"473 8 OFFCURVE",
"635 142 OFFCURVE",
"635 357 CURVE SMOOTH",
"635 606 OFFCURVE",
"417 698 OFFCURVE",
"127 698 CURVE SMOOTH",
"114 698 OFFCURVE",
"102 699 OFFCURVE",
"102 686 CURVE SMOOTH",
"102 674 OFFCURVE",
"109 669 OFFCURVE",
"125 669 CURVE SMOOTH",
"413 669 OFFCURVE",
"606 581 OFFCURVE",
"606 358 CURVE SMOOTH",
"606 158 OFFCURVE",
"431 37 OFFCURVE",
"201 37 CURVE",
"183 686 LINE SMOOTH",
"183 703 OFFCURVE",
"182 712 OFFCURVE",
"168 712 CURVE SMOOTH",
"153 712 OFFCURVE",
"152 701 OFFCURVE",
"152 684 CURVE SMOOTH",
"170 37 LINE",
"115 37 LINE SMOOTH",
"108 37 OFFCURVE",
"103 34 OFFCURVE",
"103 25 CURVE SMOOTH",
"103 13 OFFCURVE",
"107 8 OFFCURVE",
"119 8 CURVE SMOOTH",
"148 8 OFFCURVE",
"169 8 OFFCURVE",
"194 8 CURVE SMOOTH"
);
}
);
};
layerId = "F86CB789-B416-49E2-AD1B-BE88A4A88FF7";
paths = (
{
closed = 1;
nodes = (
"137 5 OFFCURVE",
"166 5 OFFCURVE",
"187 5 CURVE SMOOTH",
"467 5 OFFCURVE",
"694 149 OFFCURVE",
"694 390 CURVE SMOOTH",
"694 598 OFFCURVE",
"517 703 OFFCURVE",
"209 703 CURVE SMOOTH",
"175 703 OFFCURVE",
"139 678 OFFCURVE",
"139 616 CURVE SMOOTH",
"139 582 OFFCURVE",
"152 574 OFFCURVE",
"178 574 CURVE SMOOTH",
"338 574 OFFCURVE",
"547 551 OFFCURVE",
"547 390 CURVE SMOOTH",
"547 244 OFFCURVE",
"384 129 OFFCURVE",
"214 133 CURVE",
"256 85 LINE",
"338 636 LINE SMOOTH",
"347 693 OFFCURVE",
"337 719 OFFCURVE",
"279 719 CURVE SMOOTH",
"214 719 OFFCURVE",
"201 687 OFFCURVE",
"193 637 CURVE SMOOTH",
"111 85 LINE",
"167 133 LINE",
"109 133 LINE SMOOTH",
"62 133 OFFCURVE",
"40 96 OFFCURVE",
"40 56 CURVE SMOOTH",
"40 19 OFFCURVE",
"59 5 OFFCURVE",
"112 5 CURVE SMOOTH"
);
}
);
width = 717;
}
);
note = D;
unicode = 0044;
},
{
color = 9;
glyphname = Eth;
lastChange = "2018-03-30 17:37:03 +0000";
layers = (
{
anchors = (
{
name = bottom;
position = "{356, 50}";
},
{
name = center;
position = "{356, 351}";
},
{
name = top;
position = "{356, 653}";
}
);
layerId = "0B1DFD06-3317-40CA-B510-4969A0718C16";
paths = (
{
closed = 1;
nodes = (
"151 8 OFFCURVE",
"172 8 OFFCURVE",
"197 8 CURVE SMOOTH",
"476 8 OFFCURVE",
"638 142 OFFCURVE",
"638 357 CURVE SMOOTH",
"638 608 OFFCURVE",
"417 698 OFFCURVE",
"125 698 CURVE SMOOTH",
"114 698 OFFCURVE",
"105 697 OFFCURVE",
"105 686 CURVE SMOOTH",
"105 674 OFFCURVE",
"112 669 OFFCURVE",
"128 669 CURVE SMOOTH",
"416 669 OFFCURVE",
"609 582 OFFCURVE",
"609 358 CURVE SMOOTH",
"609 148 OFFCURVE",
"441 37 OFFCURVE",
"196 37 CURVE",
"204 29 LINE",
"186 686 LINE SMOOTH",
"186 703 OFFCURVE",
"185 712 OFFCURVE",
"171 712 CURVE SMOOTH",
"156 712 OFFCURVE",
"155 701 OFFCURVE",
"155 684 CURVE SMOOTH",
"174 29 LINE",
"183 37 LINE",
"118 37 LINE SMOOTH",
"111 37 OFFCURVE",
"106 34 OFFCURVE",
"106 25 CURVE SMOOTH",
"106 13 OFFCURVE",
"110 8 OFFCURVE",
"122 8 CURVE SMOOTH"
);
},
{
closed = 1;
nodes = (
"374 347 OFFCURVE",
"380 350 OFFCURVE",
"380 358 CURVE SMOOTH",
"380 367 OFFCURVE",
"374 373 OFFCURVE",
"361 373 CURVE SMOOTH",
"44 379 LINE SMOOTH",
"26 379 OFFCURVE",
"20 374 OFFCURVE",
"20 365 CURVE SMOOTH",
"20 356 OFFCURVE",
"26 352 OFFCURVE",
"44 352 CURVE SMOOTH",
"361 347 LINE SMOOTH"
);
}
);
width = 688;
},
{
anchors = (
{
name = bottom;
position = "{356, 50}";
},
{
name = center;
position = "{356, 351}";
},
{
name = top;
position = "{356, 653}";
}
);
layerId = "2F8C22CF-EC86-44F4-AF1A-A6C7F26A0C3C";
paths = (
{
closed = 1;
nodes = (
"177 5 OFFCURVE",
"196 5 OFFCURVE",
"217 5 CURVE SMOOTH",
"491 5 OFFCURVE",
"666 143 OFFCURVE",
"666 353 CURVE SMOOTH",
"666 579 OFFCURVE",
"464 703 OFFCURVE",
"196 703 CURVE SMOOTH",
"103 703 OFFCURVE",
"69 688 OFFCURVE",
"69 643 CURVE SMOOTH",
"69 598 OFFCURVE",
"104 578 OFFCURVE",
"158 575 CURVE SMOOTH",
"224 571 OFFCURVE",
"503 587 OFFCURVE",
"503 360 CURVE SMOOTH",
"503 220 OFFCURVE",
"396 133 OFFCURVE",
"223 133 CURVE",
"292 83 LINE",
"277 641 LINE SMOOTH",
"276 690 OFFCURVE",
"249 717 OFFCURVE",
"188 717 CURVE SMOOTH",
"123 717 OFFCURVE",
"111 687 OFFCURVE",
"112 637 CURVE SMOOTH",
"127 80 LINE",
"196 133 LINE",
"149 133 LINE SMOOTH",
"114 133 OFFCURVE",
"68 125 OFFCURVE",
"70 67 CURVE SMOOTH",
"72 20 OFFCURVE",
"101 5 OFFCURVE",
"152 5 CURVE SMOOTH"
);
},
{
closed = 1;
nodes = (
"366 287 OFFCURVE",
"400 315 OFFCURVE",
"400 358 CURVE SMOOTH",
"400 402 OFFCURVE",
"365 431 OFFCURVE",
"311 433 CURVE SMOOTH",
"116 439 LINE SMOOTH",
"54 441 OFFCURVE",
"20 409 OFFCURVE",
"20 365 CURVE SMOOTH",
"20 320 OFFCURVE",
"55 293 OFFCURVE",
"113 292 CURVE SMOOTH",
"310 287 LINE"
);
}
);
width = 716;
},
{
anchors = (
{
name = bottom;
position = "{376, 50}";
},
{
name = center;
position = "{376, 351}";
},
{
name = top;
position = "{376, 653}";
}
);
layerId = "17B9D149-A542-49FB-8130-D430586D7342";
paths = (
{
closed = 1;
nodes = (
"181 7 OFFCURVE",
"202 7 OFFCURVE",
"225 7 CURVE SMOOTH",
"502 7 OFFCURVE",
"669 142 OFFCURVE",
"669 355 CURVE SMOOTH",
"669 596 OFFCURVE",
"456 700 OFFCURVE",
"173 700 CURVE SMOOTH",
"130 700 OFFCURVE",
"111 693 OFFCURVE",
"111 669 CURVE SMOOTH",
"111 644 OFFCURVE",
"129 633 OFFCURVE",
"160 631 CURVE SMOOTH",
"359 630 OFFCURVE",
"587 584 OFFCURVE",
"587 359 CURVE SMOOTH",
"587 177 OFFCURVE",
"443 75 OFFCURVE",
"227 75 CURVE",
"259 51 LINE",
"242 668 LINE SMOOTH",
"242 698 OFFCURVE",
"231 714 OFFCURVE",
"198 714 CURVE SMOOTH",
"163 714 OFFCURVE",
"157 695 OFFCURVE",
"158 665 CURVE SMOOTH",
"175 49 LINE",
"208 75 LINE",
"150 75 LINE SMOOTH",
"132 75 OFFCURVE",
"111 70 OFFCURVE",
"112 42 CURVE SMOOTH",
"112 16 OFFCURVE",
"126 7 OFFCURVE",
"154 7 CURVE SMOOTH"
);
},
{
closed = 1;
nodes = (
"391 323 OFFCURVE",
"408 336 OFFCURVE",
"408 358 CURVE SMOOTH",
"408 381 OFFCURVE",
"390 396 OFFCURVE",
"361 397 CURVE SMOOTH",
"93 403 LINE SMOOTH",
"57 404 OFFCURVE",
"40 388 OFFCURVE",
"40 365 CURVE SMOOTH",
"40 342 OFFCURVE",
"58 328 OFFCURVE",
"92 328 CURVE SMOOTH",
"361 323 LINE SMOOTH"
);
}
);
width = 721;
},
{
anchors = (
{
name = bottom;
position = "{321, 50}";
},
{
name = center;
position = "{374, 351}";
},
{
name = top;
position = "{427, 653}";
}
);
layerId = "2214C8E2-2079-4DC2-8649-1937C1DD8804";
paths = (
{
closed = 1;
nodes = (
"108 8 OFFCURVE",
"133 8 OFFCURVE",
"158 8 CURVE SMOOTH",
"441 8 OFFCURVE",
"663 163 OFFCURVE",
"663 404 CURVE SMOOTH",
"663 620 OFFCURVE",
"482 698 OFFCURVE",
"204 698 CURVE SMOOTH",
"192 698 OFFCURVE",
"182 697 OFFCURVE",
"182 682 CURVE SMOOTH",
"182 673 OFFCURVE",
"188 669 OFFCURVE",
"202 669 CURVE SMOOTH",
"463 669 OFFCURVE",
"634 596 OFFCURVE",
"634 418 CURVE SMOOTH",
"634 176 OFFCURVE",
"424 37 OFFCURVE",
"159 37 CURVE",
"165 29 LINE",
"263 686 LINE SMOOTH",
"264 692 OFFCURVE",
"265 697 OFFCURVE",
"265 701 CURVE SMOOTH",
"265 708 OFFCURVE",
"263 712 OFFCURVE",
"253 712 CURVE SMOOTH",
"238 712 OFFCURVE",
"235 701 OFFCURVE",
"232 684 CURVE SMOOTH",
"135 29 LINE",
"146 37 LINE",
"81 37 LINE SMOOTH",
"73 37 OFFCURVE",
"65 33 OFFCURVE",
"65 19 CURVE SMOOTH",
"65 11 OFFCURVE",
"69 8 OFFCURVE",
"79 8 CURVE SMOOTH"
);
},
{
closed = 1;
nodes = (
"393 347 OFFCURVE",
"399 351 OFFCURVE",
"399 362 CURVE SMOOTH",
"399 369 OFFCURVE",
"394 373 OFFCURVE",
"383 373 CURVE SMOOTH",
"67 379 LINE SMOOTH",
"48 379 OFFCURVE",
"40 373 OFFCURVE",
"40 363 CURVE SMOOTH",
"40 355 OFFCURVE",
"45 352 OFFCURVE",
"62 352 CURVE SMOOTH",
"378 347 LINE SMOOTH"
);
}
);
width = 692;
},
{
anchors = (
{
name = bottom;
position = "{342, 50}";
},
{
name = center;
position = "{395, 351}";
},
{
name = top;
position = "{448, 653}";
}
);
layerId = "AEE50E4E-1B30-4E16-A434-AC23B12A4294";
paths = (
{
closed = 1;
nodes = (
"139 7 OFFCURVE",
"160 7 OFFCURVE",
"183 7 CURVE SMOOTH",
"464 7 OFFCURVE",
"695 158 OFFCURVE",
"695 398 CURVE SMOOTH",
"695 613 OFFCURVE",
"509 700 OFFCURVE",
"253 700 CURVE SMOOTH",
"206 700 OFFCURVE",
"185 692 OFFCURVE",
"185 662 CURVE SMOOTH",
"185 642 OFFCURVE",
"201 633 OFFCURVE",
"228 631 CURVE SMOOTH",
"411 630 OFFCURVE",
"612 591 OFFCURVE",
"612 410 CURVE SMOOTH",
"612 201 OFFCURVE",
"428 75 OFFCURVE",
"197 75 CURVE",
"225 51 LINE",
"317 668 LINE SMOOTH",
"318 673 OFFCURVE",
"318 678 OFFCURVE",
"318 683 CURVE SMOOTH",
"318 703 OFFCURVE",
"308 714 OFFCURVE",
"281 714 CURVE SMOOTH",
"246 714 OFFCURVE",
"237 695 OFFCURVE",
"232 665 CURVE SMOOTH",
"141 49 LINE",
"178 75 LINE",
"120 75 LINE SMOOTH",
"100 75 OFFCURVE",
"75 69 OFFCURVE",
"75 33 CURVE SMOOTH",
"75 14 OFFCURVE",
"88 7 OFFCURVE",
"112 7 CURVE SMOOTH"
);
},
{
closed = 1;
nodes = (
"408 323 OFFCURVE",
"429 339 OFFCURVE",
"429 365 CURVE SMOOTH",
"429 384 OFFCURVE",
"414 396 OFFCURVE",
"388 397 CURVE SMOOTH",
"121 403 LINE SMOOTH",
"82 404 OFFCURVE",
"60 385 OFFCURVE",
"60 358 CURVE SMOOTH",
"60 339 OFFCURVE",
"76 328 OFFCURVE",
"107 328 CURVE SMOOTH",
"375 323 LINE SMOOTH"
);
}
);
width = 726;
},
{
anchors = (
{
name = bottom;
position = "{322, 50}";
},
{
name = center;
position = "{375, 351}";
},
{
name = top;
position = "{428, 653}";
}
);
layerId = "F86CB789-B416-49E2-AD1B-BE88A4A88FF7";
paths = (
{
closed = 1;
nodes = (
"135 5 OFFCURVE",
"154 5 OFFCURVE",
"175 5 CURVE SMOOTH",
"454 5 OFFCURVE",
"691 158 OFFCURVE",
"691 397 CURVE SMOOTH",
"691 599 OFFCURVE",
"521 703 OFFCURVE",
"277 703 CURVE SMOOTH",
"201 703 OFFCURVE",
"138 693 OFFCURVE",
"138 633 CURVE SMOOTH",
"138 594 OFFCURVE",
"164 579 OFFCURVE",
"216 575 CURVE SMOOTH",
"301 568 OFFCURVE",
"527 587 OFFCURVE",
"527 394 CURVE SMOOTH",
"527 242 OFFCURVE",
"387 133 OFFCURVE",
"203 133 CURVE",
"264 83 LINE",
"347 641 LINE SMOOTH",
"348 647 OFFCURVE",
"349 653 OFFCURVE",
"349 660 CURVE SMOOTH",
"349 696 OFFCURVE",
"324 717 OFFCURVE",
"271 717 CURVE SMOOTH",
"206 717 OFFCURVE",
"189 687 OFFCURVE",
"181 637 CURVE SMOOTH",
"98 80 LINE",
"176 133 LINE",
"129 133 LINE SMOOTH",
"74 133 OFFCURVE",
"38 107 OFFCURVE",
"38 57 CURVE SMOOTH",
"38 17 OFFCURVE",
"61 5 OFFCURVE",
"110 5 CURVE SMOOTH"
);
},
{
closed = 1;
nodes = (
"380 287 OFFCURVE",
"421 322 OFFCURVE",
"421 369 CURVE SMOOTH",
"421 406 OFFCURVE",
"396 431 OFFCURVE",
"344 433 CURVE SMOOTH",
"150 439 LINE SMOOTH",
"83 441 OFFCURVE",
"40 401 OFFCURVE",
"40 354 CURVE SMOOTH",
"40 314 OFFCURVE",
"70 293 OFFCURVE",
"121 292 CURVE SMOOTH",
"318 287 LINE"
);
}
);
width = 720;
}
);
note = Eth;
unicode = 00D0;
},
{
color = 6;
glyphname = E;
lastChange = "2018-03-30 19:21:51 +0000";
layers = (
{
anchors = (
{
name = bottom;
position = "{311, 0}";
},
{
name = ogonek;
position = "{510, 30}";
},
{
name = top;
position = "{311, 700}";
},
{
name = topleft;
position = "{55, 700}";
}
);
layerId = "0B1DFD06-3317-40CA-B510-4969A0718C16";
paths = (
{
closed = 1;
nodes = (
"406 13 OFFCURVE",
"476 15 OFFCURVE",
"513 22 CURVE SMOOTH",
"526 24 OFFCURVE",
"528 28 OFFCURVE",
"528 36 CURVE SMOOTH",
"528 48 OFFCURVE",
"523 55 OFFCURVE",
"509 53 CURVE SMOOTH",
"456 47 OFFCURVE",
"428 44 OFFCURVE",
"346 44 CURVE SMOOTH",
"264 44 OFFCURVE",
"184 47 OFFCURVE",
"136 52 CURVE",
"147 41 LINE",
"157 145 OFFCURVE",
"169 238 OFFCURVE",
"169 406 CURVE SMOOTH",
"169 490 OFFCURVE",
"168 604 OFFCURVE",
"164 671 CURVE",
"155 660 LINE",
"198 663 OFFCURVE",
"242 666 OFFCURVE",
"325 666 CURVE SMOOTH",
"420 666 OFFCURVE",
"464 662 OFFCURVE",
"517 657 CURVE SMOOTH",
"525 656 OFFCURVE",
"534 660 OFFCURVE",
"534 672 CURVE SMOOTH",
"534 681 OFFCURVE",
"528 686 OFFCURVE",
"518 687 CURVE SMOOTH",
"461 693 OFFCURVE",
"420 696 OFFCURVE",
"311 696 CURVE SMOOTH",
"248 696 OFFCURVE",
"197 695 OFFCURVE",
"132 690 CURVE SMOOTH",
"118 689 OFFCURVE",
"112 685 OFFCURVE",
"112 673 CURVE SMOOTH",
"112 660 OFFCURVE",
"119 658 OFFCURVE",
"145 660 CURVE",
"134 670 LINE",
"139 603 OFFCURVE",
"138 490 OFFCURVE",
"138 406 CURVE SMOOTH",
"138 239 OFFCURVE",
"128 145 OFFCURVE",
"114 42 CURVE",
"127 52 LINE",
"120 53 OFFCURVE",
"105 55 OFFCURVE",
"96 55 CURVE SMOOTH",
"85 55 OFFCURVE",
"80 49 OFFCURVE",
"80 39 CURVE SMOOTH",
"80 30 OFFCURVE",
"84 25 OFFCURVE",
"96 24 CURVE SMOOTH",
"195 15 OFFCURVE",
"276 14 OFFCURVE",
"324 14 CURVE SMOOTH"
);
},
{
closed = 1;
nodes = (
"443 349 OFFCURVE",
"446 354 OFFCURVE",
"446 363 CURVE SMOOTH",
"446 375 OFFCURVE",
"440 380 OFFCURVE",
"430 380 CURVE SMOOTH",
"396 380 OFFCURVE",
"330 384 OFFCURVE",
"267 384 CURVE SMOOTH",
"217 384 OFFCURVE",
"145 387 OFFCURVE",
"109 387 CURVE SMOOTH",
"99 387 OFFCURVE",
"93 381 OFFCURVE",
"93 372 CURVE SMOOTH",
"93 363 OFFCURVE",
"98 356 OFFCURVE",
"110 356 CURVE SMOOTH",
"144 356 OFFCURVE",
"204 355 OFFCURVE",
"264 354 CURVE SMOOTH",
"341 353 OFFCURVE",
"399 349 OFFCURVE",
"431 349 CURVE SMOOTH"
);
}
);
width = 574;
},
{
anchors = (
{
name = bottom;
position = "{348, 0}";
},
{
name = ogonek;
position = "{537, 47}";
},
{
name = top;
position = "{348, 700}";
},
{
name = topleft;
position = "{118, 652}";
}
);
layerId = "2F8C22CF-EC86-44F4-AF1A-A6C7F26A0C3C";
paths = (
{
closed = 1;
nodes = (
"398 9 OFFCURVE",
"492 8 OFFCURVE",
"540 18 CURVE SMOOTH",
"578 26 OFFCURVE",
"594 47 OFFCURVE",
"594 81 CURVE SMOOTH",
"594 125 OFFCURVE",
"566 151 OFFCURVE",
"517 145 CURVE SMOOTH",
"468 139 OFFCURVE",
"423 136 OFFCURVE",
"361 136 CURVE SMOOTH",
"317 136 OFFCURVE",
"283 137 OFFCURVE",
"208 145 CURVE",
"259 93 LINE",
"278 213 OFFCURVE",
"278 254 OFFCURVE",
"278 382 CURVE SMOOTH",
"278 431 OFFCURVE",
"274 506 OFFCURVE",
"274 620 CURVE",
"227 567 LINE",
"260 570 OFFCURVE",
"317 574 OFFCURVE",
"382 574 CURVE SMOOTH",
"447 574 OFFCURVE",
"498 570 OFFCURVE",
"544 566 CURVE SMOOTH",
"579 563 OFFCURVE",
"600 592 OFFCURVE",
"600 631 CURVE SMOOTH",
"600 674 OFFCURVE",
"573 689 OFFCURVE",
"537 693 CURVE SMOOTH",
"504 697 OFFCURVE",
"441 701 OFFCURVE",
"346 701 CURVE SMOOTH",
"276 701 OFFCURVE",
"207 700 OFFCURVE",
"168 696 CURVE SMOOTH",
"123 691 OFFCURVE",
"98 675 OFFCURVE",
"98 631 CURVE SMOOTH",
"98 593 OFFCURVE",
"117 566 OFFCURVE",
"179 567 CURVE",
"132 620 LINE",
"132 506 OFFCURVE",
"131 416 OFFCURVE",
"131 376 CURVE SMOOTH",
"131 285 OFFCURVE",
"136 225 OFFCURVE",
"113 103 CURVE",
"169 148 LINE",
"147 148 OFFCURVE",
"126 148 OFFCURVE",
"111 147 CURVE SMOOTH",
"82 144 OFFCURVE",
"70 116 OFFCURVE",
"70 84 CURVE SMOOTH",
"70 50 OFFCURVE",
"83 28 OFFCURVE",
"114 24 CURVE SMOOTH",
"221 10 OFFCURVE",
"281 9 OFFCURVE",
"340 9 CURVE SMOOTH"
);
},
{
closed = 1;
nodes = (
"509 300 OFFCURVE",
"525 324 OFFCURVE",
"525 364 CURVE SMOOTH",
"525 406 OFFCURVE",
"512 427 OFFCURVE",
"486 427 CURVE SMOOTH",
"448 427 OFFCURVE",
"374 431 OFFCURVE",
"300 431 CURVE SMOOTH",
"226 431 OFFCURVE",
"136 433 OFFCURVE",
"123 433 CURVE SMOOTH",
"90 433 OFFCURVE",
"77 404 OFFCURVE",
"77 369 CURVE SMOOTH",
"77 325 OFFCURVE",
"91 303 OFFCURVE",
"124 303 CURVE SMOOTH",
"165 303 OFFCURVE",
"232 302 OFFCURVE",
"300 302 CURVE SMOOTH",
"380 302 OFFCURVE",
"450 300 OFFCURVE",
"481 300 CURVE SMOOTH"
);
}
);
width = 640;
},
{
anchors = (
{
name = bottom;
position = "{301, 0}";
},
{
name = ogonek;
position = "{497, 38}";
},
{
name = top;
position = "{301, 700}";
},
{
name = topleft;
position = "{55, 681}";
}
);
layerId = "17B9D149-A542-49FB-8130-D430586D7342";
paths = (
{
closed = 1;
nodes = (
"370 12 OFFCURVE",
"458 11 OFFCURVE",
"499 20 CURVE SMOOTH",
"515 23 OFFCURVE",
"529 30 OFFCURVE",
"529 55 CURVE SMOOTH",
"529 80 OFFCURVE",
"515 93 OFFCURVE",
"487 90 CURVE SMOOTH",
"434 84 OFFCURVE",
"403 81 OFFCURVE",
"325 81 CURVE SMOOTH",
"262 81 OFFCURVE",
"199 83 OFFCURVE",
"140 89 CURVE",
"167 62 LINE",
"179 161 OFFCURVE",
"188 252 OFFCURVE",
"188 391 CURVE SMOOTH",
"188 482 OFFCURVE",
"185 570 OFFCURVE",
"183 651 CURVE",
"159 623 LINE",
"198 626 OFFCURVE",
"249 629 OFFCURVE",
"319 629 CURVE SMOOTH",
"400 629 OFFCURVE",
"453 625 OFFCURVE",
"503 621 CURVE SMOOTH",
"522 619 OFFCURVE",
"535 633 OFFCURVE",
"535 656 CURVE SMOOTH",
"535 682 OFFCURVE",
"518 686 OFFCURVE",
"501 689 CURVE SMOOTH",
"466 694 OFFCURVE",
"395 698 OFFCURVE",
"293 698 CURVE SMOOTH",
"242 698 OFFCURVE",
"168 697 OFFCURVE",
"121 692 CURVE SMOOTH",
"103 690 OFFCURVE",
"81 687 OFFCURVE",
"81 656 CURVE SMOOTH",
"81 633 OFFCURVE",
"93 621 OFFCURVE",
"134 623 CURVE",
"108 650 LINE",
"111 564 OFFCURVE",
"110 482 OFFCURVE",
"110 392 CURVE SMOOTH",
"110 252 OFFCURVE",
"106 167 OFFCURVE",
"89 66 CURVE",
"119 90 LINE",
"108 90 OFFCURVE",
"86 92 OFFCURVE",
"76 92 CURVE SMOOTH",
"61 92 OFFCURVE",
"51 77 OFFCURVE",
"51 57 CURVE SMOOTH",
"51 39 OFFCURVE",
"59 26 OFFCURVE",
"78 24 CURVE SMOOTH",
"175 13 OFFCURVE",
"240 12 OFFCURVE",
"316 12 CURVE SMOOTH"
);
},
{
closed = 1;
nodes = (
"444 329 OFFCURVE",
"453 345 OFFCURVE",
"453 366 CURVE SMOOTH",
"453 385 OFFCURVE",
"446 399 OFFCURVE",
"425 399 CURVE SMOOTH",
"385 399 OFFCURVE",
"333 402 OFFCURVE",
"255 403 CURVE SMOOTH",
"180 404 OFFCURVE",
"146 405 OFFCURVE",
"94 405 CURVE SMOOTH",
"71 405 OFFCURVE",
"63 389 OFFCURVE",
"63 370 CURVE SMOOTH",
"63 347 OFFCURVE",
"76 335 OFFCURVE",
"98 335 CURVE SMOOTH",
"150 335 OFFCURVE",
"196 333 OFFCURVE",
"253 333 CURVE SMOOTH",
"340 333 OFFCURVE",
"385 329 OFFCURVE",
"425 329 CURVE SMOOTH"
);
}
);
width = 573;
},
{
anchors = (
{
name = bottom;
position = "{269, 0}";
},
{
name = ogonek;
position = "{473, 30}";
},
{
name = top;
position = "{392, 700}";
},
{
name = topleft;
position = "{136, 700}";
}
);
layerId = "2214C8E2-2079-4DC2-8649-1937C1DD8804";
paths = (
{
closed = 1;
nodes = (
"363 14 OFFCURVE",
"440 17 OFFCURVE",
"477 22 CURVE SMOOTH",
"491 24 OFFCURVE",
"493 30 OFFCURVE",
"493 43 CURVE SMOOTH",
"493 49 OFFCURVE",
"490 54 OFFCURVE",
"481 53 CURVE SMOOTH",
"455 50 OFFCURVE",
"402 44 OFFCURVE",
"296 44 CURVE SMOOTH",
"214 44 OFFCURVE",
"150 47 OFFCURVE",
"103 52 CURVE",
"112 41 LINE",
"143 160 OFFCURVE",
"167 241 OFFCURVE",
"197 406 CURVE SMOOTH",
"212 489 OFFCURVE",
"233 604 OFFCURVE",
"240 671 CURVE",
"229 660 LINE",
"273 663 OFFCURVE",
"317 666 OFFCURVE",
"400 666 CURVE SMOOTH",
"495 666 OFFCURVE",
"539 662 OFFCURVE",
"591 657 CURVE SMOOTH",
"600 656 OFFCURVE",
"610 661 OFFCURVE",
"610 676 CURVE SMOOTH",
"610 682 OFFCURVE",
"606 686 OFFCURVE",
"597 687 CURVE SMOOTH",
"541 693 OFFCURVE",
"501 696 OFFCURVE",
"392 696 CURVE SMOOTH",
"329 696 OFFCURVE",
"278 695 OFFCURVE",
"212 690 CURVE SMOOTH",
"195 689 OFFCURVE",
"188 684 OFFCURVE",
"188 668 CURVE SMOOTH",
"188 662 OFFCURVE",
"191 659 OFFCURVE",
"203 659 CURVE SMOOTH",
"207 659 OFFCURVE",
"214 660 OFFCURVE",
"219 660 CURVE",
"210 670 LINE",
"203 603 OFFCURVE",
"182 490 OFFCURVE",
"168 406 CURVE SMOOTH",
"138 239 OFFCURVE",
"109 128 OFFCURVE",
"79 42 CURVE",
"94 52 LINE",
"88 53 OFFCURVE",
"75 55 OFFCURVE",
"64 55 CURVE SMOOTH",
"51 55 OFFCURVE",
"44 47 OFFCURVE",
"44 34 CURVE SMOOTH",
"44 28 OFFCURVE",
"48 25 OFFCURVE",
"58 24 CURVE SMOOTH",
"147 16 OFFCURVE",
"243 14 OFFCURVE",
"291 14 CURVE SMOOTH"
);
},
{
closed = 1;
nodes = (
"463 349 OFFCURVE",
"468 355 OFFCURVE",
"468 364 CURVE SMOOTH",
"468 376 OFFCURVE",
"465 380 OFFCURVE",
"455 380 CURVE SMOOTH",
"421 380 OFFCURVE",
"356 384 OFFCURVE",
"293 384 CURVE SMOOTH",
"243 384 OFFCURVE",
"171 387 OFFCURVE",
"135 387 CURVE SMOOTH",
"124 387 OFFCURVE",
"117 379 OFFCURVE",
"117 368 CURVE SMOOTH",
"117 361 OFFCURVE",
"121 356 OFFCURVE",
"131 356 CURVE SMOOTH",
"171 356 OFFCURVE",
"223 355 OFFCURVE",
"284 354 CURVE SMOOTH",
"361 353 OFFCURVE",
"419 349 OFFCURVE",
"451 349 CURVE SMOOTH"
);
}
);
width = 574;
},
{
anchors = (
{
name = bottom;
position = "{259, 0}";
},
{
name = ogonek;
position = "{462, 38}";
},
{
name = top;
position = "{382, 700}";
},
{
name = topleft;
position = "{133, 681}";
}
);
layerId = "AEE50E4E-1B30-4E16-A434-AC23B12A4294";
paths = (
{
closed = 1;
nodes = (
"351 12 OFFCURVE",
"428 13 OFFCURVE",
"461 20 CURVE SMOOTH",
"485 24 OFFCURVE",
"498 40 OFFCURVE",
"498 64 CURVE SMOOTH",
"498 83 OFFCURVE",
"486 93 OFFCURVE",
"461 90 CURVE SMOOTH",
"407 84 OFFCURVE",
"375 81 OFFCURVE",
"297 81 CURVE SMOOTH",
"241 81 OFFCURVE",
"172 83 OFFCURVE",
"114 89 CURVE",
"136 62 LINE",
"165 161 OFFCURVE",
"187 234 OFFCURVE",
"215 391 CURVE SMOOTH",
"231 482 OFFCURVE",
"244 570 OFFCURVE",
"256 651 CURVE",
"227 623 LINE",
"266 626 OFFCURVE",
"318 629 OFFCURVE",
"388 629 CURVE SMOOTH",
"469 629 OFFCURVE",
"521 625 OFFCURVE",
"570 621 CURVE SMOOTH",
"591 619 OFFCURVE",
"610 636 OFFCURVE",
"610 664 CURVE SMOOTH",
"610 683 OFFCURVE",
"595 686 OFFCURVE",
"580 689 CURVE SMOOTH",
"546 694 OFFCURVE",
"476 698 OFFCURVE",
"374 698 CURVE SMOOTH",
"323 698 OFFCURVE",
"249 697 OFFCURVE",
"201 692 CURVE SMOOTH",
"181 690 OFFCURVE",
"154 686 OFFCURVE",
"154 647 CURVE SMOOTH",
"154 636 OFFCURVE",
"157 622 OFFCURVE",
"170 622 CURVE SMOOTH",
"177 622 OFFCURVE",
"187 622 OFFCURVE",
"202 623 CURVE",
"181 650 LINE",
"168 564 OFFCURVE",
"148 455 OFFCURVE",
"137 392 CURVE SMOOTH",
"112 252 OFFCURVE",
"93 167 OFFCURVE",
"59 66 CURVE",
"93 90 LINE",
"74 92 OFFCURVE",
"60 92 OFFCURVE",
"50 92 CURVE SMOOTH",
"33 92 OFFCURVE",
"18 73 OFFCURVE",
"18 49 CURVE SMOOTH",
"18 35 OFFCURVE",
"25 26 OFFCURVE",
"40 24 CURVE SMOOTH",
"135 13 OFFCURVE",
"206 12 OFFCURVE",
"276 12 CURVE SMOOTH"
);
},
{
closed = 1;
nodes = (
"463 329 OFFCURVE",
"477 350 OFFCURVE",
"477 375 CURVE SMOOTH",
"477 389 OFFCURVE",
"470 399 OFFCURVE",
"453 399 CURVE SMOOTH",
"422 399 OFFCURVE",
"362 402 OFFCURVE",
"284 403 CURVE SMOOTH",
"209 404 OFFCURVE",
"175 405 OFFCURVE",
"123 405 CURVE SMOOTH",
"100 405 OFFCURVE",
"85 385 OFFCURVE",
"85 361 CURVE SMOOTH",
"85 344 OFFCURVE",
"96 335 OFFCURVE",
"115 335 CURVE SMOOTH",
"167 335 OFFCURVE",
"225 333 OFFCURVE",
"270 333 CURVE SMOOTH",
"357 333 OFFCURVE",
"401 329 OFFCURVE",
"441 329 CURVE SMOOTH"
);
}
);
width = 573;
},
{
anchors = (
{
name = bottom;
position = "{306, 0}";
},
{
name = ogonek;
position = "{507, 51}";
},
{
name = top;
position = "{429, 700}";
},
{
name = topleft;
position = "{191, 652}";
}
);
layerId = "F86CB789-B416-49E2-AD1B-BE88A4A88FF7";
paths = (
{
closed = 1;
nodes = (
"382 9 OFFCURVE",
"462 11 OFFCURVE",
"501 18 CURVE SMOOTH",
"544 27 OFFCURVE",
"567 53 OFFCURVE",
"567 97 CURVE SMOOTH",
"567 136 OFFCURVE",
"543 150 OFFCURVE",
"508 145 CURVE SMOOTH",
"458 138 OFFCURVE",
"420 136 OFFCURVE",
"343 136 CURVE SMOOTH",
"299 136 OFFCURVE",
"265 137 OFFCURVE",
"192 145 CURVE",
"233 93 LINE",
"274 213 OFFCURVE",
"281 254 OFFCURVE",
"303 382 CURVE SMOOTH",
"312 431 OFFCURVE",
"324 520 OFFCURVE",
"341 620 CURVE",
"285 567 LINE",
"319 570 OFFCURVE",
"376 574 OFFCURVE",
"441 574 CURVE SMOOTH",
"506 574 OFFCURVE",
"557 570 OFFCURVE",
"602 566 CURVE SMOOTH",
"641 563 OFFCURVE",
"670 603 OFFCURVE",
"670 646 CURVE SMOOTH",
"670 678 OFFCURVE",
"648 690 OFFCURVE",
"617 693 CURVE SMOOTH",
"585 697 OFFCURVE",
"513 701 OFFCURVE",
"418 701 CURVE SMOOTH",
"358 701 OFFCURVE",
"296 702 OFFCURVE",
"241 696 CURVE SMOOTH",
"192 691 OFFCURVE",
"158 667 OFFCURVE",
"158 608 CURVE SMOOTH",
"158 588 OFFCURVE",
"165 565 OFFCURVE",
"186 565 CURVE SMOOTH",
"196 565 OFFCURVE",
"213 566 OFFCURVE",
"237 567 CURVE",
"199 620 LINE",
"179 506 OFFCURVE",
"162 416 OFFCURVE",
"155 376 CURVE SMOOTH",
"139 285 OFFCURVE",
"134 225 OFFCURVE",
"89 103 CURVE",
"153 147 LINE",
"131 147 OFFCURVE",
"108 147 OFFCURVE",
"93 147 CURVE SMOOTH",
"57 147 OFFCURVE",
"41 105 OFFCURVE",
"41 66 CURVE SMOOTH",
"41 42 OFFCURVE",
"52 27 OFFCURVE",
"76 24 CURVE SMOOTH",
"181 10 OFFCURVE",
"241 9 OFFCURVE",
"300 9 CURVE SMOOTH"
);
},
{
closed = 1;
nodes = (
"528 300 OFFCURVE",
"550 347 OFFCURVE",
"550 386 CURVE SMOOTH",
"550 421 OFFCURVE",
"528 425 OFFCURVE",
"514 427 CURVE SMOOTH",
"477 431 OFFCURVE",
"397 431 OFFCURVE",
"323 431 CURVE SMOOTH",
"249 431 OFFCURVE",
"168 433 OFFCURVE",
"155 433 CURVE SMOOTH",
"120 433 OFFCURVE",
"97 397 OFFCURVE",
"97 347 CURVE SMOOTH",
"97 317 OFFCURVE",
"112 303 OFFCURVE",
"135 303 CURVE SMOOTH",
"173 303 OFFCURVE",
"162 303 OFFCURVE",
"311 302 CURVE SMOOTH",
"450 301 OFFCURVE",
"423 300 OFFCURVE",
"492 300 CURVE SMOOTH"
);
}
);
width = 640;
}
);
note = E;
unicode = 0045;
},
{
color = 9;
glyphname = Eacute;
lastChange = "2018-04-25 09:20:26 +0000";
layers = (
{
background = {
paths = (
{
closed = 1;
nodes = (
"554 0 LINE",
"571 179 LINE",
"544 179 LINE",
"538 124 OFFCURVE",
"520 40 OFFCURVE",
"456 40 CURVE SMOOTH",
"201 40 LINE",
"201 659 LINE",
"441 659 LINE SMOOTH",
"516 659 OFFCURVE",
"525 567 OFFCURVE",
"528 527 CURVE",
"555 527 LINE",
"555 700 LINE",
"16 700 LINE",
"16 673 LINE",
"44 673 LINE SMOOTH",
"83 673 OFFCURVE",
"103 662 OFFCURVE",
"103 637 CURVE SMOOTH",
"103 62 LINE SMOOTH",
"103 37 OFFCURVE",
"83 26 OFFCURVE",
"44 26 CURVE SMOOTH",
"16 26 LINE",
"16 0 LINE"
);
},
{
closed = 1;
nodes = (
"455 251 LINE",
"455 485 LINE",
"431 485 LINE",
"427 436 OFFCURVE",
"424 388 OFFCURVE",
"379 388 CURVE SMOOTH",
"162 388 LINE",
"162 348 LINE",
"379 348 LINE SMOOTH",
"424 348 OFFCURVE",
"427 300 OFFCURVE",
"431 251 CURVE"
);
},
{
closed = 1;
nodes = (
"398 865 LINE SMOOTH",
"420 877 OFFCURVE",
"432 890 OFFCURVE",
"432 907 CURVE SMOOTH",
"432 922 OFFCURVE",
"420 937 OFFCURVE",
"398 937 CURVE SMOOTH",
"377 937 OFFCURVE",
"362 921 OFFCURVE",
"354 914 CURVE SMOOTH",
"239 807 LINE",
"256 782 LINE"
);
}
);
};
components = (
{
name = E;
},
{
name = acutecomb;
transform = "{1, 0, 0, 1, 311, 200}";
}
);
layerId = "0B1DFD06-3317-40CA-B510-4969A0718C16";
width = 574;
},
{
background = {
paths = (
{
closed = 1;
nodes = (
"554 0 LINE",
"571 179 LINE",
"544 179 LINE",
"538 124 OFFCURVE",
"520 40 OFFCURVE",
"456 40 CURVE SMOOTH",
"201 40 LINE",
"201 659 LINE",
"441 659 LINE SMOOTH",
"516 659 OFFCURVE",
"525 567 OFFCURVE",
"528 527 CURVE",
"555 527 LINE",
"555 700 LINE",
"16 700 LINE",
"16 673 LINE",
"44 673 LINE SMOOTH",
"83 673 OFFCURVE",
"103 662 OFFCURVE",
"103 637 CURVE SMOOTH",
"103 62 LINE SMOOTH",
"103 37 OFFCURVE",
"83 26 OFFCURVE",
"44 26 CURVE SMOOTH",
"16 26 LINE",
"16 0 LINE"
);
},
{
closed = 1;
nodes = (
"455 251 LINE",
"455 485 LINE",
"431 485 LINE",
"427 436 OFFCURVE",
"424 388 OFFCURVE",
"379 388 CURVE SMOOTH",
"162 388 LINE",
"162 348 LINE",
"379 348 LINE SMOOTH",
"424 348 OFFCURVE",
"427 300 OFFCURVE",
"431 251 CURVE"
);
},
{
closed = 1;
nodes = (
"398 865 LINE SMOOTH",
"420 877 OFFCURVE",
"432 890 OFFCURVE",
"432 907 CURVE SMOOTH",
"432 922 OFFCURVE",
"420 937 OFFCURVE",
"398 937 CURVE SMOOTH",
"377 937 OFFCURVE",
"362 921 OFFCURVE",
"354 914 CURVE SMOOTH",
"239 807 LINE",
"256 782 LINE"
);
}
);
};
components = (
{
name = E;
},
{
name = acutecomb;
transform = "{1, 0, 0, 1, 348, 200}";
}
);
layerId = "2F8C22CF-EC86-44F4-AF1A-A6C7F26A0C3C";
width = 640;
},
{
components = (
{
name = E;
},
{
name = acutecomb;
transform = "{1, 0, 0, 1, 299, 200}";
}
);
layerId = "17B9D149-A542-49FB-8130-D430586D7342";
width = 573;
},
{
background = {
paths = (
{
closed = 1;
nodes = (
"554 0 LINE",
"571 179 LINE",
"544 179 LINE",
"538 124 OFFCURVE",
"520 40 OFFCURVE",
"456 40 CURVE SMOOTH",
"201 40 LINE",
"201 659 LINE",
"441 659 LINE SMOOTH",
"516 659 OFFCURVE",
"525 567 OFFCURVE",
"528 527 CURVE",
"555 527 LINE",
"555 700 LINE",
"16 700 LINE",
"16 673 LINE",
"44 673 LINE SMOOTH",
"83 673 OFFCURVE",
"103 662 OFFCURVE",
"103 637 CURVE SMOOTH",
"103 62 LINE SMOOTH",
"103 37 OFFCURVE",
"83 26 OFFCURVE",
"44 26 CURVE SMOOTH",
"16 26 LINE",
"16 0 LINE"
);
},
{
closed = 1;
nodes = (
"455 251 LINE",
"455 485 LINE",
"431 485 LINE",
"427 436 OFFCURVE",
"424 388 OFFCURVE",
"379 388 CURVE SMOOTH",
"162 388 LINE",
"162 348 LINE",
"379 348 LINE SMOOTH",
"424 348 OFFCURVE",
"427 300 OFFCURVE",
"431 251 CURVE"
);
},
{
closed = 1;
nodes = (
"398 865 LINE SMOOTH",
"420 877 OFFCURVE",
"432 890 OFFCURVE",
"432 907 CURVE SMOOTH",
"432 922 OFFCURVE",
"420 937 OFFCURVE",
"398 937 CURVE SMOOTH",
"377 937 OFFCURVE",
"362 921 OFFCURVE",
"354 914 CURVE SMOOTH",
"239 807 LINE",
"256 782 LINE"
);
}
);
};
components = (
{
name = E;
},
{
name = acutecomb;
transform = "{1, 0, 0, 1, 346, 211}";
}
);
layerId = "2214C8E2-2079-4DC2-8649-1937C1DD8804";
width = 574;
},
{
components = (
{
name = E;
},
{
name = acutecomb;
transform = "{1, 0, 0, 1, 334, 200}";
}
);
layerId = "AEE50E4E-1B30-4E16-A434-AC23B12A4294";
width = 573;
},
{
background = {
paths = (
{
closed = 1;
nodes = (
"554 0 LINE",
"571 179 LINE",
"544 179 LINE",
"538 124 OFFCURVE",
"520 40 OFFCURVE",
"456 40 CURVE SMOOTH",
"201 40 LINE",
"201 659 LINE",
"441 659 LINE SMOOTH",
"516 659 OFFCURVE",
"525 567 OFFCURVE",
"528 527 CURVE",
"555 527 LINE",
"555 700 LINE",
"16 700 LINE",
"16 673 LINE",
"44 673 LINE SMOOTH",
"83 673 OFFCURVE",
"103 662 OFFCURVE",
"103 637 CURVE SMOOTH",
"103 62 LINE SMOOTH",
"103 37 OFFCURVE",
"83 26 OFFCURVE",
"44 26 CURVE SMOOTH",
"16 26 LINE",
"16 0 LINE"
);
},
{
closed = 1;
nodes = (
"455 251 LINE",
"455 485 LINE",
"431 485 LINE",
"427 436 OFFCURVE",
"424 388 OFFCURVE",
"379 388 CURVE SMOOTH",
"162 388 LINE",
"162 348 LINE",
"379 348 LINE SMOOTH",
"424 348 OFFCURVE",
"427 300 OFFCURVE",
"431 251 CURVE"
);
},
{
closed = 1;
nodes = (
"398 865 LINE SMOOTH",
"420 877 OFFCURVE",
"432 890 OFFCURVE",
"432 907 CURVE SMOOTH",
"432 922 OFFCURVE",
"420 937 OFFCURVE",
"398 937 CURVE SMOOTH",
"377 937 OFFCURVE",
"362 921 OFFCURVE",
"354 914 CURVE SMOOTH",
"239 807 LINE",
"256 782 LINE"
);
}
);
};
components = (
{
name = E;
},
{
name = acutecomb;
transform = "{1, 0, 0, 1, 387, 213}";
}
);
layerId = "F86CB789-B416-49E2-AD1B-BE88A4A88FF7";
width = 640;
}
);
note = Eacute;
unicode = 00C9;
},
{
color = 9;
glyphname = Ebreve;
lastChange = "2018-03-29 18:43:48 +0000";
layers = (
{
background = {
paths = (
{
closed = 1;
nodes = (
"554 0 LINE",
"571 179 LINE",
"544 179 LINE",
"538 124 OFFCURVE",
"520 40 OFFCURVE",
"456 40 CURVE SMOOTH",
"201 40 LINE",
"201 659 LINE",
"441 659 LINE SMOOTH",
"516 659 OFFCURVE",
"525 567 OFFCURVE",
"528 527 CURVE",
"555 527 LINE",
"555 700 LINE",
"16 700 LINE",
"16 673 LINE",
"44 673 LINE SMOOTH",
"83 673 OFFCURVE",
"103 662 OFFCURVE",
"103 637 CURVE SMOOTH",
"103 62 LINE SMOOTH",
"103 37 OFFCURVE",
"83 26 OFFCURVE",
"44 26 CURVE SMOOTH",
"16 26 LINE",
"16 0 LINE"
);
},
{
closed = 1;
nodes = (
"455 251 LINE",
"455 485 LINE",
"431 485 LINE",
"427 436 OFFCURVE",
"424 388 OFFCURVE",
"379 388 CURVE SMOOTH",
"162 388 LINE",
"162 348 LINE",
"379 348 LINE SMOOTH",
"424 348 OFFCURVE",
"427 300 OFFCURVE",
"431 251 CURVE"
);
},
{
closed = 1;
nodes = (
"432 776 OFFCURVE",
"474 832 OFFCURVE",
"478 907 CURVE",
"445 907 LINE",
"439 848 OFFCURVE",
"397 822 OFFCURVE",
"333 822 CURVE SMOOTH",
"269 822 OFFCURVE",
"226 848 OFFCURVE",
"219 907 CURVE",
"186 907 LINE",
"190 829 OFFCURVE",
"232 776 OFFCURVE",
"333 776 CURVE SMOOTH"
);
}
);
};
components = (
{
name = E;
},
{
name = brevecomb;
transform = "{1, 0, 0, 1, 311, 200}";
}
);
layerId = "0B1DFD06-3317-40CA-B510-4969A0718C16";
width = 574;
},
{
background = {
paths = (
{
closed = 1;
nodes = (
"554 0 LINE",
"571 179 LINE",
"544 179 LINE",
"538 124 OFFCURVE",
"520 40 OFFCURVE",
"456 40 CURVE SMOOTH",
"201 40 LINE",
"201 659 LINE",
"441 659 LINE SMOOTH",
"516 659 OFFCURVE",
"525 567 OFFCURVE",
"528 527 CURVE",
"555 527 LINE",
"555 700 LINE",
"16 700 LINE",
"16 673 LINE",
"44 673 LINE SMOOTH",
"83 673 OFFCURVE",
"103 662 OFFCURVE",
"103 637 CURVE SMOOTH",
"103 62 LINE SMOOTH",
"103 37 OFFCURVE",
"83 26 OFFCURVE",
"44 26 CURVE SMOOTH",
"16 26 LINE",
"16 0 LINE"
);
},
{
closed = 1;
nodes = (
"455 251 LINE",
"455 485 LINE",
"431 485 LINE",
"427 436 OFFCURVE",
"424 388 OFFCURVE",
"379 388 CURVE SMOOTH",
"162 388 LINE",
"162 348 LINE",
"379 348 LINE SMOOTH",
"424 348 OFFCURVE",
"427 300 OFFCURVE",
"431 251 CURVE"
);
},
{
closed = 1;
nodes = (
"432 776 OFFCURVE",
"474 832 OFFCURVE",
"478 907 CURVE",
"445 907 LINE",
"439 848 OFFCURVE",
"397 822 OFFCURVE",
"333 822 CURVE SMOOTH",
"269 822 OFFCURVE",
"226 848 OFFCURVE",
"219 907 CURVE",
"186 907 LINE",
"190 829 OFFCURVE",
"232 776 OFFCURVE",
"333 776 CURVE SMOOTH"
);
}
);
};
components = (
{
name = E;
},
{
name = brevecomb;
transform = "{1, 0, 0, 1, 348, 200}";
}
);
layerId = "2F8C22CF-EC86-44F4-AF1A-A6C7F26A0C3C";
width = 640;
},
{
components = (
{
name = E;
},
{
name = brevecomb;
transform = "{1, 0, 0, 1, 301, 200}";
}
);
layerId = "17B9D149-A542-49FB-8130-D430586D7342";
width = 573;
},
{
background = {
paths = (
{
closed = 1;
nodes = (
"554 0 LINE",
"571 179 LINE",
"544 179 LINE",
"538 124 OFFCURVE",
"520 40 OFFCURVE",
"456 40 CURVE SMOOTH",
"201 40 LINE",
"201 659 LINE",
"441 659 LINE SMOOTH",
"516 659 OFFCURVE",
"525 567 OFFCURVE",
"528 527 CURVE",
"555 527 LINE",
"555 700 LINE",
"16 700 LINE",
"16 673 LINE",
"44 673 LINE SMOOTH",
"83 673 OFFCURVE",
"103 662 OFFCURVE",
"103 637 CURVE SMOOTH",
"103 62 LINE SMOOTH",
"103 37 OFFCURVE",
"83 26 OFFCURVE",
"44 26 CURVE SMOOTH",
"16 26 LINE",
"16 0 LINE"
);
},
{
closed = 1;
nodes = (
"455 251 LINE",
"455 485 LINE",
"431 485 LINE",
"427 436 OFFCURVE",
"424 388 OFFCURVE",
"379 388 CURVE SMOOTH",
"162 388 LINE",
"162 348 LINE",
"379 348 LINE SMOOTH",
"424 348 OFFCURVE",
"427 300 OFFCURVE",
"431 251 CURVE"
);
},
{
closed = 1;
nodes = (
"432 776 OFFCURVE",
"474 832 OFFCURVE",
"478 907 CURVE",
"445 907 LINE",
"439 848 OFFCURVE",
"397 822 OFFCURVE",
"333 822 CURVE SMOOTH",
"269 822 OFFCURVE",
"226 848 OFFCURVE",
"219 907 CURVE",
"186 907 LINE",
"190 829 OFFCURVE",
"232 776 OFFCURVE",
"333 776 CURVE SMOOTH"
);
}
);
};
components = (
{
name = E;
},
{
name = brevecomb;
transform = "{1, 0, 0, 1, 346, 200}";
}
);
layerId = "2214C8E2-2079-4DC2-8649-1937C1DD8804";
width = 574;
},
{
components = (
{
name = E;
},
{
name = brevecomb;
transform = "{1, 0, 0, 1, 336, 200}";
}
);
layerId = "AEE50E4E-1B30-4E16-A434-AC23B12A4294";
width = 573;
},
{
background = {
paths = (
{
closed = 1;
nodes = (
"554 0 LINE",
"571 179 LINE",
"544 179 LINE",
"538 124 OFFCURVE",
"520 40 OFFCURVE",
"456 40 CURVE SMOOTH",
"201 40 LINE",
"201 659 LINE",
"441 659 LINE SMOOTH",
"516 659 OFFCURVE",
"525 567 OFFCURVE",
"528 527 CURVE",
"555 527 LINE",
"555 700 LINE",
"16 700 LINE",
"16 673 LINE",
"44 673 LINE SMOOTH",
"83 673 OFFCURVE",
"103 662 OFFCURVE",
"103 637 CURVE SMOOTH",
"103 62 LINE SMOOTH",
"103 37 OFFCURVE",
"83 26 OFFCURVE",
"44 26 CURVE SMOOTH",
"16 26 LINE",
"16 0 LINE"
);
},
{
closed = 1;
nodes = (
"455 251 LINE",
"455 485 LINE",
"431 485 LINE",
"427 436 OFFCURVE",
"424 388 OFFCURVE",
"379 388 CURVE SMOOTH",
"162 388 LINE",
"162 348 LINE",
"379 348 LINE SMOOTH",
"424 348 OFFCURVE",
"427 300 OFFCURVE",
"431 251 CURVE"
);
},
{
closed = 1;
nodes = (
"432 776 OFFCURVE",
"474 832 OFFCURVE",
"478 907 CURVE",
"445 907 LINE",
"439 848 OFFCURVE",
"397 822 OFFCURVE",
"333 822 CURVE SMOOTH",
"269 822 OFFCURVE",
"226 848 OFFCURVE",
"219 907 CURVE",
"186 907 LINE",
"190 829 OFFCURVE",
"232 776 OFFCURVE",
"333 776 CURVE SMOOTH"
);
}
);
};
components = (
{
name = E;
},
{
name = brevecomb;
transform = "{1, 0, 0, 1, 383, 200}";
}
);
layerId = "F86CB789-B416-49E2-AD1B-BE88A4A88FF7";
width = 640;
}
);
note = Ebreve;
unicode = 0114;
},
{
color = 9;
glyphname = Ecaron;
lastChange = "2018-03-29 18:43:48 +0000";
layers = (
{
background = {
paths = (
{
closed = 1;
nodes = (
"554 0 LINE",
"571 179 LINE",
"544 179 LINE",
"538 124 OFFCURVE",
"520 40 OFFCURVE",
"456 40 CURVE SMOOTH",
"201 40 LINE",
"201 659 LINE",
"441 659 LINE SMOOTH",
"516 659 OFFCURVE",
"525 567 OFFCURVE",
"528 527 CURVE",
"555 527 LINE",
"555 700 LINE",
"16 700 LINE",
"16 673 LINE",
"44 673 LINE SMOOTH",
"83 673 OFFCURVE",
"103 662 OFFCURVE",
"103 637 CURVE SMOOTH",
"103 62 LINE SMOOTH",
"103 37 OFFCURVE",
"83 26 OFFCURVE",
"44 26 CURVE SMOOTH",
"16 26 LINE",
"16 0 LINE"
);
},
{
closed = 1;
nodes = (
"455 251 LINE",
"455 485 LINE",
"431 485 LINE",
"427 436 OFFCURVE",
"424 388 OFFCURVE",
"379 388 CURVE SMOOTH",
"162 388 LINE",
"162 348 LINE",
"379 348 LINE SMOOTH",
"424 348 OFFCURVE",
"427 300 OFFCURVE",
"431 251 CURVE"
);
},
{
closed = 1;
nodes = (
"357 782 LINE",
"481 911 LINE",
"462 932 LINE",
"354 847 LINE",
"346 840 OFFCURVE",
"337 836 OFFCURVE",
"331 836 CURVE SMOOTH",
"325 836 OFFCURVE",
"317 840 OFFCURVE",
"307 847 CURVE",
"199 932 LINE",
"180 911 LINE",
"304 782 LINE"
);
}
);
};
components = (
{
name = E;
},
{
name = caroncomb;
transform = "{1, 0, 0, 1, 311, 200}";
}
);
layerId = "0B1DFD06-3317-40CA-B510-4969A0718C16";
width = 574;
},
{
background = {
paths = (
{
closed = 1;
nodes = (
"554 0 LINE",
"571 179 LINE",
"544 179 LINE",
"538 124 OFFCURVE",
"520 40 OFFCURVE",
"456 40 CURVE SMOOTH",
"201 40 LINE",
"201 659 LINE",
"441 659 LINE SMOOTH",
"516 659 OFFCURVE",
"525 567 OFFCURVE",
"528 527 CURVE",
"555 527 LINE",
"555 700 LINE",
"16 700 LINE",
"16 673 LINE",
"44 673 LINE SMOOTH",
"83 673 OFFCURVE",
"103 662 OFFCURVE",
"103 637 CURVE SMOOTH",
"103 62 LINE SMOOTH",
"103 37 OFFCURVE",
"83 26 OFFCURVE",
"44 26 CURVE SMOOTH",
"16 26 LINE",
"16 0 LINE"
);
},
{
closed = 1;
nodes = (
"455 251 LINE",
"455 485 LINE",
"431 485 LINE",
"427 436 OFFCURVE",
"424 388 OFFCURVE",
"379 388 CURVE SMOOTH",
"162 388 LINE",
"162 348 LINE",
"379 348 LINE SMOOTH",
"424 348 OFFCURVE",
"427 300 OFFCURVE",
"431 251 CURVE"
);
},
{
closed = 1;
nodes = (
"357 782 LINE",
"481 911 LINE",
"462 932 LINE",
"354 847 LINE",
"346 840 OFFCURVE",
"337 836 OFFCURVE",
"331 836 CURVE SMOOTH",
"325 836 OFFCURVE",
"317 840 OFFCURVE",
"307 847 CURVE",
"199 932 LINE",
"180 911 LINE",
"304 782 LINE"
);
}
);
};
components = (
{
name = E;
},
{
name = caroncomb;
transform = "{1, 0, 0, 1, 348, 200}";
}
);
layerId = "2F8C22CF-EC86-44F4-AF1A-A6C7F26A0C3C";
width = 640;
},
{
components = (
{
name = E;
},
{
name = caroncomb;
transform = "{1, 0, 0, 1, 301, 200}";
}
);
layerId = "17B9D149-A542-49FB-8130-D430586D7342";
width = 573;
},
{
background = {
paths = (
{
closed = 1;
nodes = (
"554 0 LINE",
"571 179 LINE",
"544 179 LINE",
"538 124 OFFCURVE",
"520 40 OFFCURVE",
"456 40 CURVE SMOOTH",
"201 40 LINE",
"201 659 LINE",
"441 659 LINE SMOOTH",
"516 659 OFFCURVE",
"525 567 OFFCURVE",
"528 527 CURVE",
"555 527 LINE",
"555 700 LINE",
"16 700 LINE",
"16 673 LINE",
"44 673 LINE SMOOTH",
"83 673 OFFCURVE",
"103 662 OFFCURVE",
"103 637 CURVE SMOOTH",
"103 62 LINE SMOOTH",
"103 37 OFFCURVE",
"83 26 OFFCURVE",
"44 26 CURVE SMOOTH",
"16 26 LINE",
"16 0 LINE"
);
},
{
closed = 1;
nodes = (
"455 251 LINE",
"455 485 LINE",
"431 485 LINE",
"427 436 OFFCURVE",
"424 388 OFFCURVE",
"379 388 CURVE SMOOTH",
"162 388 LINE",
"162 348 LINE",
"379 348 LINE SMOOTH",
"424 348 OFFCURVE",
"427 300 OFFCURVE",
"431 251 CURVE"
);
},
{
closed = 1;
nodes = (
"357 782 LINE",
"481 911 LINE",
"462 932 LINE",
"354 847 LINE",
"346 840 OFFCURVE",
"337 836 OFFCURVE",
"331 836 CURVE SMOOTH",
"325 836 OFFCURVE",
"317 840 OFFCURVE",
"307 847 CURVE",
"199 932 LINE",
"180 911 LINE",
"304 782 LINE"
);
}
);
};
components = (
{
name = E;
},
{
name = caroncomb;
transform = "{1, 0, 0, 1, 346, 200}";
}
);
layerId = "2214C8E2-2079-4DC2-8649-1937C1DD8804";
width = 574;
},
{
components = (
{
name = E;
},
{
name = caroncomb;
transform = "{1, 0, 0, 1, 336, 200}";
}
);
layerId = "AEE50E4E-1B30-4E16-A434-AC23B12A4294";
width = 573;
},
{
background = {
paths = (
{
closed = 1;
nodes = (
"554 0 LINE",
"571 179 LINE",
"544 179 LINE",
"538 124 OFFCURVE",
"520 40 OFFCURVE",
"456 40 CURVE SMOOTH",
"201 40 LINE",
"201 659 LINE",
"441 659 LINE SMOOTH",
"516 659 OFFCURVE",
"525 567 OFFCURVE",
"528 527 CURVE",
"555 527 LINE",
"555 700 LINE",
"16 700 LINE",
"16 673 LINE",
"44 673 LINE SMOOTH",
"83 673 OFFCURVE",
"103 662 OFFCURVE",
"103 637 CURVE SMOOTH",
"103 62 LINE SMOOTH",
"103 37 OFFCURVE",
"83 26 OFFCURVE",
"44 26 CURVE SMOOTH",
"16 26 LINE",
"16 0 LINE"
);
},
{
closed = 1;
nodes = (
"455 251 LINE",
"455 485 LINE",
"431 485 LINE",
"427 436 OFFCURVE",
"424 388 OFFCURVE",
"379 388 CURVE SMOOTH",
"162 388 LINE",
"162 348 LINE",
"379 348 LINE SMOOTH",
"424 348 OFFCURVE",
"427 300 OFFCURVE",
"431 251 CURVE"
);
},
{
closed = 1;
nodes = (
"357 782 LINE",
"481 911 LINE",
"462 932 LINE",
"354 847 LINE",
"346 840 OFFCURVE",
"337 836 OFFCURVE",
"331 836 CURVE SMOOTH",
"325 836 OFFCURVE",
"317 840 OFFCURVE",
"307 847 CURVE",
"199 932 LINE",
"180 911 LINE",
"304 782 LINE"
);
}
);
};
components = (
{
name = E;
},
{
name = caroncomb;
transform = "{1, 0, 0, 1, 383, 200}";
}
);
layerId = "F86CB789-B416-49E2-AD1B-BE88A4A88FF7";
width = 640;
}
);
note = Ecaron;
unicode = 011A;
},
{
color = 9;
glyphname = Ecircumflex;
lastChange = "2018-03-29 18:43:48 +0000";
layers = (
{
background = {
paths = (
{
closed = 1;
nodes = (
"554 0 LINE",
"571 179 LINE",
"544 179 LINE",
"538 124 OFFCURVE",
"520 40 OFFCURVE",
"456 40 CURVE SMOOTH",
"201 40 LINE",
"201 659 LINE",
"441 659 LINE SMOOTH",
"516 659 OFFCURVE",
"525 567 OFFCURVE",
"528 527 CURVE",
"555 527 LINE",
"555 700 LINE",
"16 700 LINE",
"16 673 LINE",
"44 673 LINE SMOOTH",
"83 673 OFFCURVE",
"103 662 OFFCURVE",
"103 637 CURVE SMOOTH",
"103 62 LINE SMOOTH",
"103 37 OFFCURVE",
"83 26 OFFCURVE",
"44 26 CURVE SMOOTH",
"16 26 LINE",
"16 0 LINE"
);
},
{
closed = 1;
nodes = (
"455 251 LINE",
"455 485 LINE",
"431 485 LINE",
"427 436 OFFCURVE",
"424 388 OFFCURVE",
"379 388 CURVE SMOOTH",
"162 388 LINE",
"162 348 LINE",
"379 348 LINE SMOOTH",
"424 348 OFFCURVE",
"427 300 OFFCURVE",
"431 251 CURVE"
);
},
{
closed = 1;
nodes = (
"304 868 LINE SMOOTH",
"312 874 OFFCURVE",
"322 879 OFFCURVE",
"328 879 CURVE SMOOTH",
"334 879 OFFCURVE",
"342 874 OFFCURVE",
"351 868 CURVE",
"459 782 LINE",
"478 803 LINE",
"354 932 LINE",
"301 932 LINE",
"177 803 LINE",
"196 782 LINE"
);
}
);
};
components = (
{
name = E;
},
{
name = circumflexcomb;
transform = "{1, 0, 0, 1, 311, 200}";
}
);
layerId = "0B1DFD06-3317-40CA-B510-4969A0718C16";
width = 574;
},
{
background = {
paths = (
{
closed = 1;
nodes = (
"554 0 LINE",
"571 179 LINE",
"544 179 LINE",
"538 124 OFFCURVE",
"520 40 OFFCURVE",
"456 40 CURVE SMOOTH",
"201 40 LINE",
"201 659 LINE",
"441 659 LINE SMOOTH",
"516 659 OFFCURVE",
"525 567 OFFCURVE",
"528 527 CURVE",
"555 527 LINE",
"555 700 LINE",
"16 700 LINE",
"16 673 LINE",
"44 673 LINE SMOOTH",
"83 673 OFFCURVE",
"103 662 OFFCURVE",
"103 637 CURVE SMOOTH",
"103 62 LINE SMOOTH",
"103 37 OFFCURVE",
"83 26 OFFCURVE",
"44 26 CURVE SMOOTH",
"16 26 LINE",
"16 0 LINE"
);
},
{
closed = 1;
nodes = (
"455 251 LINE",
"455 485 LINE",
"431 485 LINE",
"427 436 OFFCURVE",
"424 388 OFFCURVE",
"379 388 CURVE SMOOTH",
"162 388 LINE",
"162 348 LINE",
"379 348 LINE SMOOTH",
"424 348 OFFCURVE",
"427 300 OFFCURVE",
"431 251 CURVE"
);
},
{
closed = 1;
nodes = (
"304 868 LINE SMOOTH",
"312 874 OFFCURVE",
"322 879 OFFCURVE",
"328 879 CURVE SMOOTH",
"334 879 OFFCURVE",
"342 874 OFFCURVE",
"351 868 CURVE",
"459 782 LINE",
"478 803 LINE",
"354 932 LINE",
"301 932 LINE",
"177 803 LINE",
"196 782 LINE"
);
}
);
};
components = (
{
name = E;
},
{
name = circumflexcomb;
transform = "{1, 0, 0, 1, 348, 200}";
}
);
layerId = "2F8C22CF-EC86-44F4-AF1A-A6C7F26A0C3C";
width = 640;
},
{
components = (
{
name = E;
},
{
name = circumflexcomb;
transform = "{1, 0, 0, 1, 301, 200}";
}
);
layerId = "17B9D149-A542-49FB-8130-D430586D7342";
width = 573;
},
{
background = {
paths = (
{
closed = 1;
nodes = (
"554 0 LINE",
"571 179 LINE",
"544 179 LINE",
"538 124 OFFCURVE",
"520 40 OFFCURVE",
"456 40 CURVE SMOOTH",
"201 40 LINE",
"201 659 LINE",
"441 659 LINE SMOOTH",
"516 659 OFFCURVE",
"525 567 OFFCURVE",
"528 527 CURVE",
"555 527 LINE",
"555 700 LINE",
"16 700 LINE",
"16 673 LINE",
"44 673 LINE SMOOTH",
"83 673 OFFCURVE",
"103 662 OFFCURVE",
"103 637 CURVE SMOOTH",
"103 62 LINE SMOOTH",
"103 37 OFFCURVE",
"83 26 OFFCURVE",
"44 26 CURVE SMOOTH",
"16 26 LINE",
"16 0 LINE"
);
},
{
closed = 1;
nodes = (
"455 251 LINE",
"455 485 LINE",
"431 485 LINE",
"427 436 OFFCURVE",
"424 388 OFFCURVE",
"379 388 CURVE SMOOTH",
"162 388 LINE",
"162 348 LINE",
"379 348 LINE SMOOTH",
"424 348 OFFCURVE",
"427 300 OFFCURVE",
"431 251 CURVE"
);
},
{
closed = 1;
nodes = (
"304 868 LINE SMOOTH",
"312 874 OFFCURVE",
"322 879 OFFCURVE",
"328 879 CURVE SMOOTH",
"334 879 OFFCURVE",
"342 874 OFFCURVE",
"351 868 CURVE",
"459 782 LINE",
"478 803 LINE",
"354 932 LINE",
"301 932 LINE",
"177 803 LINE",
"196 782 LINE"
);
}
);
};
components = (
{
name = E;
},
{
name = circumflexcomb;
transform = "{1, 0, 0, 1, 346, 200}";
}
);
layerId = "2214C8E2-2079-4DC2-8649-1937C1DD8804";
width = 574;
},
{
components = (
{
name = E;
},
{
name = circumflexcomb;
transform = "{1, 0, 0, 1, 336, 200}";
}
);
layerId = "AEE50E4E-1B30-4E16-A434-AC23B12A4294";
width = 573;
},
{
background = {
paths = (
{
closed = 1;
nodes = (
"554 0 LINE",
"571 179 LINE",
"544 179 LINE",
"538 124 OFFCURVE",
"520 40 OFFCURVE",
"456 40 CURVE SMOOTH",
"201 40 LINE",
"201 659 LINE",
"441 659 LINE SMOOTH",
"516 659 OFFCURVE",
"525 567 OFFCURVE",
"528 527 CURVE",
"555 527 LINE",
"555 700 LINE",
"16 700 LINE",
"16 673 LINE",
"44 673 LINE SMOOTH",
"83 673 OFFCURVE",
"103 662 OFFCURVE",
"103 637 CURVE SMOOTH",
"103 62 LINE SMOOTH",
"103 37 OFFCURVE",
"83 26 OFFCURVE",
"44 26 CURVE SMOOTH",
"16 26 LINE",
"16 0 LINE"
);
},
{
closed = 1;
nodes = (
"455 251 LINE",
"455 485 LINE",
"431 485 LINE",
"427 436 OFFCURVE",
"424 388 OFFCURVE",
"379 388 CURVE SMOOTH",
"162 388 LINE",
"162 348 LINE",
"379 348 LINE SMOOTH",
"424 348 OFFCURVE",
"427 300 OFFCURVE",
"431 251 CURVE"
);
},
{
closed = 1;
nodes = (
"304 868 LINE SMOOTH",
"312 874 OFFCURVE",
"322 879 OFFCURVE",
"328 879 CURVE SMOOTH",
"334 879 OFFCURVE",
"342 874 OFFCURVE",
"351 868 CURVE",
"459 782 LINE",
"478 803 LINE",
"354 932 LINE",
"301 932 LINE",
"177 803 LINE",
"196 782 LINE"
);
}
);
};
components = (
{
name = E;
},
{
name = circumflexcomb;
transform = "{1, 0, 0, 1, 383, 200}";
}
);
layerId = "F86CB789-B416-49E2-AD1B-BE88A4A88FF7";
width = 640;
}
);
note = Ecircumflex;
unicode = 00CA;
},
{
color = 9;
glyphname = Ecircumflexacute;
lastChange = "2018-03-30 17:40:44 +0000";
layers = (
{
background = {
paths = (
{
closed = 1;
nodes = (
"554 0 LINE",
"571 179 LINE",
"544 179 LINE",
"538 124 OFFCURVE",
"520 40 OFFCURVE",
"456 40 CURVE SMOOTH",
"201 40 LINE",
"201 659 LINE",
"441 659 LINE SMOOTH",
"516 659 OFFCURVE",
"525 567 OFFCURVE",
"528 527 CURVE",
"555 527 LINE",
"555 700 LINE",
"16 700 LINE",
"16 673 LINE",
"44 673 LINE SMOOTH",
"83 673 OFFCURVE",
"103 662 OFFCURVE",
"103 637 CURVE SMOOTH",
"103 62 LINE SMOOTH",
"103 37 OFFCURVE",
"83 26 OFFCURVE",
"44 26 CURVE SMOOTH",
"16 26 LINE",
"16 0 LINE"
);
},
{
closed = 1;
nodes = (
"455 251 LINE",
"455 485 LINE",
"431 485 LINE",
"427 436 OFFCURVE",
"424 388 OFFCURVE",
"379 388 CURVE SMOOTH",
"162 388 LINE",
"162 348 LINE",
"379 348 LINE SMOOTH",
"424 348 OFFCURVE",
"427 300 OFFCURVE",
"431 251 CURVE"
);
},
{
closed = 1;
nodes = (
"290 862 LINE SMOOTH",
"300 870 OFFCURVE",
"310 878 OFFCURVE",
"318 878 CURVE SMOOTH",
"324 878 OFFCURVE",
"332 873 OFFCURVE",
"341 867 CURVE",
"447 781 LINE",
"466 803 LINE",
"344 932 LINE",
"293 932 LINE",
"171 803 LINE",
"189 781 LINE"
);
},
{
closed = 1;
nodes = (
"555 960 LINE SMOOTH",
"578 972 OFFCURVE",
"591 988 OFFCURVE",
"591 1003 CURVE SMOOTH",
"591 1017 OFFCURVE",
"580 1034 OFFCURVE",
"557 1034 CURVE SMOOTH",
"538 1034 OFFCURVE",
"521 1018 OFFCURVE",
"511 1008 CURVE SMOOTH",
"415 915 LINE",
"433 893 LINE"
);
}
);
};
components = (
{
name = E;
},
{
name = circumflex_acute;
transform = "{1, 0, 0, 1, 561, 200}";
}
);
layerId = "0B1DFD06-3317-40CA-B510-4969A0718C16";
width = 574;
},
{
background = {
paths = (
{
closed = 1;
nodes = (
"554 0 LINE",
"571 179 LINE",
"544 179 LINE",
"538 124 OFFCURVE",
"520 40 OFFCURVE",
"456 40 CURVE SMOOTH",
"201 40 LINE",
"201 659 LINE",
"441 659 LINE SMOOTH",
"516 659 OFFCURVE",
"525 567 OFFCURVE",
"528 527 CURVE",
"555 527 LINE",
"555 700 LINE",
"16 700 LINE",
"16 673 LINE",
"44 673 LINE SMOOTH",
"83 673 OFFCURVE",
"103 662 OFFCURVE",
"103 637 CURVE SMOOTH",
"103 62 LINE SMOOTH",
"103 37 OFFCURVE",
"83 26 OFFCURVE",
"44 26 CURVE SMOOTH",
"16 26 LINE",
"16 0 LINE"
);
},
{
closed = 1;
nodes = (
"455 251 LINE",
"455 485 LINE",
"431 485 LINE",
"427 436 OFFCURVE",
"424 388 OFFCURVE",
"379 388 CURVE SMOOTH",
"162 388 LINE",
"162 348 LINE",
"379 348 LINE SMOOTH",
"424 348 OFFCURVE",
"427 300 OFFCURVE",
"431 251 CURVE"
);
},
{
closed = 1;
nodes = (
"290 862 LINE SMOOTH",
"300 870 OFFCURVE",
"310 878 OFFCURVE",
"318 878 CURVE SMOOTH",
"324 878 OFFCURVE",
"332 873 OFFCURVE",
"341 867 CURVE",
"447 781 LINE",
"466 803 LINE",
"344 932 LINE",
"293 932 LINE",
"171 803 LINE",
"189 781 LINE"
);
},
{
closed = 1;
nodes = (
"555 960 LINE SMOOTH",
"578 972 OFFCURVE",
"591 988 OFFCURVE",
"591 1003 CURVE SMOOTH",
"591 1017 OFFCURVE",
"580 1034 OFFCURVE",
"557 1034 CURVE SMOOTH",
"538 1034 OFFCURVE",
"521 1018 OFFCURVE",
"511 1008 CURVE SMOOTH",
"415 915 LINE",
"433 893 LINE"
);
}
);
};
components = (
{
name = E;
},
{
name = circumflex_acute;
transform = "{1, 0, 0, 1, 599, 200}";
}
);
layerId = "2F8C22CF-EC86-44F4-AF1A-A6C7F26A0C3C";
width = 640;
},
{
components = (
{
name = E;
},
{
name = circumflex_acute;
transform = "{1, 0, 0, 1, 551, 200}";
}
);
layerId = "17B9D149-A542-49FB-8130-D430586D7342";
width = 573;
},
{
background = {
paths = (
{
closed = 1;
nodes = (
"554 0 LINE",
"571 179 LINE",
"544 179 LINE",
"538 124 OFFCURVE",
"520 40 OFFCURVE",
"456 40 CURVE SMOOTH",
"201 40 LINE",
"201 659 LINE",
"441 659 LINE SMOOTH",
"516 659 OFFCURVE",
"525 567 OFFCURVE",
"528 527 CURVE",
"555 527 LINE",
"555 700 LINE",
"16 700 LINE",
"16 673 LINE",
"44 673 LINE SMOOTH",
"83 673 OFFCURVE",
"103 662 OFFCURVE",
"103 637 CURVE SMOOTH",
"103 62 LINE SMOOTH",
"103 37 OFFCURVE",
"83 26 OFFCURVE",
"44 26 CURVE SMOOTH",
"16 26 LINE",
"16 0 LINE"
);
},
{
closed = 1;
nodes = (
"455 251 LINE",
"455 485 LINE",
"431 485 LINE",
"427 436 OFFCURVE",
"424 388 OFFCURVE",
"379 388 CURVE SMOOTH",
"162 388 LINE",
"162 348 LINE",
"379 348 LINE SMOOTH",
"424 348 OFFCURVE",
"427 300 OFFCURVE",
"431 251 CURVE"
);
},
{
closed = 1;
nodes = (
"290 862 LINE SMOOTH",
"300 870 OFFCURVE",
"310 878 OFFCURVE",
"318 878 CURVE SMOOTH",
"324 878 OFFCURVE",
"332 873 OFFCURVE",
"341 867 CURVE",
"447 781 LINE",
"466 803 LINE",
"344 932 LINE",
"293 932 LINE",
"171 803 LINE",
"189 781 LINE"
);
},
{
closed = 1;
nodes = (
"555 960 LINE SMOOTH",
"578 972 OFFCURVE",
"591 988 OFFCURVE",
"591 1003 CURVE SMOOTH",
"591 1017 OFFCURVE",
"580 1034 OFFCURVE",
"557 1034 CURVE SMOOTH",
"538 1034 OFFCURVE",
"521 1018 OFFCURVE",
"511 1008 CURVE SMOOTH",
"415 915 LINE",
"433 893 LINE"
);
}
);
};
components = (
{
name = E;
},
{
name = circumflex_acute;
transform = "{1, 0, 0, 1, 596, 200}";
}
);
layerId = "2214C8E2-2079-4DC2-8649-1937C1DD8804";
width = 574;
},
{
components = (
{
name = E;
},
{
name = circumflex_acute;
transform = "{1, 0, 0, 1, 586, 200}";
}
);
layerId = "AEE50E4E-1B30-4E16-A434-AC23B12A4294";
width = 573;
},
{
background = {
paths = (
{
closed = 1;
nodes = (
"554 0 LINE",
"571 179 LINE",
"544 179 LINE",
"538 124 OFFCURVE",
"520 40 OFFCURVE",
"456 40 CURVE SMOOTH",
"201 40 LINE",
"201 659 LINE",
"441 659 LINE SMOOTH",
"516 659 OFFCURVE",
"525 567 OFFCURVE",
"528 527 CURVE",
"555 527 LINE",
"555 700 LINE",
"16 700 LINE",
"16 673 LINE",
"44 673 LINE SMOOTH",
"83 673 OFFCURVE",
"103 662 OFFCURVE",
"103 637 CURVE SMOOTH",
"103 62 LINE SMOOTH",
"103 37 OFFCURVE",
"83 26 OFFCURVE",
"44 26 CURVE SMOOTH",
"16 26 LINE",
"16 0 LINE"
);
},
{
closed = 1;
nodes = (
"455 251 LINE",
"455 485 LINE",
"431 485 LINE",
"427 436 OFFCURVE",
"424 388 OFFCURVE",
"379 388 CURVE SMOOTH",
"162 388 LINE",
"162 348 LINE",
"379 348 LINE SMOOTH",
"424 348 OFFCURVE",
"427 300 OFFCURVE",
"431 251 CURVE"
);
},
{
closed = 1;
nodes = (
"290 862 LINE SMOOTH",
"300 870 OFFCURVE",
"310 878 OFFCURVE",
"318 878 CURVE SMOOTH",
"324 878 OFFCURVE",
"332 873 OFFCURVE",
"341 867 CURVE",
"447 781 LINE",
"466 803 LINE",
"344 932 LINE",
"293 932 LINE",
"171 803 LINE",
"189 781 LINE"
);
},
{
closed = 1;
nodes = (
"555 960 LINE SMOOTH",
"578 972 OFFCURVE",
"591 988 OFFCURVE",
"591 1003 CURVE SMOOTH",
"591 1017 OFFCURVE",
"580 1034 OFFCURVE",
"557 1034 CURVE SMOOTH",
"538 1034 OFFCURVE",
"521 1018 OFFCURVE",
"511 1008 CURVE SMOOTH",
"415 915 LINE",
"433 893 LINE"
);
}
);
};
components = (
{
name = E;
},
{
name = circumflex_acute;
transform = "{1, 0, 0, 1, 634, 200}";
}
);
layerId = "F86CB789-B416-49E2-AD1B-BE88A4A88FF7";
width = 640;
}
);
note = Ecircumflexacute;
unicode = 1EBE;
},
{
color = 9;
glyphname = Ecircumflexdotbelow;
lastChange = "2018-03-29 18:43:48 +0000";
layers = (
{
background = {
paths = (
{
closed = 1;
nodes = (
"554 0 LINE",
"571 179 LINE",
"544 179 LINE",
"538 124 OFFCURVE",
"520 40 OFFCURVE",
"456 40 CURVE SMOOTH",
"201 40 LINE",
"201 659 LINE",
"441 659 LINE SMOOTH",
"516 659 OFFCURVE",
"525 567 OFFCURVE",
"528 527 CURVE",
"555 527 LINE",
"555 700 LINE",
"16 700 LINE",
"16 673 LINE",
"44 673 LINE SMOOTH",
"83 673 OFFCURVE",
"103 662 OFFCURVE",
"103 637 CURVE SMOOTH",
"103 62 LINE SMOOTH",
"103 37 OFFCURVE",
"83 26 OFFCURVE",
"44 26 CURVE SMOOTH",
"16 26 LINE",
"16 0 LINE"
);
},
{
closed = 1;
nodes = (
"350 -159 OFFCURVE",
"368 -140 OFFCURVE",
"368 -112 CURVE SMOOTH",
"368 -84 OFFCURVE",
"350 -64 OFFCURVE",
"322 -64 CURVE SMOOTH",
"294 -64 OFFCURVE",
"275 -84 OFFCURVE",
"275 -112 CURVE SMOOTH",
"275 -140 OFFCURVE",
"294 -159 OFFCURVE",
"322 -159 CURVE SMOOTH"
);
},
{
closed = 1;
nodes = (
"455 251 LINE",
"455 485 LINE",
"431 485 LINE",
"427 436 OFFCURVE",
"424 388 OFFCURVE",
"379 388 CURVE SMOOTH",
"162 388 LINE",
"162 348 LINE",
"379 348 LINE SMOOTH",
"424 348 OFFCURVE",
"427 300 OFFCURVE",
"431 251 CURVE"
);
},
{
closed = 1;
nodes = (
"294 868 LINE SMOOTH",
"302 874 OFFCURVE",
"312 879 OFFCURVE",
"318 879 CURVE SMOOTH",
"324 879 OFFCURVE",
"332 874 OFFCURVE",
"341 868 CURVE",
"449 782 LINE",
"468 803 LINE",
"344 932 LINE",
"291 932 LINE",
"167 803 LINE",
"186 782 LINE"
);
}
);
};
components = (
{
name = E;
},
{
name = dotbelowcomb;
transform = "{1, 0, 0, 1, 311, 0}";
},
{
name = circumflexcomb;
transform = "{1, 0, 0, 1, 311, 200}";
}
);
layerId = "0B1DFD06-3317-40CA-B510-4969A0718C16";
width = 574;
},
{
background = {
paths = (
{
closed = 1;
nodes = (
"554 0 LINE",
"571 179 LINE",
"544 179 LINE",
"538 124 OFFCURVE",
"520 40 OFFCURVE",
"456 40 CURVE SMOOTH",
"201 40 LINE",
"201 659 LINE",
"441 659 LINE SMOOTH",
"516 659 OFFCURVE",
"525 567 OFFCURVE",
"528 527 CURVE",
"555 527 LINE",
"555 700 LINE",
"16 700 LINE",
"16 673 LINE",
"44 673 LINE SMOOTH",
"83 673 OFFCURVE",
"103 662 OFFCURVE",
"103 637 CURVE SMOOTH",
"103 62 LINE SMOOTH",
"103 37 OFFCURVE",
"83 26 OFFCURVE",
"44 26 CURVE SMOOTH",
"16 26 LINE",
"16 0 LINE"
);
},
{
closed = 1;
nodes = (
"350 -159 OFFCURVE",
"368 -140 OFFCURVE",
"368 -112 CURVE SMOOTH",
"368 -84 OFFCURVE",
"350 -64 OFFCURVE",
"322 -64 CURVE SMOOTH",
"294 -64 OFFCURVE",
"275 -84 OFFCURVE",
"275 -112 CURVE SMOOTH",
"275 -140 OFFCURVE",
"294 -159 OFFCURVE",
"322 -159 CURVE SMOOTH"
);
},
{
closed = 1;
nodes = (
"455 251 LINE",
"455 485 LINE",
"431 485 LINE",
"427 436 OFFCURVE",
"424 388 OFFCURVE",
"379 388 CURVE SMOOTH",
"162 388 LINE",
"162 348 LINE",
"379 348 LINE SMOOTH",
"424 348 OFFCURVE",
"427 300 OFFCURVE",
"431 251 CURVE"
);
},
{
closed = 1;
nodes = (
"294 868 LINE SMOOTH",
"302 874 OFFCURVE",
"312 879 OFFCURVE",
"318 879 CURVE SMOOTH",
"324 879 OFFCURVE",
"332 874 OFFCURVE",
"341 868 CURVE",
"449 782 LINE",
"468 803 LINE",
"344 932 LINE",
"291 932 LINE",
"167 803 LINE",
"186 782 LINE"
);
}
);
};
components = (
{
name = E;
},
{
name = dotbelowcomb;
transform = "{1, 0, 0, 1, 348, 0}";
},
{
name = circumflexcomb;
transform = "{1, 0, 0, 1, 348, 200}";
}
);
layerId = "2F8C22CF-EC86-44F4-AF1A-A6C7F26A0C3C";
width = 640;
},
{
components = (
{
name = E;
},
{
name = dotbelowcomb;
transform = "{1, 0, 0, 1, 301, 0}";
},
{
name = circumflexcomb;
transform = "{1, 0, 0, 1, 301, 200}";
}
);
layerId = "17B9D149-A542-49FB-8130-D430586D7342";
width = 573;
},
{
background = {
paths = (
{
closed = 1;
nodes = (
"554 0 LINE",
"571 179 LINE",
"544 179 LINE",
"538 124 OFFCURVE",
"520 40 OFFCURVE",
"456 40 CURVE SMOOTH",
"201 40 LINE",
"201 659 LINE",
"441 659 LINE SMOOTH",
"516 659 OFFCURVE",
"525 567 OFFCURVE",
"528 527 CURVE",
"555 527 LINE",
"555 700 LINE",
"16 700 LINE",
"16 673 LINE",
"44 673 LINE SMOOTH",
"83 673 OFFCURVE",
"103 662 OFFCURVE",
"103 637 CURVE SMOOTH",
"103 62 LINE SMOOTH",
"103 37 OFFCURVE",
"83 26 OFFCURVE",
"44 26 CURVE SMOOTH",
"16 26 LINE",
"16 0 LINE"
);
},
{
closed = 1;
nodes = (
"350 -159 OFFCURVE",
"368 -140 OFFCURVE",
"368 -112 CURVE SMOOTH",
"368 -84 OFFCURVE",
"350 -64 OFFCURVE",
"322 -64 CURVE SMOOTH",
"294 -64 OFFCURVE",
"275 -84 OFFCURVE",
"275 -112 CURVE SMOOTH",
"275 -140 OFFCURVE",
"294 -159 OFFCURVE",
"322 -159 CURVE SMOOTH"
);
},
{
closed = 1;
nodes = (
"455 251 LINE",
"455 485 LINE",
"431 485 LINE",
"427 436 OFFCURVE",
"424 388 OFFCURVE",
"379 388 CURVE SMOOTH",
"162 388 LINE",
"162 348 LINE",
"379 348 LINE SMOOTH",
"424 348 OFFCURVE",
"427 300 OFFCURVE",
"431 251 CURVE"
);
},
{
closed = 1;
nodes = (
"294 868 LINE SMOOTH",
"302 874 OFFCURVE",
"312 879 OFFCURVE",
"318 879 CURVE SMOOTH",
"324 879 OFFCURVE",
"332 874 OFFCURVE",
"341 868 CURVE",
"449 782 LINE",
"468 803 LINE",
"344 932 LINE",
"291 932 LINE",
"167 803 LINE",
"186 782 LINE"
);
}
);
};
components = (
{
name = E;
},
{
name = dotbelowcomb;
transform = "{1, 0, 0, 1, 311, 0}";
},
{
name = circumflexcomb;
transform = "{1, 0, 0, 1, 346, 200}";
}
);
layerId = "2214C8E2-2079-4DC2-8649-1937C1DD8804";
width = 574;
},
{
components = (
{
name = E;
},
{
name = dotbelowcomb;
transform = "{1, 0, 0, 1, 301, 0}";
},
{
name = circumflexcomb;
transform = "{1, 0, 0, 1, 336, 200}";
}
);
layerId = "AEE50E4E-1B30-4E16-A434-AC23B12A4294";
width = 573;
},
{
background = {
paths = (
{
closed = 1;
nodes = (
"554 0 LINE",
"571 179 LINE",
"544 179 LINE",
"538 124 OFFCURVE",
"520 40 OFFCURVE",
"456 40 CURVE SMOOTH",
"201 40 LINE",
"201 659 LINE",
"441 659 LINE SMOOTH",
"516 659 OFFCURVE",
"525 567 OFFCURVE",
"528 527 CURVE",
"555 527 LINE",
"555 700 LINE",
"16 700 LINE",
"16 673 LINE",
"44 673 LINE SMOOTH",
"83 673 OFFCURVE",
"103 662 OFFCURVE",
"103 637 CURVE SMOOTH",
"103 62 LINE SMOOTH",
"103 37 OFFCURVE",
"83 26 OFFCURVE",
"44 26 CURVE SMOOTH",
"16 26 LINE",
"16 0 LINE"
);
},
{
closed = 1;
nodes = (
"350 -159 OFFCURVE",
"368 -140 OFFCURVE",
"368 -112 CURVE SMOOTH",
"368 -84 OFFCURVE",
"350 -64 OFFCURVE",
"322 -64 CURVE SMOOTH",
"294 -64 OFFCURVE",
"275 -84 OFFCURVE",
"275 -112 CURVE SMOOTH",
"275 -140 OFFCURVE",
"294 -159 OFFCURVE",
"322 -159 CURVE SMOOTH"
);
},
{
closed = 1;
nodes = (
"455 251 LINE",
"455 485 LINE",
"431 485 LINE",
"427 436 OFFCURVE",
"424 388 OFFCURVE",
"379 388 CURVE SMOOTH",
"162 388 LINE",
"162 348 LINE",
"379 348 LINE SMOOTH",
"424 348 OFFCURVE",
"427 300 OFFCURVE",
"431 251 CURVE"
);
},
{
closed = 1;
nodes = (
"294 868 LINE SMOOTH",
"302 874 OFFCURVE",
"312 879 OFFCURVE",
"318 879 CURVE SMOOTH",
"324 879 OFFCURVE",
"332 874 OFFCURVE",
"341 868 CURVE",
"449 782 LINE",
"468 803 LINE",
"344 932 LINE",
"291 932 LINE",
"167 803 LINE",
"186 782 LINE"
);
}
);
};
components = (
{
name = E;
},
{
name = dotbelowcomb;
transform = "{1, 0, 0, 1, 348, 0}";
},
{
name = circumflexcomb;
transform = "{1, 0, 0, 1, 383, 200}";
}
);
layerId = "F86CB789-B416-49E2-AD1B-BE88A4A88FF7";
width = 640;
}
);
note = Ecircumflexdotbelow;
unicode = 1EC6;
},
{
color = 9;
glyphname = Ecircumflexgrave;
lastChange = "2018-03-30 17:41:31 +0000";
layers = (
{
background = {
paths = (
{
closed = 1;
nodes = (
"554 0 LINE",
"571 179 LINE",
"544 179 LINE",
"538 124 OFFCURVE",
"520 40 OFFCURVE",
"456 40 CURVE SMOOTH",
"201 40 LINE",
"201 659 LINE",
"441 659 LINE SMOOTH",
"516 659 OFFCURVE",
"525 567 OFFCURVE",
"528 527 CURVE",
"555 527 LINE",
"555 700 LINE",
"16 700 LINE",
"16 673 LINE",
"44 673 LINE SMOOTH",
"83 673 OFFCURVE",
"103 662 OFFCURVE",
"103 637 CURVE SMOOTH",
"103 62 LINE SMOOTH",
"103 37 OFFCURVE",
"83 26 OFFCURVE",
"44 26 CURVE SMOOTH",
"16 26 LINE",
"16 0 LINE"
);
},
{
closed = 1;
nodes = (
"455 251 LINE",
"455 485 LINE",
"431 485 LINE",
"427 436 OFFCURVE",
"424 388 OFFCURVE",
"379 388 CURVE SMOOTH",
"162 388 LINE",
"162 348 LINE",
"379 348 LINE SMOOTH",
"424 348 OFFCURVE",
"427 300 OFFCURVE",
"431 251 CURVE"
);
},
{
closed = 1;
nodes = (
"227 915 LINE",
"132 1008 LINE SMOOTH",
"122 1018 OFFCURVE",
"105 1034 OFFCURVE",
"85 1034 CURVE SMOOTH",
"63 1034 OFFCURVE",
"52 1017 OFFCURVE",
"52 1003 CURVE SMOOTH",
"52 988 OFFCURVE",
"65 972 OFFCURVE",
"88 960 CURVE SMOOTH",
"210 893 LINE"
);
},
{
closed = 1;
nodes = (
"290 862 LINE SMOOTH",
"300 870 OFFCURVE",
"310 878 OFFCURVE",
"318 878 CURVE SMOOTH",
"324 878 OFFCURVE",
"332 873 OFFCURVE",
"341 867 CURVE",
"447 781 LINE",
"466 803 LINE",
"344 932 LINE",
"293 932 LINE",
"171 803 LINE",
"189 781 LINE"
);
}
);
};
components = (
{
name = E;
},
{
name = circumflex_grave;
transform = "{1, 0, 0, 1, 561, 200}";
}
);
layerId = "0B1DFD06-3317-40CA-B510-4969A0718C16";
width = 574;
},
{
background = {
paths = (
{
closed = 1;
nodes = (
"554 0 LINE",
"571 179 LINE",
"544 179 LINE",
"538 124 OFFCURVE",
"520 40 OFFCURVE",
"456 40 CURVE SMOOTH",
"201 40 LINE",
"201 659 LINE",
"441 659 LINE SMOOTH",
"516 659 OFFCURVE",
"525 567 OFFCURVE",
"528 527 CURVE",
"555 527 LINE",
"555 700 LINE",
"16 700 LINE",
"16 673 LINE",
"44 673 LINE SMOOTH",
"83 673 OFFCURVE",
"103 662 OFFCURVE",
"103 637 CURVE SMOOTH",
"103 62 LINE SMOOTH",
"103 37 OFFCURVE",
"83 26 OFFCURVE",
"44 26 CURVE SMOOTH",
"16 26 LINE",
"16 0 LINE"
);
},
{
closed = 1;
nodes = (
"455 251 LINE",
"455 485 LINE",
"431 485 LINE",
"427 436 OFFCURVE",
"424 388 OFFCURVE",
"379 388 CURVE SMOOTH",
"162 388 LINE",
"162 348 LINE",
"379 348 LINE SMOOTH",
"424 348 OFFCURVE",
"427 300 OFFCURVE",
"431 251 CURVE"
);
},
{
closed = 1;
nodes = (
"227 915 LINE",
"132 1008 LINE SMOOTH",
"122 1018 OFFCURVE",
"105 1034 OFFCURVE",
"85 1034 CURVE SMOOTH",
"63 1034 OFFCURVE",
"52 1017 OFFCURVE",
"52 1003 CURVE SMOOTH",
"52 988 OFFCURVE",
"65 972 OFFCURVE",
"88 960 CURVE SMOOTH",
"210 893 LINE"
);
},
{
closed = 1;
nodes = (
"290 862 LINE SMOOTH",
"300 870 OFFCURVE",
"310 878 OFFCURVE",
"318 878 CURVE SMOOTH",
"324 878 OFFCURVE",
"332 873 OFFCURVE",
"341 867 CURVE",
"447 781 LINE",
"466 803 LINE",
"344 932 LINE",
"293 932 LINE",
"171 803 LINE",
"189 781 LINE"
);
}
);
};
components = (
{
name = E;
},
{
name = circumflex_grave;
transform = "{1, 0, 0, 1, 599, 200}";
}
);
layerId = "2F8C22CF-EC86-44F4-AF1A-A6C7F26A0C3C";
width = 640;
},
{
components = (
{
name = E;
},
{
name = circumflex_grave;
transform = "{1, 0, 0, 1, 551, 200}";
}
);
layerId = "17B9D149-A542-49FB-8130-D430586D7342";
width = 573;
},
{
background = {
paths = (
{
closed = 1;
nodes = (
"554 0 LINE",
"571 179 LINE",
"544 179 LINE",
"538 124 OFFCURVE",
"520 40 OFFCURVE",
"456 40 CURVE SMOOTH",
"201 40 LINE",
"201 659 LINE",
"441 659 LINE SMOOTH",
"516 659 OFFCURVE",
"525 567 OFFCURVE",
"528 527 CURVE",
"555 527 LINE",
"555 700 LINE",
"16 700 LINE",
"16 673 LINE",
"44 673 LINE SMOOTH",
"83 673 OFFCURVE",
"103 662 OFFCURVE",
"103 637 CURVE SMOOTH",
"103 62 LINE SMOOTH",
"103 37 OFFCURVE",
"83 26 OFFCURVE",
"44 26 CURVE SMOOTH",
"16 26 LINE",
"16 0 LINE"
);
},
{
closed = 1;
nodes = (
"455 251 LINE",
"455 485 LINE",
"431 485 LINE",
"427 436 OFFCURVE",
"424 388 OFFCURVE",
"379 388 CURVE SMOOTH",
"162 388 LINE",
"162 348 LINE",
"379 348 LINE SMOOTH",
"424 348 OFFCURVE",
"427 300 OFFCURVE",
"431 251 CURVE"
);
},
{
closed = 1;
nodes = (
"227 915 LINE",
"132 1008 LINE SMOOTH",
"122 1018 OFFCURVE",
"105 1034 OFFCURVE",
"85 1034 CURVE SMOOTH",
"63 1034 OFFCURVE",
"52 1017 OFFCURVE",
"52 1003 CURVE SMOOTH",
"52 988 OFFCURVE",
"65 972 OFFCURVE",
"88 960 CURVE SMOOTH",
"210 893 LINE"
);
},
{
closed = 1;
nodes = (
"290 862 LINE SMOOTH",
"300 870 OFFCURVE",
"310 878 OFFCURVE",
"318 878 CURVE SMOOTH",
"324 878 OFFCURVE",
"332 873 OFFCURVE",
"341 867 CURVE",
"447 781 LINE",
"466 803 LINE",
"344 932 LINE",
"293 932 LINE",
"171 803 LINE",
"189 781 LINE"
);
}
);
};
components = (
{
name = E;
},
{
name = circumflex_grave;
transform = "{1, 0, 0, 1, 596, 200}";
}
);
layerId = "2214C8E2-2079-4DC2-8649-1937C1DD8804";
width = 574;
},
{
components = (
{
name = E;
},
{
name = circumflex_grave;
transform = "{1, 0, 0, 1, 586, 200}";
}
);
layerId = "AEE50E4E-1B30-4E16-A434-AC23B12A4294";
width = 573;
},
{
background = {
paths = (
{
closed = 1;
nodes = (
"554 0 LINE",
"571 179 LINE",
"544 179 LINE",
"538 124 OFFCURVE",
"520 40 OFFCURVE",
"456 40 CURVE SMOOTH",
"201 40 LINE",
"201 659 LINE",
"441 659 LINE SMOOTH",
"516 659 OFFCURVE",
"525 567 OFFCURVE",
"528 527 CURVE",
"555 527 LINE",
"555 700 LINE",
"16 700 LINE",
"16 673 LINE",
"44 673 LINE SMOOTH",
"83 673 OFFCURVE",
"103 662 OFFCURVE",
"103 637 CURVE SMOOTH",
"103 62 LINE SMOOTH",
"103 37 OFFCURVE",
"83 26 OFFCURVE",
"44 26 CURVE SMOOTH",
"16 26 LINE",
"16 0 LINE"
);
},
{
closed = 1;
nodes = (
"455 251 LINE",
"455 485 LINE",
"431 485 LINE",
"427 436 OFFCURVE",
"424 388 OFFCURVE",
"379 388 CURVE SMOOTH",
"162 388 LINE",
"162 348 LINE",
"379 348 LINE SMOOTH",
"424 348 OFFCURVE",
"427 300 OFFCURVE",
"431 251 CURVE"
);
},
{
closed = 1;
nodes = (
"227 915 LINE",
"132 1008 LINE SMOOTH",
"122 1018 OFFCURVE",
"105 1034 OFFCURVE",
"85 1034 CURVE SMOOTH",
"63 1034 OFFCURVE",
"52 1017 OFFCURVE",
"52 1003 CURVE SMOOTH",
"52 988 OFFCURVE",
"65 972 OFFCURVE",
"88 960 CURVE SMOOTH",
"210 893 LINE"
);
},
{
closed = 1;
nodes = (
"290 862 LINE SMOOTH",
"300 870 OFFCURVE",
"310 878 OFFCURVE",
"318 878 CURVE SMOOTH",
"324 878 OFFCURVE",
"332 873 OFFCURVE",
"341 867 CURVE",
"447 781 LINE",
"466 803 LINE",
"344 932 LINE",
"293 932 LINE",
"171 803 LINE",
"189 781 LINE"
);
}
);
};
components = (
{
name = E;
},
{
name = circumflex_grave;
transform = "{1, 0, 0, 1, 634, 200}";
}
);
layerId = "F86CB789-B416-49E2-AD1B-BE88A4A88FF7";
width = 640;
}
);
note = Ecircumflexgrave;
unicode = 1EC0;
},
{
color = 9;
glyphname = Ecircumflexhookabove;
lastChange = "2018-03-30 19:13:10 +0000";
layers = (
{
background = {
paths = (
{
closed = 1;
nodes = (
"554 0 LINE",
"571 179 LINE",
"544 179 LINE",
"538 124 OFFCURVE",
"520 40 OFFCURVE",
"456 40 CURVE SMOOTH",
"201 40 LINE",
"201 659 LINE",
"441 659 LINE SMOOTH",
"516 659 OFFCURVE",
"525 567 OFFCURVE",
"528 527 CURVE",
"555 527 LINE",
"555 700 LINE",
"16 700 LINE",
"16 673 LINE",
"44 673 LINE SMOOTH",
"83 673 OFFCURVE",
"103 662 OFFCURVE",
"103 637 CURVE SMOOTH",
"103 62 LINE SMOOTH",
"103 37 OFFCURVE",
"83 26 OFFCURVE",
"44 26 CURVE SMOOTH",
"16 26 LINE",
"16 0 LINE"
);
},
{
closed = 1;
nodes = (
"455 251 LINE",
"455 485 LINE",
"431 485 LINE",
"427 436 OFFCURVE",
"424 388 OFFCURVE",
"379 388 CURVE SMOOTH",
"162 388 LINE",
"162 348 LINE",
"379 348 LINE SMOOTH",
"424 348 OFFCURVE",
"427 300 OFFCURVE",
"431 251 CURVE"
);
},
{
closed = 1;
nodes = (
"286 858 LINE",
"297 868 OFFCURVE",
"309 878 OFFCURVE",
"318 878 CURVE SMOOTH",
"324 878 OFFCURVE",
"332 873 OFFCURVE",
"341 867 CURVE",
"447 781 LINE",
"466 803 LINE",
"344 932 LINE",
"293 932 LINE",
"171 803 LINE",
"189 781 LINE"
);
},
{
closed = 1;
nodes = (
"493 898 LINE",
"474 905 OFFCURVE",
"464 912 OFFCURVE",
"464 926 CURVE SMOOTH",
"464 954 OFFCURVE",
"544 965 OFFCURVE",
"544 1010 CURVE SMOOTH",
"544 1047 OFFCURVE",
"502 1063 OFFCURVE",
"460 1063 CURVE SMOOTH",
"429 1063 OFFCURVE",
"384 1053 OFFCURVE",
"384 1022 CURVE SMOOTH",
"384 1010 OFFCURVE",
"395 1001 OFFCURVE",
"405 1001 CURVE SMOOTH",
"434 1001 OFFCURVE",
"421 1040 OFFCURVE",
"464 1040 CURVE SMOOTH",
"483 1040 OFFCURVE",
"494 1028 OFFCURVE",
"494 1013 CURVE SMOOTH",
"494 973 OFFCURVE",
"421 965 OFFCURVE",
"421 925 CURVE SMOOTH",
"421 901 OFFCURVE",
"437 880 OFFCURVE",
"484 880 CURVE"
);
}
);
};
components = (
{
name = E;
},
{
name = circumflex_hookabove;
transform = "{1, 0, 0, 1, 561, 200}";
}
);
layerId = "0B1DFD06-3317-40CA-B510-4969A0718C16";
width = 574;
},
{
background = {
paths = (
{
closed = 1;
nodes = (
"554 0 LINE",
"571 179 LINE",
"544 179 LINE",
"538 124 OFFCURVE",
"520 40 OFFCURVE",
"456 40 CURVE SMOOTH",
"201 40 LINE",
"201 659 LINE",
"441 659 LINE SMOOTH",
"516 659 OFFCURVE",
"525 567 OFFCURVE",
"528 527 CURVE",
"555 527 LINE",
"555 700 LINE",
"16 700 LINE",
"16 673 LINE",
"44 673 LINE SMOOTH",
"83 673 OFFCURVE",
"103 662 OFFCURVE",
"103 637 CURVE SMOOTH",
"103 62 LINE SMOOTH",
"103 37 OFFCURVE",
"83 26 OFFCURVE",
"44 26 CURVE SMOOTH",
"16 26 LINE",
"16 0 LINE"
);
},
{
closed = 1;
nodes = (
"455 251 LINE",
"455 485 LINE",
"431 485 LINE",
"427 436 OFFCURVE",
"424 388 OFFCURVE",
"379 388 CURVE SMOOTH",
"162 388 LINE",
"162 348 LINE",
"379 348 LINE SMOOTH",
"424 348 OFFCURVE",
"427 300 OFFCURVE",
"431 251 CURVE"
);
},
{
closed = 1;
nodes = (
"286 858 LINE",
"297 868 OFFCURVE",
"309 878 OFFCURVE",
"318 878 CURVE SMOOTH",
"324 878 OFFCURVE",
"332 873 OFFCURVE",
"341 867 CURVE",
"447 781 LINE",
"466 803 LINE",
"344 932 LINE",
"293 932 LINE",
"171 803 LINE",
"189 781 LINE"
);
},
{
closed = 1;
nodes = (
"493 898 LINE",
"474 905 OFFCURVE",
"464 912 OFFCURVE",
"464 926 CURVE SMOOTH",
"464 954 OFFCURVE",
"544 965 OFFCURVE",
"544 1010 CURVE SMOOTH",
"544 1047 OFFCURVE",
"502 1063 OFFCURVE",
"460 1063 CURVE SMOOTH",
"429 1063 OFFCURVE",
"384 1053 OFFCURVE",
"384 1022 CURVE SMOOTH",
"384 1010 OFFCURVE",
"395 1001 OFFCURVE",
"405 1001 CURVE SMOOTH",
"434 1001 OFFCURVE",
"421 1040 OFFCURVE",
"464 1040 CURVE SMOOTH",
"483 1040 OFFCURVE",
"494 1028 OFFCURVE",
"494 1013 CURVE SMOOTH",
"494 973 OFFCURVE",
"421 965 OFFCURVE",
"421 925 CURVE SMOOTH",
"421 901 OFFCURVE",
"437 880 OFFCURVE",
"484 880 CURVE"
);
}
);
};
components = (
{
name = E;
},
{
name = circumflex_hookabove;
transform = "{1, 0, 0, 1, 599, 200}";
}
);
layerId = "2F8C22CF-EC86-44F4-AF1A-A6C7F26A0C3C";
width = 640;
},
{
components = (
{
name = E;
},
{
name = circumflex_hookabove;
transform = "{1, 0, 0, 1, 551, 200}";
}
);
layerId = "17B9D149-A542-49FB-8130-D430586D7342";
width = 573;
},
{
background = {
paths = (
{
closed = 1;
nodes = (
"554 0 LINE",
"571 179 LINE",
"544 179 LINE",
"538 124 OFFCURVE",
"520 40 OFFCURVE",
"456 40 CURVE SMOOTH",
"201 40 LINE",
"201 659 LINE",
"441 659 LINE SMOOTH",
"516 659 OFFCURVE",
"525 567 OFFCURVE",
"528 527 CURVE",
"555 527 LINE",
"555 700 LINE",
"16 700 LINE",
"16 673 LINE",
"44 673 LINE SMOOTH",
"83 673 OFFCURVE",
"103 662 OFFCURVE",
"103 637 CURVE SMOOTH",
"103 62 LINE SMOOTH",
"103 37 OFFCURVE",
"83 26 OFFCURVE",
"44 26 CURVE SMOOTH",
"16 26 LINE",
"16 0 LINE"
);
},
{
closed = 1;
nodes = (
"455 251 LINE",
"455 485 LINE",
"431 485 LINE",
"427 436 OFFCURVE",
"424 388 OFFCURVE",
"379 388 CURVE SMOOTH",
"162 388 LINE",
"162 348 LINE",
"379 348 LINE SMOOTH",
"424 348 OFFCURVE",
"427 300 OFFCURVE",
"431 251 CURVE"
);
},
{
closed = 1;
nodes = (
"286 858 LINE",
"297 868 OFFCURVE",
"309 878 OFFCURVE",
"318 878 CURVE SMOOTH",
"324 878 OFFCURVE",
"332 873 OFFCURVE",
"341 867 CURVE",
"447 781 LINE",
"466 803 LINE",
"344 932 LINE",
"293 932 LINE",
"171 803 LINE",
"189 781 LINE"
);
},
{
closed = 1;
nodes = (
"493 898 LINE",
"474 905 OFFCURVE",
"464 912 OFFCURVE",
"464 926 CURVE SMOOTH",
"464 954 OFFCURVE",
"544 965 OFFCURVE",
"544 1010 CURVE SMOOTH",
"544 1047 OFFCURVE",
"502 1063 OFFCURVE",
"460 1063 CURVE SMOOTH",
"429 1063 OFFCURVE",
"384 1053 OFFCURVE",
"384 1022 CURVE SMOOTH",
"384 1010 OFFCURVE",
"395 1001 OFFCURVE",
"405 1001 CURVE SMOOTH",
"434 1001 OFFCURVE",
"421 1040 OFFCURVE",
"464 1040 CURVE SMOOTH",
"483 1040 OFFCURVE",
"494 1028 OFFCURVE",
"494 1013 CURVE SMOOTH",
"494 973 OFFCURVE",
"421 965 OFFCURVE",
"421 925 CURVE SMOOTH",
"421 901 OFFCURVE",
"437 880 OFFCURVE",
"484 880 CURVE"
);
}
);
};
components = (
{
name = E;
},
{
name = circumflex_hookabove;
transform = "{1, 0, 0, 1, 596, 200}";
}
);
layerId = "2214C8E2-2079-4DC2-8649-1937C1DD8804";
width = 574;
},
{
components = (
{
name = E;
},
{
name = circumflex_hookabove;
transform = "{1, 0, 0, 1, 586, 200}";
}
);
layerId = "AEE50E4E-1B30-4E16-A434-AC23B12A4294";
width = 573;
},
{
background = {
paths = (
{
closed = 1;
nodes = (
"554 0 LINE",
"571 179 LINE",
"544 179 LINE",
"538 124 OFFCURVE",
"520 40 OFFCURVE",
"456 40 CURVE SMOOTH",
"201 40 LINE",
"201 659 LINE",
"441 659 LINE SMOOTH",
"516 659 OFFCURVE",
"525 567 OFFCURVE",
"528 527 CURVE",
"555 527 LINE",
"555 700 LINE",
"16 700 LINE",
"16 673 LINE",
"44 673 LINE SMOOTH",
"83 673 OFFCURVE",
"103 662 OFFCURVE",
"103 637 CURVE SMOOTH",
"103 62 LINE SMOOTH",
"103 37 OFFCURVE",
"83 26 OFFCURVE",
"44 26 CURVE SMOOTH",
"16 26 LINE",
"16 0 LINE"
);
},
{
closed = 1;
nodes = (
"455 251 LINE",
"455 485 LINE",
"431 485 LINE",
"427 436 OFFCURVE",
"424 388 OFFCURVE",
"379 388 CURVE SMOOTH",
"162 388 LINE",
"162 348 LINE",
"379 348 LINE SMOOTH",
"424 348 OFFCURVE",
"427 300 OFFCURVE",
"431 251 CURVE"
);
},
{
closed = 1;
nodes = (
"286 858 LINE",
"297 868 OFFCURVE",
"309 878 OFFCURVE",
"318 878 CURVE SMOOTH",
"324 878 OFFCURVE",
"332 873 OFFCURVE",
"341 867 CURVE",
"447 781 LINE",
"466 803 LINE",
"344 932 LINE",
"293 932 LINE",
"171 803 LINE",
"189 781 LINE"
);
},
{
closed = 1;
nodes = (
"493 898 LINE",
"474 905 OFFCURVE",
"464 912 OFFCURVE",
"464 926 CURVE SMOOTH",
"464 954 OFFCURVE",
"544 965 OFFCURVE",
"544 1010 CURVE SMOOTH",
"544 1047 OFFCURVE",
"502 1063 OFFCURVE",
"460 1063 CURVE SMOOTH",
"429 1063 OFFCURVE",
"384 1053 OFFCURVE",
"384 1022 CURVE SMOOTH",
"384 1010 OFFCURVE",
"395 1001 OFFCURVE",
"405 1001 CURVE SMOOTH",
"434 1001 OFFCURVE",
"421 1040 OFFCURVE",
"464 1040 CURVE SMOOTH",
"483 1040 OFFCURVE",
"494 1028 OFFCURVE",
"494 1013 CURVE SMOOTH",
"494 973 OFFCURVE",
"421 965 OFFCURVE",
"421 925 CURVE SMOOTH",
"421 901 OFFCURVE",
"437 880 OFFCURVE",
"484 880 CURVE"
);
}
);
};
components = (
{
name = E;
},
{
name = circumflex_hookabove;
transform = "{1, 0, 0, 1, 634, 200}";
}
);
layerId = "F86CB789-B416-49E2-AD1B-BE88A4A88FF7";
width = 640;
}
);
note = Ecircumflexhookabove;
unicode = 1EC2;
},
{
color = 9;
glyphname = Ecircumflextilde;
lastChange = "2018-03-30 19:14:04 +0000";
layers = (
{
background = {
paths = (
{
closed = 1;
nodes = (
"554 0 LINE",
"571 179 LINE",
"544 179 LINE",
"538 124 OFFCURVE",
"520 40 OFFCURVE",
"456 40 CURVE SMOOTH",
"201 40 LINE",
"201 659 LINE",
"441 659 LINE SMOOTH",
"516 659 OFFCURVE",
"525 567 OFFCURVE",
"528 527 CURVE",
"555 527 LINE",
"555 700 LINE",
"16 700 LINE",
"16 673 LINE",
"44 673 LINE SMOOTH",
"83 673 OFFCURVE",
"103 662 OFFCURVE",
"103 637 CURVE SMOOTH",
"103 62 LINE SMOOTH",
"103 37 OFFCURVE",
"83 26 OFFCURVE",
"44 26 CURVE SMOOTH",
"16 26 LINE",
"16 0 LINE"
);
},
{
closed = 1;
nodes = (
"455 251 LINE",
"455 485 LINE",
"431 485 LINE",
"427 436 OFFCURVE",
"424 388 OFFCURVE",
"379 388 CURVE SMOOTH",
"162 388 LINE",
"162 348 LINE",
"379 348 LINE SMOOTH",
"424 348 OFFCURVE",
"427 300 OFFCURVE",
"431 251 CURVE"
);
},
{
closed = 1;
nodes = (
"290 862 LINE SMOOTH",
"300 870 OFFCURVE",
"310 878 OFFCURVE",
"318 878 CURVE SMOOTH",
"324 878 OFFCURVE",
"332 873 OFFCURVE",
"341 867 CURVE",
"447 781 LINE",
"466 803 LINE",
"344 932 LINE",
"293 932 LINE",
"171 803 LINE",
"189 781 LINE"
);
},
{
closed = 1;
nodes = (
"193 997 OFFCURVE",
"211 1018 OFFCURVE",
"242 1018 CURVE SMOOTH",
"291 1018 OFFCURVE",
"338 964 OFFCURVE",
"387 964 CURVE SMOOTH",
"440 964 OFFCURVE",
"469 1012 OFFCURVE",
"481 1063 CURVE",
"460 1075 LINE",
"447 1035 OFFCURVE",
"431 1012 OFFCURVE",
"398 1012 CURVE SMOOTH",
"351 1012 OFFCURVE",
"302 1065 OFFCURVE",
"253 1065 CURVE SMOOTH",
"202 1065 OFFCURVE",
"170 1021 OFFCURVE",
"160 970 CURVE",
"180 958 LINE"
);
}
);
};
components = (
{
name = E;
},
{
name = circumflex_tilde;
transform = "{1, 0, 0, 1, 561, 200}";
}
);
layerId = "0B1DFD06-3317-40CA-B510-4969A0718C16";
width = 574;
},
{
background = {
paths = (
{
closed = 1;
nodes = (
"554 0 LINE",
"571 179 LINE",
"544 179 LINE",
"538 124 OFFCURVE",
"520 40 OFFCURVE",
"456 40 CURVE SMOOTH",
"201 40 LINE",
"201 659 LINE",
"441 659 LINE SMOOTH",
"516 659 OFFCURVE",
"525 567 OFFCURVE",
"528 527 CURVE",
"555 527 LINE",
"555 700 LINE",
"16 700 LINE",
"16 673 LINE",
"44 673 LINE SMOOTH",
"83 673 OFFCURVE",
"103 662 OFFCURVE",
"103 637 CURVE SMOOTH",
"103 62 LINE SMOOTH",
"103 37 OFFCURVE",
"83 26 OFFCURVE",
"44 26 CURVE SMOOTH",
"16 26 LINE",
"16 0 LINE"
);
},
{
closed = 1;
nodes = (
"455 251 LINE",
"455 485 LINE",
"431 485 LINE",
"427 436 OFFCURVE",
"424 388 OFFCURVE",
"379 388 CURVE SMOOTH",
"162 388 LINE",
"162 348 LINE",
"379 348 LINE SMOOTH",
"424 348 OFFCURVE",
"427 300 OFFCURVE",
"431 251 CURVE"
);
},
{
closed = 1;
nodes = (
"290 862 LINE SMOOTH",
"300 870 OFFCURVE",
"310 878 OFFCURVE",
"318 878 CURVE SMOOTH",
"324 878 OFFCURVE",
"332 873 OFFCURVE",
"341 867 CURVE",
"447 781 LINE",
"466 803 LINE",
"344 932 LINE",
"293 932 LINE",
"171 803 LINE",
"189 781 LINE"
);
},
{
closed = 1;
nodes = (
"193 997 OFFCURVE",
"211 1018 OFFCURVE",
"242 1018 CURVE SMOOTH",
"291 1018 OFFCURVE",
"338 964 OFFCURVE",
"387 964 CURVE SMOOTH",
"440 964 OFFCURVE",
"469 1012 OFFCURVE",
"481 1063 CURVE",
"460 1075 LINE",
"447 1035 OFFCURVE",
"431 1012 OFFCURVE",
"398 1012 CURVE SMOOTH",
"351 1012 OFFCURVE",
"302 1065 OFFCURVE",
"253 1065 CURVE SMOOTH",
"202 1065 OFFCURVE",
"170 1021 OFFCURVE",
"160 970 CURVE",
"180 958 LINE"
);
}
);
};
components = (
{
name = E;
},
{
name = circumflex_tilde;
transform = "{1, 0, 0, 1, 599, 200}";
}
);
layerId = "2F8C22CF-EC86-44F4-AF1A-A6C7F26A0C3C";
width = 640;
},
{
components = (
{
name = E;
},
{
name = circumflex_tilde;
transform = "{1, 0, 0, 1, 551, 200}";
}
);
layerId = "17B9D149-A542-49FB-8130-D430586D7342";
width = 573;
},
{
background = {
paths = (
{
closed = 1;
nodes = (
"554 0 LINE",
"571 179 LINE",
"544 179 LINE",
"538 124 OFFCURVE",
"520 40 OFFCURVE",
"456 40 CURVE SMOOTH",
"201 40 LINE",
"201 659 LINE",
"441 659 LINE SMOOTH",
"516 659 OFFCURVE",
"525 567 OFFCURVE",
"528 527 CURVE",
"555 527 LINE",
"555 700 LINE",
"16 700 LINE",
"16 673 LINE",
"44 673 LINE SMOOTH",
"83 673 OFFCURVE",
"103 662 OFFCURVE",
"103 637 CURVE SMOOTH",
"103 62 LINE SMOOTH",
"103 37 OFFCURVE",
"83 26 OFFCURVE",
"44 26 CURVE SMOOTH",
"16 26 LINE",
"16 0 LINE"
);
},
{
closed = 1;
nodes = (
"455 251 LINE",
"455 485 LINE",
"431 485 LINE",
"427 436 OFFCURVE",
"424 388 OFFCURVE",
"379 388 CURVE SMOOTH",
"162 388 LINE",
"162 348 LINE",
"379 348 LINE SMOOTH",
"424 348 OFFCURVE",
"427 300 OFFCURVE",
"431 251 CURVE"
);
},
{
closed = 1;
nodes = (
"290 862 LINE SMOOTH",
"300 870 OFFCURVE",
"310 878 OFFCURVE",
"318 878 CURVE SMOOTH",
"324 878 OFFCURVE",
"332 873 OFFCURVE",
"341 867 CURVE",
"447 781 LINE",
"466 803 LINE",
"344 932 LINE",
"293 932 LINE",
"171 803 LINE",
"189 781 LINE"
);
},
{
closed = 1;
nodes = (
"193 997 OFFCURVE",
"211 1018 OFFCURVE",
"242 1018 CURVE SMOOTH",
"291 1018 OFFCURVE",
"338 964 OFFCURVE",
"387 964 CURVE SMOOTH",
"440 964 OFFCURVE",
"469 1012 OFFCURVE",
"481 1063 CURVE",
"460 1075 LINE",
"447 1035 OFFCURVE",
"431 1012 OFFCURVE",
"398 1012 CURVE SMOOTH",
"351 1012 OFFCURVE",
"302 1065 OFFCURVE",
"253 1065 CURVE SMOOTH",
"202 1065 OFFCURVE",
"170 1021 OFFCURVE",
"160 970 CURVE",
"180 958 LINE"
);
}
);
};
components = (
{
name = E;
},
{
name = circumflex_tilde;
transform = "{1, 0, 0, 1, 596, 200}";
}
);
layerId = "2214C8E2-2079-4DC2-8649-1937C1DD8804";
width = 574;
},
{
components = (
{
name = E;
},
{
name = circumflex_tilde;
transform = "{1, 0, 0, 1, 586, 200}";
}
);
layerId = "AEE50E4E-1B30-4E16-A434-AC23B12A4294";
width = 573;
},
{
background = {
paths = (
{
closed = 1;
nodes = (
"554 0 LINE",
"571 179 LINE",
"544 179 LINE",
"538 124 OFFCURVE",
"520 40 OFFCURVE",
"456 40 CURVE SMOOTH",
"201 40 LINE",
"201 659 LINE",
"441 659 LINE SMOOTH",
"516 659 OFFCURVE",
"525 567 OFFCURVE",
"528 527 CURVE",
"555 527 LINE",
"555 700 LINE",
"16 700 LINE",
"16 673 LINE",
"44 673 LINE SMOOTH",
"83 673 OFFCURVE",
"103 662 OFFCURVE",
"103 637 CURVE SMOOTH",
"103 62 LINE SMOOTH",
"103 37 OFFCURVE",
"83 26 OFFCURVE",
"44 26 CURVE SMOOTH",
"16 26 LINE",
"16 0 LINE"
);
},
{
closed = 1;
nodes = (
"455 251 LINE",
"455 485 LINE",
"431 485 LINE",
"427 436 OFFCURVE",
"424 388 OFFCURVE",
"379 388 CURVE SMOOTH",
"162 388 LINE",
"162 348 LINE",
"379 348 LINE SMOOTH",
"424 348 OFFCURVE",
"427 300 OFFCURVE",
"431 251 CURVE"
);
},
{
closed = 1;
nodes = (
"290 862 LINE SMOOTH",
"300 870 OFFCURVE",
"310 878 OFFCURVE",
"318 878 CURVE SMOOTH",
"324 878 OFFCURVE",
"332 873 OFFCURVE",
"341 867 CURVE",
"447 781 LINE",
"466 803 LINE",
"344 932 LINE",
"293 932 LINE",
"171 803 LINE",
"189 781 LINE"
);
},
{
closed = 1;
nodes = (
"193 997 OFFCURVE",
"211 1018 OFFCURVE",
"242 1018 CURVE SMOOTH",
"291 1018 OFFCURVE",
"338 964 OFFCURVE",
"387 964 CURVE SMOOTH",
"440 964 OFFCURVE",
"469 1012 OFFCURVE",
"481 1063 CURVE",
"460 1075 LINE",
"447 1035 OFFCURVE",
"431 1012 OFFCURVE",
"398 1012 CURVE SMOOTH",
"351 1012 OFFCURVE",
"302 1065 OFFCURVE",
"253 1065 CURVE SMOOTH",
"202 1065 OFFCURVE",
"170 1021 OFFCURVE",
"160 970 CURVE",
"180 958 LINE"
);
}
);
};
components = (
{
name = E;
},
{
name = circumflex_tilde;
transform = "{1, 0, 0, 1, 634, 200}";
}
);
layerId = "F86CB789-B416-49E2-AD1B-BE88A4A88FF7";
width = 640;
}
);
note = Ecircumflextilde;
unicode = 1EC4;
},
{
color = 9;
glyphname = Edieresis;
lastChange = "2018-03-29 18:43:48 +0000";
layers = (
{
background = {
paths = (
{
closed = 1;
nodes = (
"554 0 LINE",
"571 179 LINE",
"544 179 LINE",
"538 124 OFFCURVE",
"520 40 OFFCURVE",
"456 40 CURVE SMOOTH",
"201 40 LINE",
"201 659 LINE",
"441 659 LINE SMOOTH",
"516 659 OFFCURVE",
"525 567 OFFCURVE",
"528 527 CURVE",
"555 527 LINE",
"555 700 LINE",
"16 700 LINE",
"16 673 LINE",
"44 673 LINE SMOOTH",
"83 673 OFFCURVE",
"103 662 OFFCURVE",
"103 637 CURVE SMOOTH",
"103 62 LINE SMOOTH",
"103 37 OFFCURVE",
"83 26 OFFCURVE",
"44 26 CURVE SMOOTH",
"16 26 LINE",
"16 0 LINE"
);
},
{
closed = 1;
nodes = (
"455 251 LINE",
"455 485 LINE",
"431 485 LINE",
"427 436 OFFCURVE",
"424 388 OFFCURVE",
"379 388 CURVE SMOOTH",
"162 388 LINE",
"162 348 LINE",
"379 348 LINE SMOOTH",
"424 348 OFFCURVE",
"427 300 OFFCURVE",
"431 251 CURVE"
);
},
{
closed = 1;
nodes = (
"254 781 OFFCURVE",
"272 800 OFFCURVE",
"272 827 CURVE SMOOTH",
"272 855 OFFCURVE",
"254 875 OFFCURVE",
"225 875 CURVE SMOOTH",
"197 875 OFFCURVE",
"179 855 OFFCURVE",
"179 827 CURVE SMOOTH",
"179 800 OFFCURVE",
"197 781 OFFCURVE",
"225 781 CURVE SMOOTH"
);
},
{
closed = 1;
nodes = (
"470 781 OFFCURVE",
"488 800 OFFCURVE",
"488 827 CURVE SMOOTH",
"488 855 OFFCURVE",
"470 875 OFFCURVE",
"441 875 CURVE SMOOTH",
"412 875 OFFCURVE",
"394 855 OFFCURVE",
"394 827 CURVE SMOOTH",
"394 800 OFFCURVE",
"412 781 OFFCURVE",
"441 781 CURVE SMOOTH"
);
}
);
};
components = (
{
name = E;
},
{
name = dieresiscomb;
transform = "{1, 0, 0, 1, 311, 200}";
}
);
layerId = "0B1DFD06-3317-40CA-B510-4969A0718C16";
width = 574;
},
{
background = {
paths = (
{
closed = 1;
nodes = (
"554 0 LINE",
"571 179 LINE",
"544 179 LINE",
"538 124 OFFCURVE",
"520 40 OFFCURVE",
"456 40 CURVE SMOOTH",
"201 40 LINE",
"201 659 LINE",
"441 659 LINE SMOOTH",
"516 659 OFFCURVE",
"525 567 OFFCURVE",
"528 527 CURVE",
"555 527 LINE",
"555 700 LINE",
"16 700 LINE",
"16 673 LINE",
"44 673 LINE SMOOTH",
"83 673 OFFCURVE",
"103 662 OFFCURVE",
"103 637 CURVE SMOOTH",
"103 62 LINE SMOOTH",
"103 37 OFFCURVE",
"83 26 OFFCURVE",
"44 26 CURVE SMOOTH",
"16 26 LINE",
"16 0 LINE"
);
},
{
closed = 1;
nodes = (
"455 251 LINE",
"455 485 LINE",
"431 485 LINE",
"427 436 OFFCURVE",
"424 388 OFFCURVE",
"379 388 CURVE SMOOTH",
"162 388 LINE",
"162 348 LINE",
"379 348 LINE SMOOTH",
"424 348 OFFCURVE",
"427 300 OFFCURVE",
"431 251 CURVE"
);
},
{
closed = 1;
nodes = (
"254 781 OFFCURVE",
"272 800 OFFCURVE",
"272 827 CURVE SMOOTH",
"272 855 OFFCURVE",
"254 875 OFFCURVE",
"225 875 CURVE SMOOTH",
"197 875 OFFCURVE",
"179 855 OFFCURVE",
"179 827 CURVE SMOOTH",
"179 800 OFFCURVE",
"197 781 OFFCURVE",
"225 781 CURVE SMOOTH"
);
},
{
closed = 1;
nodes = (
"470 781 OFFCURVE",
"488 800 OFFCURVE",
"488 827 CURVE SMOOTH",
"488 855 OFFCURVE",
"470 875 OFFCURVE",
"441 875 CURVE SMOOTH",
"412 875 OFFCURVE",
"394 855 OFFCURVE",
"394 827 CURVE SMOOTH",
"394 800 OFFCURVE",
"412 781 OFFCURVE",
"441 781 CURVE SMOOTH"
);
}
);
};
components = (
{
name = E;
},
{
name = dieresiscomb;
transform = "{1, 0, 0, 1, 348, 200}";
}
);
layerId = "2F8C22CF-EC86-44F4-AF1A-A6C7F26A0C3C";
width = 640;
},
{
components = (
{
name = E;
},
{
name = dieresiscomb;
transform = "{1, 0, 0, 1, 301, 200}";
}
);
layerId = "17B9D149-A542-49FB-8130-D430586D7342";
width = 573;
},
{
background = {
paths = (
{
closed = 1;
nodes = (
"554 0 LINE",
"571 179 LINE",
"544 179 LINE",
"538 124 OFFCURVE",
"520 40 OFFCURVE",
"456 40 CURVE SMOOTH",
"201 40 LINE",
"201 659 LINE",
"441 659 LINE SMOOTH",
"516 659 OFFCURVE",
"525 567 OFFCURVE",
"528 527 CURVE",
"555 527 LINE",
"555 700 LINE",
"16 700 LINE",
"16 673 LINE",
"44 673 LINE SMOOTH",
"83 673 OFFCURVE",
"103 662 OFFCURVE",
"103 637 CURVE SMOOTH",
"103 62 LINE SMOOTH",
"103 37 OFFCURVE",
"83 26 OFFCURVE",
"44 26 CURVE SMOOTH",
"16 26 LINE",
"16 0 LINE"
);
},
{
closed = 1;
nodes = (
"455 251 LINE",
"455 485 LINE",
"431 485 LINE",
"427 436 OFFCURVE",
"424 388 OFFCURVE",
"379 388 CURVE SMOOTH",
"162 388 LINE",
"162 348 LINE",
"379 348 LINE SMOOTH",
"424 348 OFFCURVE",
"427 300 OFFCURVE",
"431 251 CURVE"
);
},
{
closed = 1;
nodes = (
"254 781 OFFCURVE",
"272 800 OFFCURVE",
"272 827 CURVE SMOOTH",
"272 855 OFFCURVE",
"254 875 OFFCURVE",
"225 875 CURVE SMOOTH",
"197 875 OFFCURVE",
"179 855 OFFCURVE",
"179 827 CURVE SMOOTH",
"179 800 OFFCURVE",
"197 781 OFFCURVE",
"225 781 CURVE SMOOTH"
);
},
{
closed = 1;
nodes = (
"470 781 OFFCURVE",
"488 800 OFFCURVE",
"488 827 CURVE SMOOTH",
"488 855 OFFCURVE",
"470 875 OFFCURVE",
"441 875 CURVE SMOOTH",
"412 875 OFFCURVE",
"394 855 OFFCURVE",
"394 827 CURVE SMOOTH",
"394 800 OFFCURVE",
"412 781 OFFCURVE",
"441 781 CURVE SMOOTH"
);
}
);
};
components = (
{
name = E;
},
{
name = dieresiscomb;
transform = "{1, 0, 0, 1, 346, 200}";
}
);
layerId = "2214C8E2-2079-4DC2-8649-1937C1DD8804";
width = 574;
},
{
components = (
{
name = E;
},
{
name = dieresiscomb;
transform = "{1, 0, 0, 1, 336, 200}";
}
);
layerId = "AEE50E4E-1B30-4E16-A434-AC23B12A4294";
width = 573;
},
{
background = {
paths = (
{
closed = 1;
nodes = (
"554 0 LINE",
"571 179 LINE",
"544 179 LINE",
"538 124 OFFCURVE",
"520 40 OFFCURVE",
"456 40 CURVE SMOOTH",
"201 40 LINE",
"201 659 LINE",
"441 659 LINE SMOOTH",
"516 659 OFFCURVE",
"525 567 OFFCURVE",
"528 527 CURVE",
"555 527 LINE",
"555 700 LINE",
"16 700 LINE",
"16 673 LINE",
"44 673 LINE SMOOTH",
"83 673 OFFCURVE",
"103 662 OFFCURVE",
"103 637 CURVE SMOOTH",
"103 62 LINE SMOOTH",
"103 37 OFFCURVE",
"83 26 OFFCURVE",
"44 26 CURVE SMOOTH",
"16 26 LINE",
"16 0 LINE"
);
},
{
closed = 1;
nodes = (
"455 251 LINE",
"455 485 LINE",
"431 485 LINE",
"427 436 OFFCURVE",
"424 388 OFFCURVE",
"379 388 CURVE SMOOTH",
"162 388 LINE",
"162 348 LINE",
"379 348 LINE SMOOTH",
"424 348 OFFCURVE",
"427 300 OFFCURVE",
"431 251 CURVE"
);
},
{
closed = 1;
nodes = (
"254 781 OFFCURVE",
"272 800 OFFCURVE",
"272 827 CURVE SMOOTH",
"272 855 OFFCURVE",
"254 875 OFFCURVE",
"225 875 CURVE SMOOTH",
"197 875 OFFCURVE",
"179 855 OFFCURVE",
"179 827 CURVE SMOOTH",
"179 800 OFFCURVE",
"197 781 OFFCURVE",
"225 781 CURVE SMOOTH"
);
},
{
closed = 1;
nodes = (
"470 781 OFFCURVE",
"488 800 OFFCURVE",
"488 827 CURVE SMOOTH",
"488 855 OFFCURVE",
"470 875 OFFCURVE",
"441 875 CURVE SMOOTH",
"412 875 OFFCURVE",
"394 855 OFFCURVE",
"394 827 CURVE SMOOTH",
"394 800 OFFCURVE",
"412 781 OFFCURVE",
"441 781 CURVE SMOOTH"
);
}
);
};
components = (
{
name = E;
},
{
name = dieresiscomb;
transform = "{1, 0, 0, 1, 383, 200}";
}
);
layerId = "F86CB789-B416-49E2-AD1B-BE88A4A88FF7";
width = 640;
}
);
note = Edieresis;
unicode = 00CB;
},
{
color = 9;
glyphname = Edotaccent;
lastChange = "2018-03-29 18:43:48 +0000";
layers = (
{
background = {
paths = (
{
closed = 1;
nodes = (
"554 0 LINE",
"571 179 LINE",
"544 179 LINE",
"538 124 OFFCURVE",
"520 40 OFFCURVE",
"456 40 CURVE SMOOTH",
"201 40 LINE",
"201 659 LINE",
"441 659 LINE SMOOTH",
"516 659 OFFCURVE",
"525 567 OFFCURVE",
"528 527 CURVE",
"555 527 LINE",
"555 700 LINE",
"16 700 LINE",
"16 673 LINE",
"44 673 LINE SMOOTH",
"83 673 OFFCURVE",
"103 662 OFFCURVE",
"103 637 CURVE SMOOTH",
"103 62 LINE SMOOTH",
"103 37 OFFCURVE",
"83 26 OFFCURVE",
"44 26 CURVE SMOOTH",
"16 26 LINE",
"16 0 LINE"
);
},
{
closed = 1;
nodes = (
"455 251 LINE",
"455 485 LINE",
"431 485 LINE",
"427 436 OFFCURVE",
"424 388 OFFCURVE",
"379 388 CURVE SMOOTH",
"162 388 LINE",
"162 348 LINE",
"379 348 LINE SMOOTH",
"424 348 OFFCURVE",
"427 300 OFFCURVE",
"431 251 CURVE"
);
},
{
closed = 1;
nodes = (
"362 765 OFFCURVE",
"380 784 OFFCURVE",
"380 811 CURVE SMOOTH",
"380 839 OFFCURVE",
"362 858 OFFCURVE",
"334 858 CURVE SMOOTH",
"305 858 OFFCURVE",
"287 839 OFFCURVE",
"287 811 CURVE SMOOTH",
"287 784 OFFCURVE",
"305 765 OFFCURVE",
"334 765 CURVE SMOOTH"
);
}
);
};
components = (
{
name = E;
},
{
name = dotaccentcomb;
transform = "{1, 0, 0, 1, 311, 200}";
}
);
layerId = "0B1DFD06-3317-40CA-B510-4969A0718C16";
width = 574;
},
{
background = {
paths = (
{
closed = 1;
nodes = (
"554 0 LINE",
"571 179 LINE",
"544 179 LINE",
"538 124 OFFCURVE",
"520 40 OFFCURVE",
"456 40 CURVE SMOOTH",
"201 40 LINE",
"201 659 LINE",
"441 659 LINE SMOOTH",
"516 659 OFFCURVE",
"525 567 OFFCURVE",
"528 527 CURVE",
"555 527 LINE",
"555 700 LINE",
"16 700 LINE",
"16 673 LINE",
"44 673 LINE SMOOTH",
"83 673 OFFCURVE",
"103 662 OFFCURVE",
"103 637 CURVE SMOOTH",
"103 62 LINE SMOOTH",
"103 37 OFFCURVE",
"83 26 OFFCURVE",
"44 26 CURVE SMOOTH",
"16 26 LINE",
"16 0 LINE"
);
},
{
closed = 1;
nodes = (
"455 251 LINE",
"455 485 LINE",
"431 485 LINE",
"427 436 OFFCURVE",
"424 388 OFFCURVE",
"379 388 CURVE SMOOTH",
"162 388 LINE",
"162 348 LINE",
"379 348 LINE SMOOTH",
"424 348 OFFCURVE",
"427 300 OFFCURVE",
"431 251 CURVE"
);
},
{
closed = 1;
nodes = (
"362 765 OFFCURVE",
"380 784 OFFCURVE",
"380 811 CURVE SMOOTH",
"380 839 OFFCURVE",
"362 858 OFFCURVE",
"334 858 CURVE SMOOTH",
"305 858 OFFCURVE",
"287 839 OFFCURVE",
"287 811 CURVE SMOOTH",
"287 784 OFFCURVE",
"305 765 OFFCURVE",
"334 765 CURVE SMOOTH"
);
}
);
};
components = (
{
name = E;
},
{
name = dotaccentcomb;
transform = "{1, 0, 0, 1, 349, 200}";
}
);
layerId = "2F8C22CF-EC86-44F4-AF1A-A6C7F26A0C3C";
width = 640;
},
{
components = (
{
name = E;
},
{
name = dotaccentcomb;
transform = "{1, 0, 0, 1, 301, 200}";
}
);
layerId = "17B9D149-A542-49FB-8130-D430586D7342";
width = 573;
},
{
background = {
paths = (
{
closed = 1;
nodes = (
"554 0 LINE",
"571 179 LINE",
"544 179 LINE",
"538 124 OFFCURVE",
"520 40 OFFCURVE",
"456 40 CURVE SMOOTH",
"201 40 LINE",
"201 659 LINE",
"441 659 LINE SMOOTH",
"516 659 OFFCURVE",
"525 567 OFFCURVE",
"528 527 CURVE",
"555 527 LINE",
"555 700 LINE",
"16 700 LINE",
"16 673 LINE",
"44 673 LINE SMOOTH",
"83 673 OFFCURVE",
"103 662 OFFCURVE",
"103 637 CURVE SMOOTH",
"103 62 LINE SMOOTH",
"103 37 OFFCURVE",
"83 26 OFFCURVE",
"44 26 CURVE SMOOTH",
"16 26 LINE",
"16 0 LINE"
);
},
{
closed = 1;
nodes = (
"455 251 LINE",
"455 485 LINE",
"431 485 LINE",
"427 436 OFFCURVE",
"424 388 OFFCURVE",
"379 388 CURVE SMOOTH",
"162 388 LINE",
"162 348 LINE",
"379 348 LINE SMOOTH",
"424 348 OFFCURVE",
"427 300 OFFCURVE",
"431 251 CURVE"
);
},
{
closed = 1;
nodes = (
"362 765 OFFCURVE",
"380 784 OFFCURVE",
"380 811 CURVE SMOOTH",
"380 839 OFFCURVE",
"362 858 OFFCURVE",
"334 858 CURVE SMOOTH",
"305 858 OFFCURVE",
"287 839 OFFCURVE",
"287 811 CURVE SMOOTH",
"287 784 OFFCURVE",
"305 765 OFFCURVE",
"334 765 CURVE SMOOTH"
);
}
);
};
components = (
{
name = E;
},
{
name = dotaccentcomb;
transform = "{1, 0, 0, 1, 346, 200}";
}
);
layerId = "2214C8E2-2079-4DC2-8649-1937C1DD8804";
width = 574;
},
{
components = (
{
name = E;
},
{
name = dotaccentcomb;
transform = "{1, 0, 0, 1, 336, 200}";
}
);
layerId = "AEE50E4E-1B30-4E16-A434-AC23B12A4294";
width = 573;
},
{
background = {
paths = (
{
closed = 1;
nodes = (
"554 0 LINE",
"571 179 LINE",
"544 179 LINE",
"538 124 OFFCURVE",
"520 40 OFFCURVE",
"456 40 CURVE SMOOTH",
"201 40 LINE",
"201 659 LINE",
"441 659 LINE SMOOTH",
"516 659 OFFCURVE",
"525 567 OFFCURVE",
"528 527 CURVE",
"555 527 LINE",
"555 700 LINE",
"16 700 LINE",
"16 673 LINE",
"44 673 LINE SMOOTH",
"83 673 OFFCURVE",
"103 662 OFFCURVE",
"103 637 CURVE SMOOTH",
"103 62 LINE SMOOTH",
"103 37 OFFCURVE",
"83 26 OFFCURVE",
"44 26 CURVE SMOOTH",
"16 26 LINE",
"16 0 LINE"
);
},
{
closed = 1;
nodes = (
"455 251 LINE",
"455 485 LINE",
"431 485 LINE",
"427 436 OFFCURVE",
"424 388 OFFCURVE",
"379 388 CURVE SMOOTH",
"162 388 LINE",
"162 348 LINE",
"379 348 LINE SMOOTH",
"424 348 OFFCURVE",
"427 300 OFFCURVE",
"431 251 CURVE"
);
},
{
closed = 1;
nodes = (
"362 765 OFFCURVE",
"380 784 OFFCURVE",
"380 811 CURVE SMOOTH",
"380 839 OFFCURVE",
"362 858 OFFCURVE",
"334 858 CURVE SMOOTH",
"305 858 OFFCURVE",
"287 839 OFFCURVE",
"287 811 CURVE SMOOTH",
"287 784 OFFCURVE",
"305 765 OFFCURVE",
"334 765 CURVE SMOOTH"
);
}
);
};
components = (
{
name = E;
},
{
name = dotaccentcomb;
transform = "{1, 0, 0, 1, 384, 200}";
}
);
layerId = "F86CB789-B416-49E2-AD1B-BE88A4A88FF7";
width = 640;
}
);
note = Edotaccent;
unicode = 0116;
},
{
color = 9;
glyphname = Edotbelow;
lastChange = "2018-03-29 18:43:48 +0000";
layers = (
{
background = {
paths = (
{
closed = 1;
nodes = (
"554 0 LINE",
"571 179 LINE",
"544 179 LINE",
"538 124 OFFCURVE",
"520 40 OFFCURVE",
"456 40 CURVE SMOOTH",
"201 40 LINE",
"201 659 LINE",
"441 659 LINE SMOOTH",
"516 659 OFFCURVE",
"525 567 OFFCURVE",
"528 527 CURVE",
"555 527 LINE",
"555 700 LINE",
"16 700 LINE",
"16 673 LINE",
"44 673 LINE SMOOTH",
"83 673 OFFCURVE",
"103 662 OFFCURVE",
"103 637 CURVE SMOOTH",
"103 62 LINE SMOOTH",
"103 37 OFFCURVE",
"83 26 OFFCURVE",
"44 26 CURVE SMOOTH",
"16 26 LINE",
"16 0 LINE"
);
},
{
closed = 1;
nodes = (
"343 -159 OFFCURVE",
"361 -140 OFFCURVE",
"361 -112 CURVE SMOOTH",
"361 -84 OFFCURVE",
"343 -64 OFFCURVE",
"315 -64 CURVE SMOOTH",
"287 -64 OFFCURVE",
"268 -84 OFFCURVE",
"268 -112 CURVE SMOOTH",
"268 -140 OFFCURVE",
"287 -159 OFFCURVE",
"315 -159 CURVE SMOOTH"
);
},
{
closed = 1;
nodes = (
"455 251 LINE",
"455 485 LINE",
"431 485 LINE",
"427 436 OFFCURVE",
"424 388 OFFCURVE",
"379 388 CURVE SMOOTH",
"162 388 LINE",
"162 348 LINE",
"379 348 LINE SMOOTH",
"424 348 OFFCURVE",
"427 300 OFFCURVE",
"431 251 CURVE"
);
}
);
};
components = (
{
name = E;
},
{
name = dotbelowcomb;
transform = "{1, 0, 0, 1, 311, 0}";
}
);
layerId = "0B1DFD06-3317-40CA-B510-4969A0718C16";
width = 574;
},
{
background = {
paths = (
{
closed = 1;
nodes = (
"554 0 LINE",
"571 179 LINE",
"544 179 LINE",
"538 124 OFFCURVE",
"520 40 OFFCURVE",
"456 40 CURVE SMOOTH",
"201 40 LINE",
"201 659 LINE",
"441 659 LINE SMOOTH",
"516 659 OFFCURVE",
"525 567 OFFCURVE",
"528 527 CURVE",
"555 527 LINE",
"555 700 LINE",
"16 700 LINE",
"16 673 LINE",
"44 673 LINE SMOOTH",
"83 673 OFFCURVE",
"103 662 OFFCURVE",
"103 637 CURVE SMOOTH",
"103 62 LINE SMOOTH",
"103 37 OFFCURVE",
"83 26 OFFCURVE",
"44 26 CURVE SMOOTH",
"16 26 LINE",
"16 0 LINE"
);
},
{
closed = 1;
nodes = (
"343 -159 OFFCURVE",
"361 -140 OFFCURVE",
"361 -112 CURVE SMOOTH",
"361 -84 OFFCURVE",
"343 -64 OFFCURVE",
"315 -64 CURVE SMOOTH",
"287 -64 OFFCURVE",
"268 -84 OFFCURVE",
"268 -112 CURVE SMOOTH",
"268 -140 OFFCURVE",
"287 -159 OFFCURVE",
"315 -159 CURVE SMOOTH"
);
},
{
closed = 1;
nodes = (
"455 251 LINE",
"455 485 LINE",
"431 485 LINE",
"427 436 OFFCURVE",
"424 388 OFFCURVE",
"379 388 CURVE SMOOTH",
"162 388 LINE",
"162 348 LINE",
"379 348 LINE SMOOTH",
"424 348 OFFCURVE",
"427 300 OFFCURVE",
"431 251 CURVE"
);
}
);
};
components = (
{
name = E;
},
{
name = dotbelowcomb;
transform = "{1, 0, 0, 1, 348, 0}";
}
);
layerId = "2F8C22CF-EC86-44F4-AF1A-A6C7F26A0C3C";
width = 640;
},
{
components = (
{
name = E;
},
{
name = dotbelowcomb;
transform = "{1, 0, 0, 1, 301, 0}";
}
);
layerId = "17B9D149-A542-49FB-8130-D430586D7342";
width = 573;
},
{
background = {
paths = (
{
closed = 1;
nodes = (
"554 0 LINE",
"571 179 LINE",
"544 179 LINE",
"538 124 OFFCURVE",
"520 40 OFFCURVE",
"456 40 CURVE SMOOTH",
"201 40 LINE",
"201 659 LINE",
"441 659 LINE SMOOTH",
"516 659 OFFCURVE",
"525 567 OFFCURVE",
"528 527 CURVE",
"555 527 LINE",
"555 700 LINE",
"16 700 LINE",
"16 673 LINE",
"44 673 LINE SMOOTH",
"83 673 OFFCURVE",
"103 662 OFFCURVE",
"103 637 CURVE SMOOTH",
"103 62 LINE SMOOTH",
"103 37 OFFCURVE",
"83 26 OFFCURVE",
"44 26 CURVE SMOOTH",
"16 26 LINE",
"16 0 LINE"
);
},
{
closed = 1;
nodes = (
"343 -159 OFFCURVE",
"361 -140 OFFCURVE",
"361 -112 CURVE SMOOTH",
"361 -84 OFFCURVE",
"343 -64 OFFCURVE",
"315 -64 CURVE SMOOTH",
"287 -64 OFFCURVE",
"268 -84 OFFCURVE",
"268 -112 CURVE SMOOTH",
"268 -140 OFFCURVE",
"287 -159 OFFCURVE",
"315 -159 CURVE SMOOTH"
);
},
{
closed = 1;
nodes = (
"455 251 LINE",
"455 485 LINE",
"431 485 LINE",
"427 436 OFFCURVE",
"424 388 OFFCURVE",
"379 388 CURVE SMOOTH",
"162 388 LINE",
"162 348 LINE",
"379 348 LINE SMOOTH",
"424 348 OFFCURVE",
"427 300 OFFCURVE",
"431 251 CURVE"
);
}
);
};
components = (
{
name = E;
},
{
name = dotbelowcomb;
transform = "{1, 0, 0, 1, 311, 0}";
}
);
layerId = "2214C8E2-2079-4DC2-8649-1937C1DD8804";
width = 574;
},
{
components = (
{
name = E;
},
{
name = dotbelowcomb;
transform = "{1, 0, 0, 1, 301, 0}";
}
);
layerId = "AEE50E4E-1B30-4E16-A434-AC23B12A4294";
width = 573;
},
{
background = {
paths = (
{
closed = 1;
nodes = (
"554 0 LINE",
"571 179 LINE",
"544 179 LINE",
"538 124 OFFCURVE",
"520 40 OFFCURVE",
"456 40 CURVE SMOOTH",
"201 40 LINE",
"201 659 LINE",
"441 659 LINE SMOOTH",
"516 659 OFFCURVE",
"525 567 OFFCURVE",
"528 527 CURVE",
"555 527 LINE",
"555 700 LINE",
"16 700 LINE",
"16 673 LINE",
"44 673 LINE SMOOTH",
"83 673 OFFCURVE",
"103 662 OFFCURVE",
"103 637 CURVE SMOOTH",
"103 62 LINE SMOOTH",
"103 37 OFFCURVE",
"83 26 OFFCURVE",
"44 26 CURVE SMOOTH",
"16 26 LINE",
"16 0 LINE"
);
},
{
closed = 1;
nodes = (
"343 -159 OFFCURVE",
"361 -140 OFFCURVE",
"361 -112 CURVE SMOOTH",
"361 -84 OFFCURVE",
"343 -64 OFFCURVE",
"315 -64 CURVE SMOOTH",
"287 -64 OFFCURVE",
"268 -84 OFFCURVE",
"268 -112 CURVE SMOOTH",
"268 -140 OFFCURVE",
"287 -159 OFFCURVE",
"315 -159 CURVE SMOOTH"
);
},
{
closed = 1;
nodes = (
"455 251 LINE",
"455 485 LINE",
"431 485 LINE",
"427 436 OFFCURVE",
"424 388 OFFCURVE",
"379 388 CURVE SMOOTH",
"162 388 LINE",
"162 348 LINE",
"379 348 LINE SMOOTH",
"424 348 OFFCURVE",
"427 300 OFFCURVE",
"431 251 CURVE"
);
}
);
};
components = (
{
name = E;
},
{
name = dotbelowcomb;
transform = "{1, 0, 0, 1, 348, 0}";
}
);
layerId = "F86CB789-B416-49E2-AD1B-BE88A4A88FF7";
width = 640;
}
);
note = Edotbelow;
unicode = 1EB8;
},
{
color = 9;
glyphname = Egrave;
lastChange = "2018-03-29 18:43:48 +0000";
layers = (
{
background = {
paths = (
{
closed = 1;
nodes = (
"554 0 LINE",
"571 179 LINE",
"544 179 LINE",
"538 124 OFFCURVE",
"520 40 OFFCURVE",
"456 40 CURVE SMOOTH",
"201 40 LINE",
"201 659 LINE",
"441 659 LINE SMOOTH",
"516 659 OFFCURVE",
"525 567 OFFCURVE",
"528 527 CURVE",
"555 527 LINE",
"555 700 LINE",
"16 700 LINE",
"16 673 LINE",
"44 673 LINE SMOOTH",
"83 673 OFFCURVE",
"103 662 OFFCURVE",
"103 637 CURVE SMOOTH",
"103 62 LINE SMOOTH",
"103 37 OFFCURVE",
"83 26 OFFCURVE",
"44 26 CURVE SMOOTH",
"16 26 LINE",
"16 0 LINE"
);
},
{
closed = 1;
nodes = (
"455 251 LINE",
"455 485 LINE",
"431 485 LINE",
"427 436 OFFCURVE",
"424 388 OFFCURVE",
"379 388 CURVE SMOOTH",
"162 388 LINE",
"162 348 LINE",
"379 348 LINE SMOOTH",
"424 348 OFFCURVE",
"427 300 OFFCURVE",
"431 251 CURVE"
);
},
{
closed = 1;
nodes = (
"425 807 LINE",
"310 913 LINE",
"301 922 OFFCURVE",
"285 937 OFFCURVE",
"265 937 CURVE SMOOTH",
"245 937 OFFCURVE",
"233 924 OFFCURVE",
"233 908 CURVE SMOOTH",
"233 890 OFFCURVE",
"245 876 OFFCURVE",
"264 865 CURVE SMOOTH",
"407 782 LINE"
);
}
);
};
components = (
{
name = E;
},
{
name = gravecomb;
transform = "{1, 0, 0, 1, 311, 200}";
}
);
layerId = "0B1DFD06-3317-40CA-B510-4969A0718C16";
width = 574;
},
{
background = {
paths = (
{
closed = 1;
nodes = (
"554 0 LINE",
"571 179 LINE",
"544 179 LINE",
"538 124 OFFCURVE",
"520 40 OFFCURVE",
"456 40 CURVE SMOOTH",
"201 40 LINE",
"201 659 LINE",
"441 659 LINE SMOOTH",
"516 659 OFFCURVE",
"525 567 OFFCURVE",
"528 527 CURVE",
"555 527 LINE",
"555 700 LINE",
"16 700 LINE",
"16 673 LINE",
"44 673 LINE SMOOTH",
"83 673 OFFCURVE",
"103 662 OFFCURVE",
"103 637 CURVE SMOOTH",
"103 62 LINE SMOOTH",
"103 37 OFFCURVE",
"83 26 OFFCURVE",
"44 26 CURVE SMOOTH",
"16 26 LINE",
"16 0 LINE"
);
},
{
closed = 1;
nodes = (
"455 251 LINE",
"455 485 LINE",
"431 485 LINE",
"427 436 OFFCURVE",
"424 388 OFFCURVE",
"379 388 CURVE SMOOTH",
"162 388 LINE",
"162 348 LINE",
"379 348 LINE SMOOTH",
"424 348 OFFCURVE",
"427 300 OFFCURVE",
"431 251 CURVE"
);
},
{
closed = 1;
nodes = (
"425 807 LINE",
"310 913 LINE",
"301 922 OFFCURVE",
"285 937 OFFCURVE",
"265 937 CURVE SMOOTH",
"245 937 OFFCURVE",
"233 924 OFFCURVE",
"233 908 CURVE SMOOTH",
"233 890 OFFCURVE",
"245 876 OFFCURVE",
"264 865 CURVE SMOOTH",
"407 782 LINE"
);
}
);
};
components = (
{
name = E;
},
{
name = gravecomb;
transform = "{1, 0, 0, 1, 348, 200}";
}
);
layerId = "2F8C22CF-EC86-44F4-AF1A-A6C7F26A0C3C";
width = 640;
},
{
components = (
{
name = E;
},
{
name = gravecomb;
transform = "{1, 0, 0, 1, 301, 200}";
}
);
layerId = "17B9D149-A542-49FB-8130-D430586D7342";
width = 573;
},
{
background = {
paths = (
{
closed = 1;
nodes = (
"554 0 LINE",
"571 179 LINE",
"544 179 LINE",
"538 124 OFFCURVE",
"520 40 OFFCURVE",
"456 40 CURVE SMOOTH",
"201 40 LINE",
"201 659 LINE",
"441 659 LINE SMOOTH",
"516 659 OFFCURVE",
"525 567 OFFCURVE",
"528 527 CURVE",
"555 527 LINE",
"555 700 LINE",
"16 700 LINE",
"16 673 LINE",
"44 673 LINE SMOOTH",
"83 673 OFFCURVE",
"103 662 OFFCURVE",
"103 637 CURVE SMOOTH",
"103 62 LINE SMOOTH",
"103 37 OFFCURVE",
"83 26 OFFCURVE",
"44 26 CURVE SMOOTH",
"16 26 LINE",
"16 0 LINE"
);
},
{
closed = 1;
nodes = (
"455 251 LINE",
"455 485 LINE",
"431 485 LINE",
"427 436 OFFCURVE",
"424 388 OFFCURVE",
"379 388 CURVE SMOOTH",
"162 388 LINE",
"162 348 LINE",
"379 348 LINE SMOOTH",
"424 348 OFFCURVE",
"427 300 OFFCURVE",
"431 251 CURVE"
);
},
{
closed = 1;
nodes = (
"425 807 LINE",
"310 913 LINE",
"301 922 OFFCURVE",
"285 937 OFFCURVE",
"265 937 CURVE SMOOTH",
"245 937 OFFCURVE",
"233 924 OFFCURVE",
"233 908 CURVE SMOOTH",
"233 890 OFFCURVE",
"245 876 OFFCURVE",
"264 865 CURVE SMOOTH",
"407 782 LINE"
);
}
);
};
components = (
{
name = E;
},
{
name = gravecomb;
transform = "{1, 0, 0, 1, 346, 200}";
}
);
layerId = "2214C8E2-2079-4DC2-8649-1937C1DD8804";
width = 574;
},
{
components = (
{
name = E;
},
{
name = gravecomb;
transform = "{1, 0, 0, 1, 336, 200}";
}
);
layerId = "AEE50E4E-1B30-4E16-A434-AC23B12A4294";
width = 573;
},
{
background = {
paths = (
{
closed = 1;
nodes = (
"554 0 LINE",
"571 179 LINE",
"544 179 LINE",
"538 124 OFFCURVE",
"520 40 OFFCURVE",
"456 40 CURVE SMOOTH",
"201 40 LINE",
"201 659 LINE",
"441 659 LINE SMOOTH",
"516 659 OFFCURVE",
"525 567 OFFCURVE",
"528 527 CURVE",
"555 527 LINE",
"555 700 LINE",
"16 700 LINE",
"16 673 LINE",
"44 673 LINE SMOOTH",
"83 673 OFFCURVE",
"103 662 OFFCURVE",
"103 637 CURVE SMOOTH",
"103 62 LINE SMOOTH",
"103 37 OFFCURVE",
"83 26 OFFCURVE",
"44 26 CURVE SMOOTH",
"16 26 LINE",
"16 0 LINE"
);
},
{
closed = 1;
nodes = (
"455 251 LINE",
"455 485 LINE",
"431 485 LINE",
"427 436 OFFCURVE",
"424 388 OFFCURVE",
"379 388 CURVE SMOOTH",
"162 388 LINE",
"162 348 LINE",
"379 348 LINE SMOOTH",
"424 348 OFFCURVE",
"427 300 OFFCURVE",
"431 251 CURVE"
);
},
{
closed = 1;
nodes = (
"425 807 LINE",
"310 913 LINE",
"301 922 OFFCURVE",
"285 937 OFFCURVE",
"265 937 CURVE SMOOTH",
"245 937 OFFCURVE",
"233 924 OFFCURVE",
"233 908 CURVE SMOOTH",
"233 890 OFFCURVE",
"245 876 OFFCURVE",
"264 865 CURVE SMOOTH",
"407 782 LINE"
);
}
);
};
components = (
{
name = E;
},
{
name = gravecomb;
transform = "{1, 0, 0, 1, 383, 200}";
}
);
layerId = "F86CB789-B416-49E2-AD1B-BE88A4A88FF7";
width = 640;
}
);
note = Egrave;
unicode = 00C8;
},
{
color = 9;
glyphname = Ehookabove;
lastChange = "2018-03-29 18:43:48 +0000";
layers = (
{
background = {
paths = (
{
closed = 1;
nodes = (
"554 0 LINE",
"571 179 LINE",
"544 179 LINE",
"538 124 OFFCURVE",
"520 40 OFFCURVE",
"456 40 CURVE SMOOTH",
"201 40 LINE",
"201 659 LINE",
"441 659 LINE SMOOTH",
"516 659 OFFCURVE",
"525 567 OFFCURVE",
"528 527 CURVE",
"555 527 LINE",
"555 700 LINE",
"16 700 LINE",
"16 673 LINE",
"44 673 LINE SMOOTH",
"83 673 OFFCURVE",
"103 662 OFFCURVE",
"103 637 CURVE SMOOTH",
"103 62 LINE SMOOTH",
"103 37 OFFCURVE",
"83 26 OFFCURVE",
"44 26 CURVE SMOOTH",
"16 26 LINE",
"16 0 LINE"
);
},
{
closed = 1;
nodes = (
"455 251 LINE",
"455 485 LINE",
"431 485 LINE",
"427 436 OFFCURVE",
"424 388 OFFCURVE",
"379 388 CURVE SMOOTH",
"162 388 LINE",
"162 348 LINE",
"379 348 LINE SMOOTH",
"424 348 OFFCURVE",
"427 300 OFFCURVE",
"431 251 CURVE"
);
},
{
closed = 1;
nodes = (
"367 798 LINE",
"348 805 OFFCURVE",
"336 811 OFFCURVE",
"336 828 CURVE SMOOTH",
"336 861 OFFCURVE",
"425 876 OFFCURVE",
"425 927 CURVE SMOOTH",
"425 969 OFFCURVE",
"389 991 OFFCURVE",
"336 991 CURVE SMOOTH",
"289 991 OFFCURVE",
"248 974 OFFCURVE",
"248 940 CURVE SMOOTH",
"248 923 OFFCURVE",
"256 915 OFFCURVE",
"271 915 CURVE SMOOTH",
"294 915 OFFCURVE",
"296 934 OFFCURVE",
"299 942 CURVE SMOOTH",
"304 956 OFFCURVE",
"321 962 OFFCURVE",
"337 962 CURVE SMOOTH",
"358 962 OFFCURVE",
"371 947 OFFCURVE",
"371 930 CURVE SMOOTH",
"371 885 OFFCURVE",
"289 874 OFFCURVE",
"289 828 CURVE SMOOTH",
"289 801 OFFCURVE",
"307 778 OFFCURVE",
"358 778 CURVE"
);
}
);
};
components = (
{
name = E;
},
{
name = hookabovecomb;
transform = "{1, 0, 0, 1, 311, 200}";
}
);
layerId = "0B1DFD06-3317-40CA-B510-4969A0718C16";
width = 574;
},
{
background = {
paths = (
{
closed = 1;
nodes = (
"554 0 LINE",
"571 179 LINE",
"544 179 LINE",
"538 124 OFFCURVE",
"520 40 OFFCURVE",
"456 40 CURVE SMOOTH",
"201 40 LINE",
"201 659 LINE",
"441 659 LINE SMOOTH",
"516 659 OFFCURVE",
"525 567 OFFCURVE",
"528 527 CURVE",
"555 527 LINE",
"555 700 LINE",
"16 700 LINE",
"16 673 LINE",
"44 673 LINE SMOOTH",
"83 673 OFFCURVE",
"103 662 OFFCURVE",
"103 637 CURVE SMOOTH",
"103 62 LINE SMOOTH",
"103 37 OFFCURVE",
"83 26 OFFCURVE",
"44 26 CURVE SMOOTH",
"16 26 LINE",
"16 0 LINE"
);
},
{
closed = 1;
nodes = (
"455 251 LINE",
"455 485 LINE",
"431 485 LINE",
"427 436 OFFCURVE",
"424 388 OFFCURVE",
"379 388 CURVE SMOOTH",
"162 388 LINE",
"162 348 LINE",
"379 348 LINE SMOOTH",
"424 348 OFFCURVE",
"427 300 OFFCURVE",
"431 251 CURVE"
);
},
{
closed = 1;
nodes = (
"367 798 LINE",
"348 805 OFFCURVE",
"336 811 OFFCURVE",
"336 828 CURVE SMOOTH",
"336 861 OFFCURVE",
"425 876 OFFCURVE",
"425 927 CURVE SMOOTH",
"425 969 OFFCURVE",
"389 991 OFFCURVE",
"336 991 CURVE SMOOTH",
"289 991 OFFCURVE",
"248 974 OFFCURVE",
"248 940 CURVE SMOOTH",
"248 923 OFFCURVE",
"256 915 OFFCURVE",
"271 915 CURVE SMOOTH",
"294 915 OFFCURVE",
"296 934 OFFCURVE",
"299 942 CURVE SMOOTH",
"304 956 OFFCURVE",
"321 962 OFFCURVE",
"337 962 CURVE SMOOTH",
"358 962 OFFCURVE",
"371 947 OFFCURVE",
"371 930 CURVE SMOOTH",
"371 885 OFFCURVE",
"289 874 OFFCURVE",
"289 828 CURVE SMOOTH",
"289 801 OFFCURVE",
"307 778 OFFCURVE",
"358 778 CURVE"
);
}
);
};
components = (
{
name = E;
},
{
name = hookabovecomb;
transform = "{1, 0, 0, 1, 348, 200}";
}
);
layerId = "2F8C22CF-EC86-44F4-AF1A-A6C7F26A0C3C";
width = 640;
},
{
components = (
{
name = E;
},
{
name = hookabovecomb;
transform = "{1, 0, 0, 1, 301, 200}";
}
);
layerId = "17B9D149-A542-49FB-8130-D430586D7342";
width = 573;
},
{
background = {
paths = (
{
closed = 1;
nodes = (
"554 0 LINE",
"571 179 LINE",
"544 179 LINE",
"538 124 OFFCURVE",
"520 40 OFFCURVE",
"456 40 CURVE SMOOTH",
"201 40 LINE",
"201 659 LINE",
"441 659 LINE SMOOTH",
"516 659 OFFCURVE",
"525 567 OFFCURVE",
"528 527 CURVE",
"555 527 LINE",
"555 700 LINE",
"16 700 LINE",
"16 673 LINE",
"44 673 LINE SMOOTH",
"83 673 OFFCURVE",
"103 662 OFFCURVE",
"103 637 CURVE SMOOTH",
"103 62 LINE SMOOTH",
"103 37 OFFCURVE",
"83 26 OFFCURVE",
"44 26 CURVE SMOOTH",
"16 26 LINE",
"16 0 LINE"
);
},
{
closed = 1;
nodes = (
"455 251 LINE",
"455 485 LINE",
"431 485 LINE",
"427 436 OFFCURVE",
"424 388 OFFCURVE",
"379 388 CURVE SMOOTH",
"162 388 LINE",
"162 348 LINE",
"379 348 LINE SMOOTH",
"424 348 OFFCURVE",
"427 300 OFFCURVE",
"431 251 CURVE"
);
},
{
closed = 1;
nodes = (
"367 798 LINE",
"348 805 OFFCURVE",
"336 811 OFFCURVE",
"336 828 CURVE SMOOTH",
"336 861 OFFCURVE",
"425 876 OFFCURVE",
"425 927 CURVE SMOOTH",
"425 969 OFFCURVE",
"389 991 OFFCURVE",
"336 991 CURVE SMOOTH",
"289 991 OFFCURVE",
"248 974 OFFCURVE",
"248 940 CURVE SMOOTH",
"248 923 OFFCURVE",
"256 915 OFFCURVE",
"271 915 CURVE SMOOTH",
"294 915 OFFCURVE",
"296 934 OFFCURVE",
"299 942 CURVE SMOOTH",
"304 956 OFFCURVE",
"321 962 OFFCURVE",
"337 962 CURVE SMOOTH",
"358 962 OFFCURVE",
"371 947 OFFCURVE",
"371 930 CURVE SMOOTH",
"371 885 OFFCURVE",
"289 874 OFFCURVE",
"289 828 CURVE SMOOTH",
"289 801 OFFCURVE",
"307 778 OFFCURVE",
"358 778 CURVE"
);
}
);
};
components = (
{
name = E;
},
{
name = hookabovecomb;
transform = "{1, 0, 0, 1, 346, 200}";
}
);
layerId = "2214C8E2-2079-4DC2-8649-1937C1DD8804";
width = 574;
},
{
components = (
{
name = E;
},
{
name = hookabovecomb;
transform = "{1, 0, 0, 1, 336, 200}";
}
);
layerId = "AEE50E4E-1B30-4E16-A434-AC23B12A4294";
width = 573;
},
{
background = {
paths = (
{
closed = 1;
nodes = (
"554 0 LINE",
"571 179 LINE",
"544 179 LINE",
"538 124 OFFCURVE",
"520 40 OFFCURVE",
"456 40 CURVE SMOOTH",
"201 40 LINE",
"201 659 LINE",
"441 659 LINE SMOOTH",
"516 659 OFFCURVE",
"525 567 OFFCURVE",
"528 527 CURVE",
"555 527 LINE",
"555 700 LINE",
"16 700 LINE",
"16 673 LINE",
"44 673 LINE SMOOTH",
"83 673 OFFCURVE",
"103 662 OFFCURVE",
"103 637 CURVE SMOOTH",
"103 62 LINE SMOOTH",
"103 37 OFFCURVE",
"83 26 OFFCURVE",
"44 26 CURVE SMOOTH",
"16 26 LINE",
"16 0 LINE"
);
},
{
closed = 1;
nodes = (
"455 251 LINE",
"455 485 LINE",
"431 485 LINE",
"427 436 OFFCURVE",
"424 388 OFFCURVE",
"379 388 CURVE SMOOTH",
"162 388 LINE",
"162 348 LINE",
"379 348 LINE SMOOTH",
"424 348 OFFCURVE",
"427 300 OFFCURVE",
"431 251 CURVE"
);
},
{
closed = 1;
nodes = (
"367 798 LINE",
"348 805 OFFCURVE",
"336 811 OFFCURVE",
"336 828 CURVE SMOOTH",
"336 861 OFFCURVE",
"425 876 OFFCURVE",
"425 927 CURVE SMOOTH",
"425 969 OFFCURVE",
"389 991 OFFCURVE",
"336 991 CURVE SMOOTH",
"289 991 OFFCURVE",
"248 974 OFFCURVE",
"248 940 CURVE SMOOTH",
"248 923 OFFCURVE",
"256 915 OFFCURVE",
"271 915 CURVE SMOOTH",
"294 915 OFFCURVE",
"296 934 OFFCURVE",
"299 942 CURVE SMOOTH",
"304 956 OFFCURVE",
"321 962 OFFCURVE",
"337 962 CURVE SMOOTH",
"358 962 OFFCURVE",
"371 947 OFFCURVE",
"371 930 CURVE SMOOTH",
"371 885 OFFCURVE",
"289 874 OFFCURVE",
"289 828 CURVE SMOOTH",
"289 801 OFFCURVE",
"307 778 OFFCURVE",
"358 778 CURVE"
);
}
);
};
components = (
{
name = E;
},
{
name = hookabovecomb;
transform = "{1, 0, 0, 1, 383, 200}";
}
);
layerId = "F86CB789-B416-49E2-AD1B-BE88A4A88FF7";
width = 640;
}
);
note = Ehookabove;
unicode = 1EBA;
},
{
color = 9;
glyphname = Emacron;
lastChange = "2018-03-29 18:43:48 +0000";
layers = (
{
background = {
paths = (
{
closed = 1;
nodes = (
"554 0 LINE",
"571 179 LINE",
"544 179 LINE",
"538 124 OFFCURVE",
"520 40 OFFCURVE",
"456 40 CURVE SMOOTH",
"201 40 LINE",
"201 659 LINE",
"441 659 LINE SMOOTH",
"516 659 OFFCURVE",
"525 567 OFFCURVE",
"528 527 CURVE",
"555 527 LINE",
"555 700 LINE",
"16 700 LINE",
"16 673 LINE",
"44 673 LINE SMOOTH",
"83 673 OFFCURVE",
"103 662 OFFCURVE",
"103 637 CURVE SMOOTH",
"103 62 LINE SMOOTH",
"103 37 OFFCURVE",
"83 26 OFFCURVE",
"44 26 CURVE SMOOTH",
"16 26 LINE",
"16 0 LINE"
);
},
{
closed = 1;
nodes = (
"455 251 LINE",
"455 485 LINE",
"431 485 LINE",
"427 436 OFFCURVE",
"424 388 OFFCURVE",
"379 388 CURVE SMOOTH",
"162 388 LINE",
"162 348 LINE",
"379 348 LINE SMOOTH",
"424 348 OFFCURVE",
"427 300 OFFCURVE",
"431 251 CURVE"
);
},
{
closed = 1;
nodes = (
"495 782 LINE",
"495 824 LINE",
"162 824 LINE",
"162 782 LINE"
);
}
);
};
components = (
{
name = E;
},
{
name = macroncomb;
transform = "{1, 0, 0, 1, 311, 200}";
}
);
layerId = "0B1DFD06-3317-40CA-B510-4969A0718C16";
width = 574;
},
{
background = {
paths = (
{
closed = 1;
nodes = (
"554 0 LINE",
"571 179 LINE",
"544 179 LINE",
"538 124 OFFCURVE",
"520 40 OFFCURVE",
"456 40 CURVE SMOOTH",
"201 40 LINE",
"201 659 LINE",
"441 659 LINE SMOOTH",
"516 659 OFFCURVE",
"525 567 OFFCURVE",
"528 527 CURVE",
"555 527 LINE",
"555 700 LINE",
"16 700 LINE",
"16 673 LINE",
"44 673 LINE SMOOTH",
"83 673 OFFCURVE",
"103 662 OFFCURVE",
"103 637 CURVE SMOOTH",
"103 62 LINE SMOOTH",
"103 37 OFFCURVE",
"83 26 OFFCURVE",
"44 26 CURVE SMOOTH",
"16 26 LINE",
"16 0 LINE"
);
},
{
closed = 1;
nodes = (
"455 251 LINE",
"455 485 LINE",
"431 485 LINE",
"427 436 OFFCURVE",
"424 388 OFFCURVE",
"379 388 CURVE SMOOTH",
"162 388 LINE",
"162 348 LINE",
"379 348 LINE SMOOTH",
"424 348 OFFCURVE",
"427 300 OFFCURVE",
"431 251 CURVE"
);
},
{
closed = 1;
nodes = (
"495 782 LINE",
"495 824 LINE",
"162 824 LINE",
"162 782 LINE"
);
}
);
};
components = (
{
name = E;
},
{
name = macroncomb;
transform = "{1, 0, 0, 1, 348, 200}";
}
);
layerId = "2F8C22CF-EC86-44F4-AF1A-A6C7F26A0C3C";
width = 640;
},
{
components = (
{
name = E;
},
{
name = macroncomb;
transform = "{1, 0, 0, 1, 301, 200}";
}
);
layerId = "17B9D149-A542-49FB-8130-D430586D7342";
width = 573;
},
{
background = {
paths = (
{
closed = 1;
nodes = (
"554 0 LINE",
"571 179 LINE",
"544 179 LINE",
"538 124 OFFCURVE",
"520 40 OFFCURVE",
"456 40 CURVE SMOOTH",
"201 40 LINE",
"201 659 LINE",
"441 659 LINE SMOOTH",
"516 659 OFFCURVE",
"525 567 OFFCURVE",
"528 527 CURVE",
"555 527 LINE",
"555 700 LINE",
"16 700 LINE",
"16 673 LINE",
"44 673 LINE SMOOTH",
"83 673 OFFCURVE",
"103 662 OFFCURVE",
"103 637 CURVE SMOOTH",
"103 62 LINE SMOOTH",
"103 37 OFFCURVE",
"83 26 OFFCURVE",
"44 26 CURVE SMOOTH",
"16 26 LINE",
"16 0 LINE"
);
},
{
closed = 1;
nodes = (
"455 251 LINE",
"455 485 LINE",
"431 485 LINE",
"427 436 OFFCURVE",
"424 388 OFFCURVE",
"379 388 CURVE SMOOTH",
"162 388 LINE",
"162 348 LINE",
"379 348 LINE SMOOTH",
"424 348 OFFCURVE",
"427 300 OFFCURVE",
"431 251 CURVE"
);
},
{
closed = 1;
nodes = (
"495 782 LINE",
"495 824 LINE",
"162 824 LINE",
"162 782 LINE"
);
}
);
};
components = (
{
name = E;
},
{
name = macroncomb;
transform = "{1, 0, 0, 1, 346, 200}";
}
);
layerId = "2214C8E2-2079-4DC2-8649-1937C1DD8804";
width = 574;
},
{
components = (
{
name = E;
},
{
name = macroncomb;
transform = "{1, 0, 0, 1, 336, 200}";
}
);
layerId = "AEE50E4E-1B30-4E16-A434-AC23B12A4294";
width = 573;
},
{
background = {
paths = (
{
closed = 1;
nodes = (
"554 0 LINE",
"571 179 LINE",
"544 179 LINE",
"538 124 OFFCURVE",
"520 40 OFFCURVE",
"456 40 CURVE SMOOTH",
"201 40 LINE",
"201 659 LINE",
"441 659 LINE SMOOTH",
"516 659 OFFCURVE",
"525 567 OFFCURVE",
"528 527 CURVE",
"555 527 LINE",
"555 700 LINE",
"16 700 LINE",
"16 673 LINE",
"44 673 LINE SMOOTH",
"83 673 OFFCURVE",
"103 662 OFFCURVE",
"103 637 CURVE SMOOTH",
"103 62 LINE SMOOTH",
"103 37 OFFCURVE",
"83 26 OFFCURVE",
"44 26 CURVE SMOOTH",
"16 26 LINE",
"16 0 LINE"
);
},
{
closed = 1;
nodes = (
"455 251 LINE",
"455 485 LINE",
"431 485 LINE",
"427 436 OFFCURVE",
"424 388 OFFCURVE",
"379 388 CURVE SMOOTH",
"162 388 LINE",
"162 348 LINE",
"379 348 LINE SMOOTH",
"424 348 OFFCURVE",
"427 300 OFFCURVE",
"431 251 CURVE"
);
},
{
closed = 1;
nodes = (
"495 782 LINE",
"495 824 LINE",
"162 824 LINE",
"162 782 LINE"
);
}
);
};
components = (
{
name = E;
},
{
name = macroncomb;
transform = "{1, 0, 0, 1, 383, 200}";
}
);
layerId = "F86CB789-B416-49E2-AD1B-BE88A4A88FF7";
width = 640;
}
);
note = Emacron;
unicode = 0112;
},
{
color = 9;
glyphname = Eogonek;
lastChange = "2018-03-30 19:21:51 +0000";
layers = (
{
anchors = (
{
name = top;
position = "{304, 700}";
}
);
background = {
paths = (
{
closed = 1;
nodes = (
"554 0 LINE",
"571 179 LINE",
"544 179 LINE",
"538 124 OFFCURVE",
"520 40 OFFCURVE",
"456 40 CURVE SMOOTH",
"201 40 LINE",
"201 659 LINE",
"441 659 LINE SMOOTH",
"516 659 OFFCURVE",
"525 567 OFFCURVE",
"528 527 CURVE",
"555 527 LINE",
"555 700 LINE",
"16 700 LINE",
"16 673 LINE",
"44 673 LINE SMOOTH",
"83 673 OFFCURVE",
"103 662 OFFCURVE",
"103 637 CURVE SMOOTH",
"103 62 LINE SMOOTH",
"103 37 OFFCURVE",
"83 26 OFFCURVE",
"44 26 CURVE SMOOTH",
"16 26 LINE",
"16 0 LINE"
);
},
{
closed = 1;
nodes = (
"496 -196 OFFCURVE",
"524 -189 OFFCURVE",
"549 -172 CURVE",
"543 -152 LINE",
"527 -158 OFFCURVE",
"510 -162 OFFCURVE",
"497 -162 CURVE SMOOTH",
"464 -162 OFFCURVE",
"437 -146 OFFCURVE",
"437 -106 CURVE SMOOTH",
"437 -66 OFFCURVE",
"464 -26 OFFCURVE",
"510 4 CURVE",
"469 4 LINE",
"416 -22 OFFCURVE",
"376 -64 OFFCURVE",
"376 -114 CURVE SMOOTH",
"376 -147 OFFCURVE",
"395 -196 OFFCURVE",
"470 -196 CURVE SMOOTH"
);
},
{
closed = 1;
nodes = (
"455 251 LINE",
"455 485 LINE",
"431 485 LINE",
"427 436 OFFCURVE",
"424 388 OFFCURVE",
"379 388 CURVE SMOOTH",
"162 388 LINE",
"162 348 LINE",
"379 348 LINE SMOOTH",
"424 348 OFFCURVE",
"427 300 OFFCURVE",
"431 251 CURVE"
);
}
);
};
components = (
{
name = E;
},
{
name = ogonekcomb;
transform = "{1, 0, 0, 1, 480, 30}";
}
);
layerId = "0B1DFD06-3317-40CA-B510-4969A0718C16";
width = 574;
},
{
anchors = (
{
name = top;
position = "{304, 700}";
}
);
background = {
paths = (
{
closed = 1;
nodes = (
"554 0 LINE",
"571 179 LINE",
"544 179 LINE",
"538 124 OFFCURVE",
"520 40 OFFCURVE",
"456 40 CURVE SMOOTH",
"201 40 LINE",
"201 659 LINE",
"441 659 LINE SMOOTH",
"516 659 OFFCURVE",
"525 567 OFFCURVE",
"528 527 CURVE",
"555 527 LINE",
"555 700 LINE",
"16 700 LINE",
"16 673 LINE",
"44 673 LINE SMOOTH",
"83 673 OFFCURVE",
"103 662 OFFCURVE",
"103 637 CURVE SMOOTH",
"103 62 LINE SMOOTH",
"103 37 OFFCURVE",
"83 26 OFFCURVE",
"44 26 CURVE SMOOTH",
"16 26 LINE",
"16 0 LINE"
);
},
{
closed = 1;
nodes = (
"496 -196 OFFCURVE",
"524 -189 OFFCURVE",
"549 -172 CURVE",
"543 -152 LINE",
"527 -158 OFFCURVE",
"510 -162 OFFCURVE",
"497 -162 CURVE SMOOTH",
"464 -162 OFFCURVE",
"437 -146 OFFCURVE",
"437 -106 CURVE SMOOTH",
"437 -66 OFFCURVE",
"464 -26 OFFCURVE",
"510 4 CURVE",
"469 4 LINE",
"416 -22 OFFCURVE",
"376 -64 OFFCURVE",
"376 -114 CURVE SMOOTH",
"376 -147 OFFCURVE",
"395 -196 OFFCURVE",
"470 -196 CURVE SMOOTH"
);
},
{
closed = 1;
nodes = (
"455 251 LINE",
"455 485 LINE",
"431 485 LINE",
"427 436 OFFCURVE",
"424 388 OFFCURVE",
"379 388 CURVE SMOOTH",
"162 388 LINE",
"162 348 LINE",
"379 348 LINE SMOOTH",
"424 348 OFFCURVE",
"427 300 OFFCURVE",
"431 251 CURVE"
);
}
);
};
components = (
{
name = E;
},
{
name = ogonekcomb;
transform = "{1, 0, 0, 1, 509, 47}";
}
);
layerId = "2F8C22CF-EC86-44F4-AF1A-A6C7F26A0C3C";
width = 640;
},
{
anchors = (
{
name = top;
position = "{304, 700}";
}
);
components = (
{
name = E;
},
{
name = ogonekcomb;
transform = "{1, 0, 0, 1, 468, 38}";
}
);
layerId = "17B9D149-A542-49FB-8130-D430586D7342";
width = 573;
},
{
anchors = (
{
name = top;
position = "{385, 700}";
}
);
background = {
paths = (
{
closed = 1;
nodes = (
"554 0 LINE",
"571 179 LINE",
"544 179 LINE",
"538 124 OFFCURVE",
"520 40 OFFCURVE",
"456 40 CURVE SMOOTH",
"201 40 LINE",
"201 659 LINE",
"441 659 LINE SMOOTH",
"516 659 OFFCURVE",
"525 567 OFFCURVE",
"528 527 CURVE",
"555 527 LINE",
"555 700 LINE",
"16 700 LINE",
"16 673 LINE",
"44 673 LINE SMOOTH",
"83 673 OFFCURVE",
"103 662 OFFCURVE",
"103 637 CURVE SMOOTH",
"103 62 LINE SMOOTH",
"103 37 OFFCURVE",
"83 26 OFFCURVE",
"44 26 CURVE SMOOTH",
"16 26 LINE",
"16 0 LINE"
);
},
{
closed = 1;
nodes = (
"496 -196 OFFCURVE",
"524 -189 OFFCURVE",
"549 -172 CURVE",
"543 -152 LINE",
"527 -158 OFFCURVE",
"510 -162 OFFCURVE",
"497 -162 CURVE SMOOTH",
"464 -162 OFFCURVE",
"437 -146 OFFCURVE",
"437 -106 CURVE SMOOTH",
"437 -66 OFFCURVE",
"464 -26 OFFCURVE",
"510 4 CURVE",
"469 4 LINE",
"416 -22 OFFCURVE",
"376 -64 OFFCURVE",
"376 -114 CURVE SMOOTH",
"376 -147 OFFCURVE",
"395 -196 OFFCURVE",
"470 -196 CURVE SMOOTH"
);
},
{
closed = 1;
nodes = (
"455 251 LINE",
"455 485 LINE",
"431 485 LINE",
"427 436 OFFCURVE",
"424 388 OFFCURVE",
"379 388 CURVE SMOOTH",
"162 388 LINE",
"162 348 LINE",
"379 348 LINE SMOOTH",
"424 348 OFFCURVE",
"427 300 OFFCURVE",
"431 251 CURVE"
);
}
);
};
components = (
{
name = E;
},
{
name = ogonekcomb;
transform = "{1, 0, 0, 1, 485, 30}";
}
);
layerId = "2214C8E2-2079-4DC2-8649-1937C1DD8804";
width = 574;
},
{
anchors = (
{
name = top;
position = "{385, 700}";
}
);
components = (
{
name = E;
},
{
name = ogonekcomb;
transform = "{1, 0, 0, 1, 475, 38}";
}
);
layerId = "AEE50E4E-1B30-4E16-A434-AC23B12A4294";
width = 573;
},
{
anchors = (
{
name = top;
position = "{385, 700}";
}
);
background = {
paths = (
{
closed = 1;
nodes = (
"554 0 LINE",
"571 179 LINE",
"544 179 LINE",
"538 124 OFFCURVE",
"520 40 OFFCURVE",
"456 40 CURVE SMOOTH",
"201 40 LINE",
"201 659 LINE",
"441 659 LINE SMOOTH",
"516 659 OFFCURVE",
"525 567 OFFCURVE",
"528 527 CURVE",
"555 527 LINE",
"555 700 LINE",
"16 700 LINE",
"16 673 LINE",
"44 673 LINE SMOOTH",
"83 673 OFFCURVE",
"103 662 OFFCURVE",
"103 637 CURVE SMOOTH",
"103 62 LINE SMOOTH",
"103 37 OFFCURVE",
"83 26 OFFCURVE",
"44 26 CURVE SMOOTH",
"16 26 LINE",
"16 0 LINE"
);
},
{
closed = 1;
nodes = (
"496 -196 OFFCURVE",
"524 -189 OFFCURVE",
"549 -172 CURVE",
"543 -152 LINE",
"527 -158 OFFCURVE",
"510 -162 OFFCURVE",
"497 -162 CURVE SMOOTH",
"464 -162 OFFCURVE",
"437 -146 OFFCURVE",
"437 -106 CURVE SMOOTH",
"437 -66 OFFCURVE",
"464 -26 OFFCURVE",
"510 4 CURVE",
"469 4 LINE",
"416 -22 OFFCURVE",
"376 -64 OFFCURVE",
"376 -114 CURVE SMOOTH",
"376 -147 OFFCURVE",
"395 -196 OFFCURVE",
"470 -196 CURVE SMOOTH"
);
},
{
closed = 1;
nodes = (
"455 251 LINE",
"455 485 LINE",
"431 485 LINE",
"427 436 OFFCURVE",
"424 388 OFFCURVE",
"379 388 CURVE SMOOTH",
"162 388 LINE",
"162 348 LINE",
"379 348 LINE SMOOTH",
"424 348 OFFCURVE",
"427 300 OFFCURVE",
"431 251 CURVE"
);
}
);
};
components = (
{
name = E;
},
{
name = ogonekcomb;
transform = "{1, 0, 0, 1, 521, 51}";
}
);
layerId = "F86CB789-B416-49E2-AD1B-BE88A4A88FF7";
width = 640;
}
);
note = Eogonek;
unicode = 0118;
},
{
color = 9;
glyphname = Etilde;
lastChange = "2018-03-29 18:43:48 +0000";
layers = (
{
background = {
paths = (
{
closed = 1;
nodes = (
"554 0 LINE",
"571 179 LINE",
"544 179 LINE",
"538 124 OFFCURVE",
"520 40 OFFCURVE",
"456 40 CURVE SMOOTH",
"201 40 LINE",
"201 659 LINE",
"441 659 LINE SMOOTH",
"516 659 OFFCURVE",
"525 567 OFFCURVE",
"528 527 CURVE",
"555 527 LINE",
"555 700 LINE",
"16 700 LINE",
"16 673 LINE",
"44 673 LINE SMOOTH",
"83 673 OFFCURVE",
"103 662 OFFCURVE",
"103 637 CURVE SMOOTH",
"103 62 LINE SMOOTH",
"103 37 OFFCURVE",
"83 26 OFFCURVE",
"44 26 CURVE SMOOTH",
"16 26 LINE",
"16 0 LINE"
);
},
{
closed = 1;
nodes = (
"455 251 LINE",
"455 485 LINE",
"431 485 LINE",
"427 436 OFFCURVE",
"424 388 OFFCURVE",
"379 388 CURVE SMOOTH",
"162 388 LINE",
"162 348 LINE",
"379 348 LINE SMOOTH",
"424 348 OFFCURVE",
"427 300 OFFCURVE",
"431 251 CURVE"
);
},
{
closed = 1;
nodes = (
"190 817 OFFCURVE",
"208 838 OFFCURVE",
"241 838 CURVE SMOOTH",
"292 838 OFFCURVE",
"341 784 OFFCURVE",
"392 784 CURVE SMOOTH",
"450 784 OFFCURVE",
"480 832 OFFCURVE",
"492 884 CURVE",
"471 895 LINE",
"455 855 OFFCURVE",
"439 833 OFFCURVE",
"405 833 CURVE SMOOTH",
"356 833 OFFCURVE",
"304 886 OFFCURVE",
"253 886 CURVE SMOOTH",
"199 886 OFFCURVE",
"166 842 OFFCURVE",
"154 790 CURVE",
"176 779 LINE"
);
}
);
};
components = (
{
name = E;
},
{
name = tildecomb;
transform = "{1, 0, 0, 1, 311, 200}";
}
);
layerId = "0B1DFD06-3317-40CA-B510-4969A0718C16";
width = 574;
},
{
background = {
paths = (
{
closed = 1;
nodes = (
"554 0 LINE",
"571 179 LINE",
"544 179 LINE",
"538 124 OFFCURVE",
"520 40 OFFCURVE",
"456 40 CURVE SMOOTH",
"201 40 LINE",
"201 659 LINE",
"441 659 LINE SMOOTH",
"516 659 OFFCURVE",
"525 567 OFFCURVE",
"528 527 CURVE",
"555 527 LINE",
"555 700 LINE",
"16 700 LINE",
"16 673 LINE",
"44 673 LINE SMOOTH",
"83 673 OFFCURVE",
"103 662 OFFCURVE",
"103 637 CURVE SMOOTH",
"103 62 LINE SMOOTH",
"103 37 OFFCURVE",
"83 26 OFFCURVE",
"44 26 CURVE SMOOTH",
"16 26 LINE",
"16 0 LINE"
);
},
{
closed = 1;
nodes = (
"455 251 LINE",
"455 485 LINE",
"431 485 LINE",
"427 436 OFFCURVE",
"424 388 OFFCURVE",
"379 388 CURVE SMOOTH",
"162 388 LINE",
"162 348 LINE",
"379 348 LINE SMOOTH",
"424 348 OFFCURVE",
"427 300 OFFCURVE",
"431 251 CURVE"
);
},
{
closed = 1;
nodes = (
"190 817 OFFCURVE",
"208 838 OFFCURVE",
"241 838 CURVE SMOOTH",
"292 838 OFFCURVE",
"341 784 OFFCURVE",
"392 784 CURVE SMOOTH",
"450 784 OFFCURVE",
"480 832 OFFCURVE",
"492 884 CURVE",
"471 895 LINE",
"455 855 OFFCURVE",
"439 833 OFFCURVE",
"405 833 CURVE SMOOTH",
"356 833 OFFCURVE",
"304 886 OFFCURVE",
"253 886 CURVE SMOOTH",
"199 886 OFFCURVE",
"166 842 OFFCURVE",
"154 790 CURVE",
"176 779 LINE"
);
}
);
};
components = (
{
name = E;
},
{
name = tildecomb;
transform = "{1, 0, 0, 1, 348, 200}";
}
);
layerId = "2F8C22CF-EC86-44F4-AF1A-A6C7F26A0C3C";
width = 640;
},
{
components = (
{
name = E;
},
{
name = tildecomb;
transform = "{1, 0, 0, 1, 301, 200}";
}
);
layerId = "17B9D149-A542-49FB-8130-D430586D7342";
width = 573;
},
{
background = {
paths = (
{
closed = 1;
nodes = (
"554 0 LINE",
"571 179 LINE",
"544 179 LINE",
"538 124 OFFCURVE",
"520 40 OFFCURVE",
"456 40 CURVE SMOOTH",
"201 40 LINE",
"201 659 LINE",
"441 659 LINE SMOOTH",
"516 659 OFFCURVE",
"525 567 OFFCURVE",
"528 527 CURVE",
"555 527 LINE",
"555 700 LINE",
"16 700 LINE",
"16 673 LINE",
"44 673 LINE SMOOTH",
"83 673 OFFCURVE",
"103 662 OFFCURVE",
"103 637 CURVE SMOOTH",
"103 62 LINE SMOOTH",
"103 37 OFFCURVE",
"83 26 OFFCURVE",
"44 26 CURVE SMOOTH",
"16 26 LINE",
"16 0 LINE"
);
},
{
closed = 1;
nodes = (
"455 251 LINE",
"455 485 LINE",
"431 485 LINE",
"427 436 OFFCURVE",
"424 388 OFFCURVE",
"379 388 CURVE SMOOTH",
"162 388 LINE",
"162 348 LINE",
"379 348 LINE SMOOTH",
"424 348 OFFCURVE",
"427 300 OFFCURVE",
"431 251 CURVE"
);
},
{
closed = 1;
nodes = (
"190 817 OFFCURVE",
"208 838 OFFCURVE",
"241 838 CURVE SMOOTH",
"292 838 OFFCURVE",
"341 784 OFFCURVE",
"392 784 CURVE SMOOTH",
"450 784 OFFCURVE",
"480 832 OFFCURVE",
"492 884 CURVE",
"471 895 LINE",
"455 855 OFFCURVE",
"439 833 OFFCURVE",
"405 833 CURVE SMOOTH",
"356 833 OFFCURVE",
"304 886 OFFCURVE",
"253 886 CURVE SMOOTH",
"199 886 OFFCURVE",
"166 842 OFFCURVE",
"154 790 CURVE",
"176 779 LINE"
);
}
);
};
components = (
{
name = E;
},
{
name = tildecomb;
transform = "{1, 0, 0, 1, 346, 200}";
}
);
layerId = "2214C8E2-2079-4DC2-8649-1937C1DD8804";
width = 574;
},
{
components = (
{
name = E;
},
{
name = tildecomb;
transform = "{1, 0, 0, 1, 336, 200}";
}
);
layerId = "AEE50E4E-1B30-4E16-A434-AC23B12A4294";
width = 573;
},
{
background = {
paths = (
{
closed = 1;
nodes = (
"554 0 LINE",
"571 179 LINE",
"544 179 LINE",
"538 124 OFFCURVE",
"520 40 OFFCURVE",
"456 40 CURVE SMOOTH",
"201 40 LINE",
"201 659 LINE",
"441 659 LINE SMOOTH",
"516 659 OFFCURVE",
"525 567 OFFCURVE",
"528 527 CURVE",
"555 527 LINE",
"555 700 LINE",
"16 700 LINE",
"16 673 LINE",
"44 673 LINE SMOOTH",
"83 673 OFFCURVE",
"103 662 OFFCURVE",
"103 637 CURVE SMOOTH",
"103 62 LINE SMOOTH",
"103 37 OFFCURVE",
"83 26 OFFCURVE",
"44 26 CURVE SMOOTH",
"16 26 LINE",
"16 0 LINE"
);
},
{
closed = 1;
nodes = (
"455 251 LINE",
"455 485 LINE",
"431 485 LINE",
"427 436 OFFCURVE",
"424 388 OFFCURVE",
"379 388 CURVE SMOOTH",
"162 388 LINE",
"162 348 LINE",
"379 348 LINE SMOOTH",
"424 348 OFFCURVE",
"427 300 OFFCURVE",
"431 251 CURVE"
);
},
{
closed = 1;
nodes = (
"190 817 OFFCURVE",
"208 838 OFFCURVE",
"241 838 CURVE SMOOTH",
"292 838 OFFCURVE",
"341 784 OFFCURVE",
"392 784 CURVE SMOOTH",
"450 784 OFFCURVE",
"480 832 OFFCURVE",
"492 884 CURVE",
"471 895 LINE",
"455 855 OFFCURVE",
"439 833 OFFCURVE",
"405 833 CURVE SMOOTH",
"356 833 OFFCURVE",
"304 886 OFFCURVE",
"253 886 CURVE SMOOTH",
"199 886 OFFCURVE",
"166 842 OFFCURVE",
"154 790 CURVE",
"176 779 LINE"
);
}
);
};
components = (
{
name = E;
},
{
name = tildecomb;
transform = "{1, 0, 0, 1, 383, 200}";
}
);
layerId = "F86CB789-B416-49E2-AD1B-BE88A4A88FF7";
width = 640;
}
);
note = Etilde;
unicode = 1EBC;
},
{
color = 6;
glyphname = F;
lastChange = "2018-03-29 18:43:48 +0000";
layers = (
{
anchors = (
{
name = bottom;
position = "{306, 0}";
},
{
name = top;
position = "{306, 700}";
}
);
layerId = "0B1DFD06-3317-40CA-B510-4969A0718C16";
paths = (
{
closed = 1;
nodes = (
"168 6 OFFCURVE",
"175 10 OFFCURVE",
"176 18 CURVE SMOOTH",
"182 70 OFFCURVE",
"188 192 OFFCURVE",
"188 341 CURVE SMOOTH",
"188 533 OFFCURVE",
"174 644 OFFCURVE",
"168 728 CURVE SMOOTH",
"167 741 OFFCURVE",
"161 745 OFFCURVE",
"151 745 CURVE SMOOTH",
"141 745 OFFCURVE",
"135 739 OFFCURVE",
"136 727 CURVE SMOOTH",
"144 633 OFFCURVE",
"157 548 OFFCURVE",
"157 338 CURVE SMOOTH",
"157 162 OFFCURVE",
"150 75 OFFCURVE",
"145 20 CURVE SMOOTH",
"144 11 OFFCURVE",
"151 6 OFFCURVE",
"160 6 CURVE SMOOTH"
);
},
{
closed = 1;
nodes = (
"187 338 OFFCURVE",
"217 343 OFFCURVE",
"319 343 CURVE SMOOTH",
"384 343 OFFCURVE",
"416 341 OFFCURVE",
"456 339 CURVE SMOOTH",
"463 339 OFFCURVE",
"472 340 OFFCURVE",
"472 352 CURVE SMOOTH",
"472 363 OFFCURVE",
"465 368 OFFCURVE",
"455 369 CURVE SMOOTH",
"416 371 OFFCURVE",
"372 373 OFFCURVE",
"315 373 CURVE SMOOTH",
"224 373 OFFCURVE",
"189 368 OFFCURVE",
"95 356 CURVE SMOOTH",
"87 355 OFFCURVE",
"82 348 OFFCURVE",
"82 339 CURVE SMOOTH",
"82 327 OFFCURVE",
"91 324 OFFCURVE",
"98 325 CURVE SMOOTH"
);
},
{
closed = 1;
nodes = (
"528 655 OFFCURVE",
"533 661 OFFCURVE",
"533 670 CURVE SMOOTH",
"533 679 OFFCURVE",
"529 685 OFFCURVE",
"518 687 CURVE SMOOTH",
"465 697 OFFCURVE",
"419 700 OFFCURVE",
"321 700 CURVE SMOOTH",
"258 700 OFFCURVE",
"209 697 OFFCURVE",
"97 689 CURVE SMOOTH",
"83 688 OFFCURVE",
"80 681 OFFCURVE",
"80 673 CURVE SMOOTH",
"80 664 OFFCURVE",
"84 657 OFFCURVE",
"98 658 CURVE SMOOTH",
"210 666 OFFCURVE",
"260 670 OFFCURVE",
"324 670 CURVE SMOOTH",
"404 670 OFFCURVE",
"452 665 OFFCURVE",
"516 657 CURVE SMOOTH"
);
}
);
width = 573;
},
{
anchors = (
{
name = bottom;
position = "{367, 0}";
},
{
name = top;
position = "{367, 700}";
}
);
layerId = "2F8C22CF-EC86-44F4-AF1A-A6C7F26A0C3C";
paths = (
{
closed = 1;
nodes = (
"256 1 OFFCURVE",
"281 26 OFFCURVE",
"283 61 CURVE SMOOTH",
"287 128 OFFCURVE",
"292 210 OFFCURVE",
"292 340 CURVE SMOOTH",
"292 504 OFFCURVE",
"286 622 OFFCURVE",
"276 706 CURVE SMOOTH",
"272 740 OFFCURVE",
"249 760 OFFCURVE",
"204 760 CURVE SMOOTH",
"156 760 OFFCURVE",
"126 738 OFFCURVE",
"129 705 CURVE SMOOTH",
"139 598 OFFCURVE",
"147 515 OFFCURVE",
"147 327 CURVE SMOOTH",
"147 202 OFFCURVE",
"143 135 OFFCURVE",
"137 62 CURVE SMOOTH",
"134 26 OFFCURVE",
"164 1 OFFCURVE",
"210 1 CURVE SMOOTH"
);
},
{
closed = 1;
nodes = (
"185 284 OFFCURVE",
"249 290 OFFCURVE",
"340 290 CURVE SMOOTH",
"400 290 OFFCURVE",
"438 287 OFFCURVE",
"488 282 CURVE SMOOTH",
"534 277 OFFCURVE",
"551 310 OFFCURVE",
"551 344 CURVE SMOOTH",
"551 378 OFFCURVE",
"534 398 OFFCURVE",
"497 407 CURVE SMOOTH",
"454 417 OFFCURVE",
"400 418 OFFCURVE",
"336 418 CURVE SMOOTH",
"263 418 OFFCURVE",
"184 413 OFFCURVE",
"136 405 CURVE SMOOTH",
"102 399 OFFCURVE",
"73 387 OFFCURVE",
"73 341 CURVE SMOOTH",
"73 302 OFFCURVE",
"94 272 OFFCURVE",
"125 276 CURVE SMOOTH"
);
},
{
closed = 1;
nodes = (
"580 560 OFFCURVE",
"601 589 OFFCURVE",
"601 627 CURVE SMOOTH",
"601 659 OFFCURVE",
"587 682 OFFCURVE",
"544 691 CURVE SMOOTH",
"510 698 OFFCURVE",
"427 703 OFFCURVE",
"357 703 CURVE SMOOTH",
"265 703 OFFCURVE",
"159 703 OFFCURVE",
"119 697 CURVE SMOOTH",
"91 693 OFFCURVE",
"70 681 OFFCURVE",
"70 634 CURVE SMOOTH",
"70 585 OFFCURVE",
"92 571 OFFCURVE",
"132 571 CURVE SMOOTH",
"158 571 OFFCURVE",
"277 575 OFFCURVE",
"351 575 CURVE SMOOTH",
"436 575 OFFCURVE",
"503 568 OFFCURVE",
"541 564 CURVE SMOOTH"
);
}
);
width = 641;
},
{
anchors = (
{
name = bottom;
position = "{302, 0}";
},
{
name = top;
position = "{302, 700}";
}
);
layerId = "17B9D149-A542-49FB-8130-D430586D7342";
paths = (
{
closed = 1;
nodes = (
"171 6 OFFCURVE",
"185 18 OFFCURVE",
"187 37 CURVE SMOOTH",
"192 97 OFFCURVE",
"197 197 OFFCURVE",
"197 337 CURVE SMOOTH",
"197 524 OFFCURVE",
"188 628 OFFCURVE",
"179 707 CURVE SMOOTH",
"176 733 OFFCURVE",
"163 745 OFFCURVE",
"140 745 CURVE SMOOTH",
"115 745 OFFCURVE",
"99 731 OFFCURVE",
"101 708 CURVE SMOOTH",
"113 598 OFFCURVE",
"121 521 OFFCURVE",
"121 333 CURVE SMOOTH",
"121 171 OFFCURVE",
"115 98 OFFCURVE",
"110 38 CURVE SMOOTH",
"108 19 OFFCURVE",
"124 6 OFFCURVE",
"148 6 CURVE SMOOTH"
);
},
{
closed = 1;
nodes = (
"159 318 OFFCURVE",
"205 323 OFFCURVE",
"282 323 CURVE SMOOTH",
"346 323 OFFCURVE",
"394 321 OFFCURVE",
"437 318 CURVE SMOOTH",
"464 316 OFFCURVE",
"471 334 OFFCURVE",
"471 350 CURVE SMOOTH",
"471 368 OFFCURVE",
"462 383 OFFCURVE",
"440 386 CURVE SMOOTH",
"393 392 OFFCURVE",
"339 393 OFFCURVE",
"283 393 CURVE SMOOTH",
"197 393 OFFCURVE",
"149 386 OFFCURVE",
"79 377 CURVE SMOOTH",
"56 374 OFFCURVE",
"46 360 OFFCURVE",
"46 341 CURVE SMOOTH",
"46 319 OFFCURVE",
"59 305 OFFCURVE",
"77 307 CURVE SMOOTH"
);
},
{
closed = 1;
nodes = (
"517 618 OFFCURVE",
"528 635 OFFCURVE",
"528 655 CURVE SMOOTH",
"528 678 OFFCURVE",
"514 686 OFFCURVE",
"496 690 CURVE SMOOTH",
"466 697 OFFCURVE",
"393 703 OFFCURVE",
"302 703 CURVE SMOOTH",
"228 703 OFFCURVE",
"158 699 OFFCURVE",
"78 694 CURVE SMOOTH",
"50 692 OFFCURVE",
"44 678 OFFCURVE",
"44 660 CURVE SMOOTH",
"44 637 OFFCURVE",
"53 624 OFFCURVE",
"81 625 CURVE SMOOTH",
"149 628 OFFCURVE",
"231 634 OFFCURVE",
"307 634 CURVE SMOOTH",
"382 634 OFFCURVE",
"436 628 OFFCURVE",
"494 621 CURVE SMOOTH"
);
}
);
width = 559;
},
{
anchors = (
{
name = bottom;
position = "{264, 0}";
},
{
name = top;
position = "{387, 700}";
}
);
layerId = "2214C8E2-2079-4DC2-8649-1937C1DD8804";
paths = (
{
closed = 1;
nodes = (
"127 6 OFFCURVE",
"135 10 OFFCURVE",
"137 18 CURVE SMOOTH",
"152 70 OFFCURVE",
"180 192 OFFCURVE",
"206 341 CURVE SMOOTH",
"240 533 OFFCURVE",
"246 644 OFFCURVE",
"254 728 CURVE SMOOTH",
"256 741 OFFCURVE",
"250 745 OFFCURVE",
"240 745 CURVE SMOOTH",
"230 745 OFFCURVE",
"223 739 OFFCURVE",
"222 727 CURVE SMOOTH",
"214 633 OFFCURVE",
"212 548 OFFCURVE",
"175 338 CURVE SMOOTH",
"144 162 OFFCURVE",
"121 75 OFFCURVE",
"107 20 CURVE SMOOTH",
"104 11 OFFCURVE",
"110 6 OFFCURVE",
"119 6 CURVE SMOOTH"
);
},
{
closed = 1;
nodes = (
"203 338 OFFCURVE",
"257 343 OFFCURVE",
"337 343 CURVE SMOOTH",
"402 343 OFFCURVE",
"434 342 OFFCURVE",
"474 339 CURVE SMOOTH",
"486 338 OFFCURVE",
"492 340 OFFCURVE",
"492 356 CURVE SMOOTH",
"492 364 OFFCURVE",
"487 368 OFFCURVE",
"478 369 CURVE SMOOTH",
"435 374 OFFCURVE",
"396 373 OFFCURVE",
"339 373 CURVE SMOOTH",
"248 373 OFFCURVE",
"212 368 OFFCURVE",
"116 356 CURVE SMOOTH",
"107 355 OFFCURVE",
"100 346 OFFCURVE",
"100 335 CURVE SMOOTH",
"100 327 OFFCURVE",
"105 325 OFFCURVE",
"111 325 CURVE SMOOTH"
);
},
{
closed = 1;
nodes = (
"603 655 OFFCURVE",
"610 663 OFFCURVE",
"610 675 CURVE SMOOTH",
"610 681 OFFCURVE",
"606 685 OFFCURVE",
"597 687 CURVE SMOOTH",
"538 700 OFFCURVE",
"480 700 OFFCURVE",
"402 700 CURVE SMOOTH",
"321 700 OFFCURVE",
"266 694 OFFCURVE",
"176 689 CURVE SMOOTH",
"159 688 OFFCURVE",
"156 678 OFFCURVE",
"156 669 CURVE SMOOTH",
"156 663 OFFCURVE",
"160 657 OFFCURVE",
"169 658 CURVE SMOOTH",
"269 664 OFFCURVE",
"321 670 OFFCURVE",
"400 670 CURVE SMOOTH",
"480 670 OFFCURVE",
"527 667 OFFCURVE",
"590 657 CURVE SMOOTH"
);
}
);
width = 573;
},
{
anchors = (
{
name = bottom;
position = "{260, 0}";
},
{
name = top;
position = "{383, 700}";
}
);
layerId = "AEE50E4E-1B30-4E16-A434-AC23B12A4294";
paths = (
{
closed = 1;
nodes = (
"130 6 OFFCURVE",
"146 18 OFFCURVE",
"152 37 CURVE SMOOTH",
"167 97 OFFCURVE",
"190 197 OFFCURVE",
"214 337 CURVE SMOOTH",
"247 524 OFFCURVE",
"257 628 OFFCURVE",
"262 707 CURVE SMOOTH",
"263 733 OFFCURVE",
"252 745 OFFCURVE",
"229 745 CURVE SMOOTH",
"204 745 OFFCURVE",
"186 731 OFFCURVE",
"184 708 CURVE SMOOTH",
"176 598 OFFCURVE",
"171 521 OFFCURVE",
"138 333 CURVE SMOOTH",
"109 171 OFFCURVE",
"90 98 OFFCURVE",
"75 38 CURVE SMOOTH",
"71 21 OFFCURVE",
"81 6 OFFCURVE",
"107 6 CURVE SMOOTH"
);
},
{
closed = 1;
nodes = (
"173 318 OFFCURVE",
"215 323 OFFCURVE",
"315 323 CURVE SMOOTH",
"379 323 OFFCURVE",
"409 321 OFFCURVE",
"451 318 CURVE SMOOTH",
"482 316 OFFCURVE",
"492 340 OFFCURVE",
"492 358 CURVE SMOOTH",
"492 372 OFFCURVE",
"484 383 OFFCURVE",
"466 386 CURVE SMOOTH",
"443 390 OFFCURVE",
"366 393 OFFCURVE",
"310 393 CURVE SMOOTH",
"224 393 OFFCURVE",
"175 386 OFFCURVE",
"103 377 CURVE SMOOTH",
"77 374 OFFCURVE",
"63 356 OFFCURVE",
"63 332 CURVE SMOOTH",
"63 315 OFFCURVE",
"73 305 OFFCURVE",
"89 307 CURVE SMOOTH"
);
},
{
closed = 1;
nodes = (
"588 618 OFFCURVE",
"602 641 OFFCURVE",
"602 664 CURVE SMOOTH",
"602 680 OFFCURVE",
"590 687 OFFCURVE",
"576 690 CURVE SMOOTH",
"547 697 OFFCURVE",
"475 703 OFFCURVE",
"384 703 CURVE SMOOTH",
"310 703 OFFCURVE",
"229 698 OFFCURVE",
"158 694 CURVE SMOOTH",
"131 692 OFFCURVE",
"117 676 OFFCURVE",
"117 649 CURVE SMOOTH",
"117 633 OFFCURVE",
"126 624 OFFCURVE",
"149 625 CURVE SMOOTH",
"227 630 OFFCURVE",
"301 634 OFFCURVE",
"377 634 CURVE SMOOTH",
"452 634 OFFCURVE",
"505 628 OFFCURVE",
"561 621 CURVE SMOOTH"
);
}
);
width = 559;
},
{
anchors = (
{
name = bottom;
position = "{325, 0}";
},
{
name = top;
position = "{448, 700}";
}
);
layerId = "F86CB789-B416-49E2-AD1B-BE88A4A88FF7";
paths = (
{
closed = 1;
nodes = (
"215 5 OFFCURVE",
"244 30 OFFCURVE",
"252 65 CURVE SMOOTH",
"268 132 OFFCURVE",
"288 214 OFFCURVE",
"311 344 CURVE SMOOTH",
"340 508 OFFCURVE",
"338 603 OFFCURVE",
"355 709 CURVE SMOOTH",
"360 741 OFFCURVE",
"342 759 OFFCURVE",
"296 759 CURVE SMOOTH",
"248 759 OFFCURVE",
"213 737 OFFCURVE",
"208 710 CURVE SMOOTH",
"189 605 OFFCURVE",
"197 519 OFFCURVE",
"163 331 CURVE SMOOTH",
"141 206 OFFCURVE",
"122 140 OFFCURVE",
"107 66 CURVE SMOOTH",
"99 26 OFFCURVE",
"128 5 OFFCURVE",
"169 5 CURVE SMOOTH"
);
},
{
closed = 1;
nodes = (
"194 287 OFFCURVE",
"259 294 OFFCURVE",
"350 294 CURVE SMOOTH",
"410 294 OFFCURVE",
"447 291 OFFCURVE",
"496 286 CURVE SMOOTH",
"549 281 OFFCURVE",
"571 324 OFFCURVE",
"571 363 CURVE SMOOTH",
"571 388 OFFCURVE",
"557 403 OFFCURVE",
"527 411 CURVE SMOOTH",
"486 421 OFFCURVE",
"404 422 OFFCURVE",
"368 422 CURVE SMOOTH",
"295 422 OFFCURVE",
"216 418 OFFCURVE",
"166 409 CURVE SMOOTH",
"121 401 OFFCURVE",
"90 380 OFFCURVE",
"90 327 CURVE SMOOTH",
"90 297 OFFCURVE",
"106 277 OFFCURVE",
"132 280 CURVE SMOOTH"
);
},
{
closed = 1;
nodes = (
"642 563 OFFCURVE",
"672 602 OFFCURVE",
"672 647 CURVE SMOOTH",
"672 671 OFFCURVE",
"659 688 OFFCURVE",
"625 695 CURVE SMOOTH",
"592 702 OFFCURVE",
"476 707 OFFCURVE",
"406 707 CURVE SMOOTH",
"361 707 OFFCURVE",
"241 706 OFFCURVE",
"201 701 CURVE SMOOTH",
"166 697 OFFCURVE",
"138 674 OFFCURVE",
"138 619 CURVE SMOOTH",
"138 585 OFFCURVE",
"157 575 OFFCURVE",
"185 575 CURVE SMOOTH",
"211 575 OFFCURVE",
"340 579 OFFCURVE",
"404 579 CURVE SMOOTH",
"489 579 OFFCURVE",
"562 572 OFFCURVE",
"599 568 CURVE SMOOTH"
);
}
);
width = 641;
}
);
note = F;
unicode = 0046;
},
